<?xml version="1.0" encoding="utf-8"?>
<!-- Generator: Adobe Illustrator 16.0.3, SVG Export Plug-In . SVG Version: 6.00 Build 0)  -->
<!DOCTYPE svg PUBLIC "-//W3C//DTD SVG 1.1//EN" "http://www.w3.org/Graphics/SVG/1.1/DTD/svg11.dtd">
<svg version="1.1"
	 id="圖層_2" xmlns:dc="http://purl.org/dc/elements/1.1/" xmlns:inkscape="http://www.inkscape.org/namespaces/inkscape" xmlns:rdf="http://www.w3.org/1999/02/22-rdf-syntax-ns#" xmlns:svg="http://www.w3.org/2000/svg" xmlns:sodipodi="http://sodipodi.sourceforge.net/DTD/sodipodi-0.dtd" xmlns:cc="http://creativecommons.org/ns#" sodipodi:docname="A01153-008.svg" inkscape:version="0.48.5 r10040"
	 xmlns="http://www.w3.org/2000/svg" xmlns:xlink="http://www.w3.org/1999/xlink" x="0px" y="0px" width="1000px" height="1000px"
	 viewBox="0 0 1000 1000" enable-background="new 0 0 1000 1000" xml:space="preserve">
<path id="path11" sodipodi:nodetypes="ccccscscccccccccccscccccccccccsscccccccscccscccccsscccscccccscccccscccccccccccccssccccscccccsscccccccccccccsccc" inkscape:connector-curvature="0" d="
	M258.982,67.309c11.732,12.146,21.921,25.109,30.551,38.871c9.399,13.76,16.45,27.929,21.149,42.505
	c3.91,10.535,7.821,17.024,11.75,19.436c3.91,3.246,8.987,4.858,15.267,4.858c7.821,0,14.872-4.858,21.15-14.577
	c4.701-8.085,7.051-19.435,7.051-34.012c0-7.271-2.351-14.148-7.051-20.643c-3.91-7.287-12.145-16.188-24.667-26.723
	c-10.979-9.718-25.851-19.436-44.649-29.153c-15.68-12.146-34.085-23.886-55.236-35.234l-18.8,14.575
	C233.508,41.79,248.003,55.162,258.982,67.309z M614.748,153.545c11.729-6.474,22.313-14.17,31.717-23.069
	c10.961-8.902,21.15-17.822,30.551-26.726c9.399-8.899,17.615-18.229,24.687-27.945c15.66,0,32.507-2.432,50.518-7.289
	c10.189-4.043,15.285-9.29,15.285-15.782c0-4.043-2.352-8.513-7.052-13.372C729.884,23.173,696.213,9.82,659.399-0.714
	c-0.787,8.105-2.765,16.6-5.884,25.499c-7.051,17.026-15.661,33.624-25.853,49.813c-10.979,17.006-21.938,32.396-32.899,46.158
	c-10.188,13.761-23.104,26.314-38.768,37.646l19.966,14.577C591.624,165.711,604.559,159.219,614.748,153.545z M423.167,674.648
	c32.038-16.181,63.359-33.475,93.979-51.88c42.003-22.823,84.721-49.32,128.154-79.49h338.688c10.682,0,16.028-6.253,16.028-18.775
	c0-5.142-2.854-9.559-8.543-13.248c-24.215-19.855-49.846-40.101-76.895-60.714l-51.262,60.714H689.096
	c7.107-5.143,14.592-10.651,22.418-16.554c56.254-45.627,121.39-108.919,195.446-189.893c12.814,0,27.05-2.208,42.72-6.624
	c12.097-3.675,18.146-7.737,18.146-12.153c0-3.674-3.914-8.442-11.739-14.343c-20.658-13.249-46.648-27.592-77.969-43.066
	c-29.244,49.05-60.575,90.403-93.963,124.116c0.664-2.31,1.007-5.027,1.007-8.185c0-5.158-3.213-9.574-9.604-13.249
	c-22.075-16.923-45.933-34.958-71.563-54.105l-46.989,52.993H484.561v-126.83h414.916c10.681,0,16.026-5.883,16.026-17.665
	c0-4.417-2.854-8.461-8.543-12.136c-24.211-20.597-49.843-41.582-76.895-62.938l-51.262,62.938H160.928
	c-51.262,0-81.267-4.787-111.887-14.361l20.299,49.691c18.506-2.935,41.745-4.788,91.588-5.529H433.3v126.831H244.007
	c-51.979,0-82.326-4.045-112.946-12.136l20.3,48.577c18.505-2.208,42.103-3.674,92.646-4.416H433.3v149.035H122.824
	c-51.263,0-92.204-4.047-122.824-12.138l20.3,48.577c18.505-2.207,52.68-3.674,102.524-4.416h448.798
	c-48.427,36.071-93.98,65.499-136.699,88.322c-28.185,16.65-58.991,32.709-92.411,48.176c-0.702-0.05-1.414-0.097-2.109-0.147
	c0.195,0.275,0.371,0.57,0.545,0.865c-25.226,11.634-51.917,22.936-80.109,33.899c-56.969,22.081-141.688,48.576-254.174,79.489
	l8.544,17.665c82.583-15.438,170.873-40.471,264.853-75.073c15.798-6.327,31.436-12.733,46.937-19.216
	c0.373,4.396,0.566,8.977,0.566,13.757V929.74c0,7.35,1.418,15.811,4.271,25.386c4.271,9.571,11.039,18.033,20.3,25.398
	c12.099,5.883,26.689,9.929,43.777,12.137c20.641,4.416,212.548,9.173,258.251,6.624c101.941,0.851,239.127-2.549,270.546-5.946
	c34.052-3.684,29.766-45.443,5.47-44.577c-68.108,2.438-188.516,9.098-276.016,9.947c-34.174,0-218.523-3.483-237.028-6.416
	c-23.937-2.472-42.396-16.812-42.582-40.217V792.844h488.016c8.543,0,12.813-5.883,12.813-17.666c0-5.157-3.212-9.573-9.604-13.246
	c-22.795-16.924-46.989-34.96-72.621-54.106l-46.99,52.994H374.554v-29.803c9.263-2.207,20.301-6.994,33.115-14.36
	c9.962-5.141,14.592-11.021,13.875-17.664c0-5.884-3.913-9.93-11.739-12.137c-2.771-0.753-5.638-1.484-8.558-2.209l7.298-3.229
	L423.167,674.648z M484.562,511.255V362.219h286.727c1.3,0,2.5-0.13,3.618-0.363C718.81,411.401,669.57,472.055,614.34,511.255
	H484.562z"/>
</svg>
