<?xml version="1.0" encoding="utf-8"?>
<!-- Generator: Adobe Illustrator 16.0.3, SVG Export Plug-In . SVG Version: 6.00 Build 0)  -->
<!DOCTYPE svg PUBLIC "-//W3C//DTD SVG 1.1//EN" "http://www.w3.org/Graphics/SVG/1.1/DTD/svg11.dtd">
<svg version="1.1"
	 id="svg2383" sodipodi:docname="siddham_ii2.svg" inkscape:version="0.46" xmlns:dc="http://purl.org/dc/elements/1.1/" xmlns:cc="http://creativecommons.org/ns#" xmlns:rdf="http://www.w3.org/1999/02/22-rdf-syntax-ns#" xmlns:svg="http://www.w3.org/2000/svg" xmlns:sodipodi="http://sodipodi.sourceforge.net/DTD/sodipodi-0.dtd" xmlns:inkscape="http://www.inkscape.org/namespaces/inkscape" sodipodi:version="0.32" inkscape:output_extension="org.inkscape.output.svg.inkscape"
	 xmlns="http://www.w3.org/2000/svg" xmlns:xlink="http://www.w3.org/1999/xlink" x="0px" y="0px" width="64px" height="64px"
	 viewBox="0 0 64 64" enable-background="new 0 0 64 64" xml:space="preserve">
<defs>
	
	
		<inkscape:perspective  inkscape:vp_y="0 : 1000 : 0" inkscape:vp_x="0 : 32 : 1" sodipodi:type="inkscape:persp3d" inkscape:vp_z="64 : 32 : 1" id="perspective2391" inkscape:persp3d-origin="32 : 21.333333 : 1">
		</inkscape:perspective>
	
		<inkscape:perspective  inkscape:vp_y="0 : 1000 : 0" inkscape:vp_x="0 : 526.18109 : 1" sodipodi:type="inkscape:persp3d" inkscape:vp_z="744.09448 : 526.18109 : 1" id="perspective2400" inkscape:persp3d-origin="372.04724 : 350.78739 : 1">
		</inkscape:perspective>
</defs>
<sodipodi:namedview  inkscape:current-layer="layer1" inkscape:window-y="28" inkscape:pageopacity="0.0" inkscape:pageshadow="2" inkscape:window-width="640" inkscape:window-height="688" inkscape:window-x="28" inkscape:cy="32" inkscape:cx="32" inkscape:zoom="5.5" showgrid="true" id="base" pagecolor="#ffffff" bordercolor="#666666" borderopacity="1.0" inkscape:grid-bbox="true" inkscape:document-units="px">
	</sodipodi:namedview>
<g id="layer1" inkscape:groupmode="layer" inkscape:label="Layer 1">
	<path id="path2406" sodipodi:nodetypes="csssssccsccssccssccccsssscscsssssscsssss" d="M26.993,57.98
		c-0.97-0.455-4.365-3.203-7.545-6.107c-3.18-2.903-7.162-6.109-8.848-7.125c-2.886-1.738-4.025-2.53-6.678-4.641
		c-1.093-0.87-1.068-0.876,2.905-0.642c3.886,0.229,5.924,1.284,7.461,2.104c2.55,1.36,4.89,2.967,7.065,5.001
		c2.747,3.077,6.057,5.167,9.649,7.035c2.121,1.105,5.263,0.832,7.107-0.617c1.501-1.182,2.684-4.644,2.369-6.932
		c-0.254-2.803-1.879-4.127-4.162-5.307c-1.1,0-1.194,0.167-1.194,2.105c0,2.627-0.767,3.117-4.208,2.689
		c-1.83-0.229-2.673-0.576-3.051-1.258c-1.544-1.642-0.495-3.076,0.208-4.847c0.641-1.727,2.772-3.003,4.148-3.407
		c2.878-0.843,5.647-1.547,8.224,0.301c4.219,3.027,8.906,10.197,6.939,15.891c-1.443,5.119-5.589,8.508-10.846,9.076
		C32.8,61.761,30.015,59.775,26.993,57.98z M10.178,34.383c-1.762-2.806-2.618-4.802-0.033-7.165
		c1.096-1.002,2.681-2.493,3.51-3.327c2.729-2.748,7.882,0.521,9.881,3.065c1.364,1.736,1.644,3.531,0.404,5.627
		c-1.885,3.186-4.89,3.611-8.38,3.923C12.82,36.782,11.591,36.632,10.178,34.383z M49.957,35.117
		c-2.28-1.061-2.921-1.614-3.399-2.94c-0.631-1.749-0.767-4.092-0.307-5.291c0.313-0.818,5.108-4.23,6.618-4.709
		c2.445-0.776,6.426,2.906,6.479,5.205c0.064,2.764,0.293,5.095-1.473,7.253C56.137,36.761,53.633,36.828,49.957,35.117z
		 M32.32,14.766c-2.466-2.052-3.329-3.761-3.329-6.593c0-2.917,0.34-3.337,4.245-5.252c2.176-1.067,3.018-1.002,5.466,0.174
		c3.347,1.607,4.237,7.208,2.021,9.888C38.135,16.114,34.577,16.645,32.32,14.766z"/>
</g>
</svg>
