<?xml version="1.0" encoding="utf-8"?>
<!-- Generator: Adobe Illustrator 16.0.3, SVG Export Plug-In . SVG Version: 6.00 Build 0)  -->
<!DOCTYPE svg PUBLIC "-//W3C//DTD SVG 1.1//EN" "http://www.w3.org/Graphics/SVG/1.1/DTD/svg11.dtd">
<svg version="1.1"
	 id="svg2396" sodipodi:docname="siddham_i.svg" inkscape:version="0.46" xmlns:dc="http://purl.org/dc/elements/1.1/" xmlns:cc="http://creativecommons.org/ns#" xmlns:rdf="http://www.w3.org/1999/02/22-rdf-syntax-ns#" xmlns:svg="http://www.w3.org/2000/svg" xmlns:sodipodi="http://sodipodi.sourceforge.net/DTD/sodipodi-0.dtd" xmlns:inkscape="http://www.inkscape.org/namespaces/inkscape" sodipodi:version="0.32" inkscape:output_extension="org.inkscape.output.svg.inkscape"
	 xmlns="http://www.w3.org/2000/svg" xmlns:xlink="http://www.w3.org/1999/xlink" x="0px" y="0px" width="64px" height="64px"
	 viewBox="0 0 64 64" enable-background="new 0 0 64 64" xml:space="preserve">
<defs>
	
	
		<inkscape:perspective  inkscape:vp_y="0 : 1000 : 0" inkscape:vp_x="0 : 32 : 1" sodipodi:type="inkscape:persp3d" inkscape:vp_z="64 : 32 : 1" id="perspective2404" inkscape:persp3d-origin="32 : 21.333333 : 1">
		</inkscape:perspective>
	
		<inkscape:perspective  inkscape:vp_y="0 : 1000 : 0" inkscape:vp_x="0 : 526.18109 : 1" sodipodi:type="inkscape:persp3d" inkscape:vp_z="744.09448 : 526.18109 : 1" id="perspective2436" inkscape:persp3d-origin="372.04724 : 350.78739 : 1">
		</inkscape:perspective>
	
		<inkscape:perspective  inkscape:vp_y="0 : 1000 : 0" inkscape:vp_x="0 : 526.18109 : 1" sodipodi:type="inkscape:persp3d" inkscape:vp_z="744.09448 : 526.18109 : 1" id="perspective2471" inkscape:persp3d-origin="372.04724 : 350.78739 : 1">
		</inkscape:perspective>
	
		<inkscape:perspective  inkscape:vp_y="0 : 1000 : 0" inkscape:vp_x="0 : 526.18109 : 1" sodipodi:type="inkscape:persp3d" inkscape:vp_z="744.09448 : 526.18109 : 1" id="perspective2506" inkscape:persp3d-origin="372.04724 : 350.78739 : 1">
		</inkscape:perspective>
	
		<inkscape:perspective  inkscape:vp_y="0 : 1000 : 0" inkscape:vp_x="0 : 526.18109 : 1" sodipodi:type="inkscape:persp3d" inkscape:vp_z="744.09448 : 526.18109 : 1" id="perspective2541" inkscape:persp3d-origin="372.04724 : 350.78739 : 1">
		</inkscape:perspective>
	
		<inkscape:perspective  inkscape:vp_y="0 : 1000 : 0" inkscape:vp_x="0 : 526.18109 : 1" sodipodi:type="inkscape:persp3d" inkscape:vp_z="744.09448 : 526.18109 : 1" id="perspective2576" inkscape:persp3d-origin="372.04724 : 350.78739 : 1">
		</inkscape:perspective>
</defs>
<sodipodi:namedview  inkscape:current-layer="layer1" inkscape:window-y="78" inkscape:pageopacity="0.0" inkscape:pageshadow="2" inkscape:window-width="640" inkscape:window-height="688" inkscape:window-x="585" inkscape:cy="32" inkscape:cx="32" inkscape:zoom="5.5" showgrid="true" id="base" pagecolor="#ffffff" bordercolor="#666666" borderopacity="1.0" inkscape:grid-bbox="true" inkscape:document-units="px">
	</sodipodi:namedview>
<g id="layer1" inkscape:groupmode="layer" inkscape:label="Layer 1">
	<path id="path2582" d="M33,59.996c-1.1-0.222-3.875-1.082-6.168-1.91c-4.09-1.479-5.456-2.941-14.849-15.904
		c-1.594-2.199-4.268-5.303-5.94-6.896L3,32.388l3,1.558c1.65,0.856,7.114,5.137,12.142,9.511c9.665,8.408,12.6,9.844,16.836,8.232
		c4.965-1.887,6.756-11.164,2.422-12.539c-2.711-0.861-3.9,0.233-3.9,3.59c0,3.092-1.136,3.548-5.75,2.312
		c-1.904-0.511-2.25-1.284-2.25-5.034c0-11.002,13.916-12.639,20.73-2.438C52.822,47.448,44.096,62.234,33,59.996z M11.802,26.67
		C9.213,25.627,6.5,20.822,6.5,17.278c0-3.947,1.796-6.869,6.122-9.958c3.992-2.851,4.023-2.855,8.292-1.225
		c7.644,2.919,10.831,8.672,8.239,14.873c-0.759,1.817-2.551,4.071-3.982,5.009C22.394,27.798,15.491,28.155,11.802,26.67z
		 M21.277,20.125c4.071-2.852,2.221-7.443-2.999-7.443c-2.073,0-3.138,0.695-4.014,2.618c-1.053,2.31-0.92,2.838,1.132,4.5
		C18.211,22.079,18.468,22.093,21.277,20.125z M43.5,26.409c-1.375-0.684-3.281-2.837-4.237-4.786
		C36.449,15.885,39.166,9.457,45.87,5.99c2.577-1.333,3.337-1.311,7.337,0.218c6.908,2.638,10.42,10.631,7.264,16.529
		C58.123,27.123,48.935,29.111,43.5,26.409z M54.111,18.097c0.941-3.754-1.676-6.13-5.336-4.843
		c-5.172,1.819-4.285,7.428,1.174,7.428C52.893,20.682,53.566,20.263,54.111,18.097z"/>
</g>
</svg>
