<?xml version="1.0" encoding="utf-8"?>
<!-- Generator: Adobe Illustrator 16.0.3, SVG Export Plug-In . SVG Version: 6.00 Build 0)  -->
<!DOCTYPE svg PUBLIC "-//W3C//DTD SVG 1.1//EN" "http://www.w3.org/Graphics/SVG/1.1/DTD/svg11.dtd">
<svg version="1.1"
	 id="svg2396" sodipodi:docname="siddham_ii.svg" inkscape:version="0.46" xmlns:dc="http://purl.org/dc/elements/1.1/" xmlns:cc="http://creativecommons.org/ns#" xmlns:rdf="http://www.w3.org/1999/02/22-rdf-syntax-ns#" xmlns:svg="http://www.w3.org/2000/svg" xmlns:sodipodi="http://sodipodi.sourceforge.net/DTD/sodipodi-0.dtd" xmlns:inkscape="http://www.inkscape.org/namespaces/inkscape" sodipodi:version="0.32" inkscape:output_extension="org.inkscape.output.svg.inkscape"
	 xmlns="http://www.w3.org/2000/svg" xmlns:xlink="http://www.w3.org/1999/xlink" x="0px" y="0px" width="64px" height="64px"
	 viewBox="0 0 64 64" enable-background="new 0 0 64 64" xml:space="preserve">
<defs>
	
	
		<inkscape:perspective  inkscape:vp_y="0 : 1000 : 0" inkscape:vp_x="0 : 32 : 1" sodipodi:type="inkscape:persp3d" inkscape:vp_z="64 : 32 : 1" id="perspective2404" inkscape:persp3d-origin="32 : 21.333333 : 1">
		</inkscape:perspective>
	
		<inkscape:perspective  inkscape:vp_y="0 : 1000 : 0" inkscape:vp_x="0 : 526.18109 : 1" sodipodi:type="inkscape:persp3d" inkscape:vp_z="744.09448 : 526.18109 : 1" id="perspective2436" inkscape:persp3d-origin="372.04724 : 350.78739 : 1">
		</inkscape:perspective>
	
		<inkscape:perspective  inkscape:vp_y="0 : 1000 : 0" inkscape:vp_x="0 : 526.18109 : 1" sodipodi:type="inkscape:persp3d" inkscape:vp_z="744.09448 : 526.18109 : 1" id="perspective2471" inkscape:persp3d-origin="372.04724 : 350.78739 : 1">
		</inkscape:perspective>
	
		<inkscape:perspective  inkscape:vp_y="0 : 1000 : 0" inkscape:vp_x="0 : 526.18109 : 1" sodipodi:type="inkscape:persp3d" inkscape:vp_z="744.09448 : 526.18109 : 1" id="perspective2506" inkscape:persp3d-origin="372.04724 : 350.78739 : 1">
		</inkscape:perspective>
	
		<inkscape:perspective  inkscape:vp_y="0 : 1000 : 0" inkscape:vp_x="0 : 526.18109 : 1" sodipodi:type="inkscape:persp3d" inkscape:vp_z="744.09448 : 526.18109 : 1" id="perspective2541" inkscape:persp3d-origin="372.04724 : 350.78739 : 1">
		</inkscape:perspective>
	
		<inkscape:perspective  inkscape:vp_y="0 : 1000 : 0" inkscape:vp_x="0 : 526.18109 : 1" sodipodi:type="inkscape:persp3d" inkscape:vp_z="744.09448 : 526.18109 : 1" id="perspective2576" inkscape:persp3d-origin="372.04724 : 350.78739 : 1">
		</inkscape:perspective>
	
		<inkscape:perspective  inkscape:vp_y="0 : 1000 : 0" inkscape:vp_x="0 : 526.18109 : 1" sodipodi:type="inkscape:persp3d" inkscape:vp_z="744.09448 : 526.18109 : 1" id="perspective2611" inkscape:persp3d-origin="372.04724 : 350.78739 : 1">
		</inkscape:perspective>
</defs>
<sodipodi:namedview  inkscape:current-layer="layer1" inkscape:window-y="78" inkscape:pageopacity="0.0" inkscape:pageshadow="2" inkscape:window-width="640" inkscape:window-height="688" inkscape:window-x="585" inkscape:cy="32" inkscape:cx="32" inkscape:zoom="5.5" showgrid="true" id="base" pagecolor="#ffffff" bordercolor="#666666" borderopacity="1.0" inkscape:grid-bbox="true" inkscape:document-units="px">
	</sodipodi:namedview>
<g id="layer1" inkscape:groupmode="layer" inkscape:label="Layer 1">
	<path id="path2617" d="M44.02,58.767c-5.23-5.389-7.418-10.273-7.918-17.681c-0.297-4.394-0.867-6.358-1.973-6.782
		c-2.459-0.944-3.728,1.198-3.622,6.114l0.098,4.544l-3.048-0.609c-4.124-0.825-4.803-2.153-4.346-8.499
		c0.316-4.38,0.911-5.867,3.1-7.75c3.301-2.84,7.047-2.964,11.294-0.375c5.66,3.452,6.803,6.318,6.807,17.08
		c0.004,8.827,0.231,9.965,2.765,13.793C50.678,63.891,49.074,63.975,44.02,58.767z M12.361,23.367
		c-3.885-1.692-6.452-5.606-6.452-9.837c0-4.074,1.905-6.918,6.565-9.798c3.515-2.172,3.625-2.178,7.573-0.397
		c5.373,2.423,7.862,5.791,7.862,10.638c0,4.972-1.292,7.382-4.98,9.289C19.384,25.096,16.398,25.125,12.361,23.367z M20.909,15.772
		c1.199-2.24,0.02-5.395-2.357-6.307c-3.316-1.272-7.486,5.13-4.976,7.64C15.065,18.596,19.865,17.723,20.909,15.772z
		 M42.734,23.636c-3.772-1.381-6.934-8-5.766-12.072c1.063-3.705,3.461-6.492,7.291-8.472c3.541-1.832,7.494-0.481,11.085,3.787
		c4.845,5.757,4.156,12.344-1.661,15.89C50.146,24.925,46.949,25.179,42.734,23.636z M51.709,14.579
		c0.385-3.161-2.043-5.213-5.221-4.416c-3.513,0.881-4.406,4.521-1.658,6.747C47.685,19.221,51.295,17.998,51.709,14.579z"/>
</g>
</svg>
