<?xml version="1.0" encoding="utf-8"?>
<!-- Generator: Adobe Illustrator 16.0.3, SVG Export Plug-In . SVG Version: 6.00 Build 0)  -->
<!DOCTYPE svg PUBLIC "-//W3C//DTD SVG 1.1//EN" "http://www.w3.org/Graphics/SVG/1.1/DTD/svg11.dtd">
<svg version="1.1"
	 id="svg2383" sodipodi:docname="siddham_ii1.svg" inkscape:version="0.46" xmlns:dc="http://purl.org/dc/elements/1.1/" xmlns:cc="http://creativecommons.org/ns#" xmlns:rdf="http://www.w3.org/1999/02/22-rdf-syntax-ns#" xmlns:svg="http://www.w3.org/2000/svg" xmlns:sodipodi="http://sodipodi.sourceforge.net/DTD/sodipodi-0.dtd" xmlns:inkscape="http://www.inkscape.org/namespaces/inkscape" sodipodi:version="0.32" inkscape:output_extension="org.inkscape.output.svg.inkscape"
	 xmlns="http://www.w3.org/2000/svg" xmlns:xlink="http://www.w3.org/1999/xlink" x="0px" y="0px" width="64px" height="64px"
	 viewBox="0 0 64 64" enable-background="new 0 0 64 64" xml:space="preserve">
<defs>
	
	
		<inkscape:perspective  inkscape:vp_y="0 : 1000 : 0" inkscape:vp_x="0 : 32 : 1" sodipodi:type="inkscape:persp3d" inkscape:vp_z="64 : 32 : 1" id="perspective2391" inkscape:persp3d-origin="32 : 21.333333 : 1">
		</inkscape:perspective>
	
		<inkscape:perspective  inkscape:vp_y="0 : 1000 : 0" inkscape:vp_x="0 : 526.18109 : 1" sodipodi:type="inkscape:persp3d" inkscape:vp_z="744.09448 : 526.18109 : 1" id="perspective2400" inkscape:persp3d-origin="372.04724 : 350.78739 : 1">
		</inkscape:perspective>
	
		<inkscape:perspective  inkscape:vp_y="0 : 1000 : 0" inkscape:vp_x="0 : 526.18109 : 1" sodipodi:type="inkscape:persp3d" inkscape:vp_z="744.09448 : 526.18109 : 1" id="perspective2453" inkscape:persp3d-origin="372.04724 : 350.78739 : 1">
		</inkscape:perspective>
	
		<inkscape:perspective  inkscape:vp_y="0 : 1000 : 0" inkscape:vp_x="0 : 526.18109 : 1" sodipodi:type="inkscape:persp3d" inkscape:vp_z="744.09448 : 526.18109 : 1" id="perspective2488" inkscape:persp3d-origin="372.04724 : 350.78739 : 1">
		</inkscape:perspective>
</defs>
<sodipodi:namedview  inkscape:current-layer="layer1" inkscape:window-y="168" inkscape:pageopacity="0.0" inkscape:pageshadow="2" inkscape:window-width="640" inkscape:window-height="688" inkscape:window-x="168" inkscape:cy="33.534884" inkscape:cx="32" inkscape:zoom="5.5" showgrid="true" id="base" pagecolor="#ffffff" bordercolor="#666666" borderopacity="1.0" inkscape:grid-bbox="true" inkscape:document-units="px">
	</sodipodi:namedview>
<g id="layer1" inkscape:groupmode="layer" inkscape:label="Layer 1">
	<path id="path2494" d="M39.363,61.735c-4.881-2.151-16.082-15.45-19.375-23.003c-0.225-0.517,1.596-0.632,4.241-0.27l4.635,0.635
		V26.409V13.721l-3.555-3.641l-3.556-3.641l2.306-1.508c1.268-0.83,4.78-1.775,7.805-2.101s6.636-0.873,8.025-1.216
		c1.875-0.464,3.223,0.023,5.24,1.893c3.48,3.226,2.676,5.241-2.364,5.917c-7.161,0.96-7.242,1.195-6.32,18.184
		c0.448,8.267,0.704,17.415,0.567,20.33c-0.228,4.86,0.038,5.586,3.201,8.75c1.898,1.897,4.396,3.45,5.551,3.45
		c2.466,0,2.795,1.52,0.518,2.393C44.046,63.388,42.781,63.242,39.363,61.735z M12.389,29.404c-2.385-0.604-4.45-3.133-4.493-5.501
		c-0.018-0.954,1.293-3.204,2.914-5l2.945-3.266l3.721,2c4.589,2.467,5.872,4.438,5.042,7.746c-0.559,2.226-5.221,5.089-7.553,4.639
		C14.634,29.957,13.475,29.679,12.389,29.404z M17.759,25.222c1.865-1.181,0.65-4.086-1.709-4.086c-2.109,0-5.553,3.299-4.521,4.332
		C12.474,26.413,16.104,26.27,17.759,25.222z M44.352,27.715c-2.872-2.872-2.73-4.942,0.668-9.768
		c1.734-2.462,2.166-2.598,5.119-1.605c4.73,1.59,5.725,2.678,5.725,6.262c0,3.604-2.139,6.037-6.199,7.05
		C47.545,30.183,46.402,29.766,44.352,27.715z M51.827,24.68c1.604-1.932,0.483-3.544-2.464-3.544c-2.701,0-3.94,1.409-3.119,3.548
		C46.963,26.558,50.271,26.556,51.827,24.68z"/>
</g>
</svg>
