<?xml version="1.0" encoding="utf-8"?>
<!-- Generator: Adobe Illustrator 16.0.3, SVG Export Plug-In . SVG Version: 6.00 Build 0)  -->
<!DOCTYPE svg PUBLIC "-//W3C//DTD SVG 1.1//EN" "http://www.w3.org/Graphics/SVG/1.1/DTD/svg11.dtd">
<svg version="1.1"
	 id="svg2383" sodipodi:docname="siddham_i1.svg" inkscape:version="0.46" xmlns:dc="http://purl.org/dc/elements/1.1/" xmlns:cc="http://creativecommons.org/ns#" xmlns:rdf="http://www.w3.org/1999/02/22-rdf-syntax-ns#" xmlns:svg="http://www.w3.org/2000/svg" xmlns:sodipodi="http://sodipodi.sourceforge.net/DTD/sodipodi-0.dtd" xmlns:inkscape="http://www.inkscape.org/namespaces/inkscape" sodipodi:version="0.32" inkscape:output_extension="org.inkscape.output.svg.inkscape"
	 xmlns="http://www.w3.org/2000/svg" xmlns:xlink="http://www.w3.org/1999/xlink" x="0px" y="0px" width="64px" height="64px"
	 viewBox="0 0 64 64" enable-background="new 0 0 64 64" xml:space="preserve">
<defs>
	
	
		<inkscape:perspective  inkscape:vp_y="0 : 1000 : 0" inkscape:vp_x="0 : 32 : 1" sodipodi:type="inkscape:persp3d" inkscape:vp_z="64 : 32 : 1" id="perspective2391" inkscape:persp3d-origin="32 : 21.333333 : 1">
		</inkscape:perspective>
	
		<inkscape:perspective  inkscape:vp_y="0 : 1000 : 0" inkscape:vp_x="0 : 526.18109 : 1" sodipodi:type="inkscape:persp3d" inkscape:vp_z="744.09448 : 526.18109 : 1" id="perspective2400" inkscape:persp3d-origin="372.04724 : 350.78739 : 1">
		</inkscape:perspective>
	
		<inkscape:perspective  inkscape:vp_y="0 : 1000 : 0" inkscape:vp_x="0 : 526.18109 : 1" sodipodi:type="inkscape:persp3d" inkscape:vp_z="744.09448 : 526.18109 : 1" id="perspective2435" inkscape:persp3d-origin="372.04724 : 350.78739 : 1">
		</inkscape:perspective>
</defs>
<sodipodi:namedview  inkscape:current-layer="layer1" inkscape:window-y="56" inkscape:pageopacity="0.0" inkscape:pageshadow="2" inkscape:window-width="640" inkscape:window-height="688" inkscape:window-x="56" inkscape:cy="32" inkscape:cx="32" inkscape:zoom="5.5" showgrid="true" id="base" pagecolor="#ffffff" bordercolor="#666666" borderopacity="1.0" inkscape:grid-bbox="true" inkscape:document-units="px">
	</sodipodi:namedview>
<g id="layer1" inkscape:groupmode="layer" inkscape:label="Layer 1">
	<path id="path2441" d="M23.323,61.605c-5.474-1.352-7.553-3.512-7.535-7.828c0.019-4.506,0.259-4.838,7.122-9.863l5.638-4.129
		l6.026,3.034c6.602,3.324,8.572,6.26,8.021,11.945c-0.24,2.476-1.107,3.776-3.409,5.115C35.313,62.133,28.47,62.877,23.323,61.605z
		 M34.226,56.521c3.003-1.368,3.253-3.747,0.722-6.873c-2.46-3.038-7.729-2.088-11.75,2.12c-2.845,2.978-2.872,3.101-0.984,4.487
		C24.559,57.979,30.729,58.115,34.226,56.521z M8.055,26.355c-4.226-1.541-6.113-3.537-6.799-7.187
		c-0.86-4.576,2.347-8.732,9.785-12.681l6.432-3.416l4.259,4.18c9.326,9.152,5.165,20.662-7.358,20.354
		C12.668,27.564,9.825,27.001,8.055,26.355z M16.283,21.682c4.09,0,6.359-8.968,2.74-10.83c-2.351-1.209-4.134-0.507-8,3.149
		c-3.856,3.646-4.319,7.338-1,7.971c1.237,0.236,2.849,0.268,3.582,0.07S15.542,21.682,16.283,21.682z M45.081,25.672
		c-3.458-1.393-5.595-5.409-4.801-9.024c0.731-3.333,5.948-9.962,7.847-9.973c0.63-0.003,2.299-0.607,3.707-1.343
		c2.393-1.249,2.81-1.092,6.359,2.396c3.002,2.948,3.908,4.695,4.317,8.322c0.473,4.194,0.238,4.851-2.716,7.611
		c-2.67,2.495-4.043,3.01-7.878,2.957C49.363,26.583,46.287,26.158,45.081,25.672z M55.188,20.775
		c2.469-2.728,1.804-8.491-1.027-8.895c-4.701-0.671-11.167,8.513-7.137,10.139C49.811,23.144,53.562,22.572,55.188,20.775z"/>
</g>
</svg>
