<?xml version="1.0" encoding="utf-8"?>
<!-- Generator: Adobe Illustrator 16.0.3, SVG Export Plug-In . SVG Version: 6.00 Build 0)  -->
<!DOCTYPE svg PUBLIC "-//W3C//DTD SVG 1.1//EN" "http://www.w3.org/Graphics/SVG/1.1/DTD/svg11.dtd">
<svg version="1.1"
	 id="svg2985" sodipodi:docname="唳隞2" inkscape:version="0.48.2 r9819" xmlns:dc="http://purl.org/dc/elements/1.1/" xmlns:cc="http://creativecommons.org/ns#" xmlns:rdf="http://www.w3.org/1999/02/22-rdf-syntax-ns#" xmlns:svg="http://www.w3.org/2000/svg" xmlns:sodipodi="http://sodipodi.sourceforge.net/DTD/sodipodi-0.dtd" xmlns:inkscape="http://www.inkscape.org/namespaces/inkscape"
	 xmlns="http://www.w3.org/2000/svg" xmlns:xlink="http://www.w3.org/1999/xlink" x="0px" y="0px" width="1000px" height="1000px"
	 viewBox="0 0 1000 1000" enable-background="new 0 0 1000 1000" xml:space="preserve">
<sodipodi:namedview  inkscape:window-maximized="1" inkscape:current-layer="layer1" inkscape:window-y="-8" inkscape:guide-bbox="true" inkscape:pageopacity="0.0" inkscape:pageshadow="2" inkscape:window-width="1280" inkscape:window-height="974" inkscape:window-x="1272" inkscape:cy="500" inkscape:cx="500" inkscape:zoom="0.454" showguides="true" showgrid="false" id="base" pagecolor="#ffffff" bordercolor="#666666" borderopacity="1.0">
	<sodipodi:guide  position="200" orientation="horizontal" id="guide5596"></sodipodi:guide>
</sodipodi:namedview>
<g id="layer1" inkscape:groupmode="layer" inkscape:label="Layer 1">
	<g id="text2992" transform="scale(0.98206824,1.0182592)">
		
			<path id="path2997" sodipodi:nodetypes="cccccccccccccccccccccsccccccccccccccccccccccccccccccccccccsccccsccccccccccccccccc" inkscape:connector-curvature="0" d="
			M88.9,17.688c43.354,18.479,77.824,37.314,103.41,56.503c22.744,14.926,39.446,29.851,50.107,44.776
			c8.529,9.951,12.793,20.256,12.793,30.916c0,22.744-8.529,34.115-25.586,34.115c-6.397,0-12.438-1.421-18.124-4.264
			c-5.686-2.842-11.727-10.305-18.123-22.388c-14.215-27.007-29.496-49.04-45.843-66.098
			c-17.768-18.478-41.578-36.957-71.427-55.437L88.9,17.688z M221.095,483.569l8.529,15.991
			c-21.322,61.123-44.776,125.089-70.362,191.897c-26.297,71.073-54.015,139.303-83.155,204.689
			c-4.264,34.115-8.884,51.172-13.859,51.173c-4.975-0.001-25.942-25.942-62.899-77.825
			c37.669-46.198,77.824-108.385,120.469-186.566C162.459,607.591,196.219,541.139,221.095,483.569L221.095,483.569z
			 M369.281,163.742l63.965,46.908h170.574v-30.916c0-72.493-2.843-132.194-8.529-179.103c34.826,4.976,64.32,11.728,88.486,20.256
			c9.239,1.422,13.858,6.397,13.859,14.925c-0.001,4.976-4.62,9.951-13.859,14.926c-9.24,5.686-18.835,10.661-28.785,14.925V210.65
			h163.112l34.115-46.908c25.585,14.926,44.064,29.851,55.436,44.776c4.974,5.686,7.462,10.662,7.463,14.925
			c-0.001,6.397-14.216,17.769-42.644,34.115v293.175h8.529l51.172-58.635c27.007,19.901,52.594,39.446,76.759,58.635
			c5.685,3.553,8.527,7.818,8.529,12.793c0,12.083-5.332,18.124-15.992,18.123h-381.66c-10.662,36.247-23.1,69.652-37.314,100.213
			c-20.612,49.04-48.685,91.328-84.221,126.864c-45.487,46.198-89.552,82.445-132.195,108.742
			c-51.883,29.849-107.675,52.593-167.376,68.23l-12.793-18.124c87.419-32.693,152.806-67.519,196.16-104.477
			c41.222-31.982,77.113-70.006,107.676-114.071c26.296-36.957,49.04-82.8,68.229-137.525c3.553-9.95,6.396-19.9,8.529-29.851
			H382.074c-49.75,0.712-83.865,2.133-102.344,4.265l-20.256-46.908c29.85,7.818,69.295,11.727,118.336,11.727V235.17
			C377.809,207.452,374.966,183.643,369.281,163.742L369.281,163.742z M424.718,550.733h150.319
			c7.107-30.561,13.148-63.61,18.124-99.147c7.107-58.279,10.661-120.113,10.661-185.5v-26.653H424.718V550.733z M654.994,239.434
			v26.653c-0.001,104.477-6.397,186.566-19.19,246.267c-2.133,14.215-4.62,27.008-7.462,38.379h197.226V239.434H654.994z
			 M681.646,682.928c51.172,27.719,95.947,56.148,134.327,85.287c39.09,26.297,70.006,48.329,92.75,66.098
			c22.032,18.479,38.379,33.76,49.041,45.842c7.817,12.793,13.858,24.52,18.123,35.181c5.685,9.95,8.528,20.611,8.529,31.982
			c-0.711,19.9-8.174,29.85-22.388,29.851c-7.819-0.001-15.282-2.488-22.388-7.463c-7.819-5.685-24.877-27.719-51.173-66.098
			c-25.587-37.668-54.371-71.072-86.353-100.212c-33.405-31.982-77.825-67.874-133.262-107.675L681.646,682.928z"/>
	</g>
</g>
</svg>
