<?xml version="1.0" encoding="utf-8"?>
<!-- Generator: Adobe Illustrator 16.0.3, SVG Export Plug-In . SVG Version: 6.00 Build 0)  -->
<!DOCTYPE svg PUBLIC "-//W3C//DTD SVG 1.1//EN" "http://www.w3.org/Graphics/SVG/1.1/DTD/svg11.dtd">
<svg version="1.1"
	 id="svg2985" sodipodi:docname="X1239.svg" inkscape:version="0.48.2 r9819" xmlns:dc="http://purl.org/dc/elements/1.1/" xmlns:cc="http://creativecommons.org/ns#" xmlns:rdf="http://www.w3.org/1999/02/22-rdf-syntax-ns#" xmlns:svg="http://www.w3.org/2000/svg" xmlns:sodipodi="http://sodipodi.sourceforge.net/DTD/sodipodi-0.dtd" xmlns:inkscape="http://www.inkscape.org/namespaces/inkscape"
	 xmlns="http://www.w3.org/2000/svg" xmlns:xlink="http://www.w3.org/1999/xlink" x="0px" y="0px" width="1000px" height="1000px"
	 viewBox="0 0 1000 1000" enable-background="new 0 0 1000 1000" xml:space="preserve">
<sodipodi:namedview  inkscape:window-maximized="1" inkscape:current-layer="layer1" inkscape:window-y="-8" inkscape:guide-bbox="true" inkscape:pageopacity="0.0" inkscape:pageshadow="2" inkscape:window-width="1280" inkscape:window-height="974" inkscape:window-x="1272" inkscape:cy="500" inkscape:cx="870.36379" inkscape:zoom="0.454" showguides="true" showgrid="false" id="base" pagecolor="#ffffff" bordercolor="#666666" borderopacity="1.0">
	<sodipodi:guide  position="200" orientation="horizontal" id="guide5596"></sodipodi:guide>
</sodipodi:namedview>
<g id="layer1" inkscape:groupmode="layer" inkscape:label="Layer 1">
	<g id="text3001" transform="scale(0.98423192,1.0160207)">
		
			<path id="path3006" sodipodi:nodetypes="cccccccccccccccccccccsccccccccccccccccccccccccccccccccccccsccccsccccccccccccccccc" inkscape:connector-curvature="0" d="
			M88.705,17.651c43.258,18.439,77.653,37.232,103.184,56.379c22.693,14.893,39.358,29.786,49.995,44.678
			c8.51,9.929,12.765,20.212,12.765,30.849c0,22.694-8.51,34.041-25.53,34.04c-6.383,0.001-12.411-1.418-18.084-4.255
			c-5.673-2.836-11.701-10.283-18.083-22.339c-14.184-26.948-29.431-48.931-45.742-65.952
			c-17.729-18.438-41.486-36.876-71.27-55.315L88.705,17.651z M220.609,482.509l8.51,15.956
			c-21.275,60.988-44.677,124.813-70.208,191.474c-26.239,70.916-53.897,138.996-82.971,204.239
			c-4.256,34.041-8.865,51.06-13.829,51.06c-4.964,0-25.885-25.884-62.761-77.653c37.586-46.095,77.653-108.147,120.204-186.155
			C162.102,606.258,195.788,539.951,220.609,482.509z M368.469,163.385l63.825,46.805h170.199v-30.849
			c0-72.334-2.837-131.904-8.51-178.71c34.749,4.965,64.179,11.702,88.292,20.211c9.219,1.419,13.827,6.383,13.828,14.892
			c-0.001,4.965-4.61,9.929-13.828,14.892c-9.221,5.674-18.793,10.639-28.721,14.893v144.67h162.754l34.04-46.805
			c25.529,14.893,43.967,29.786,55.315,44.677c4.963,5.674,7.445,10.638,7.447,14.892c-0.001,6.383-14.185,17.73-42.55,34.04
			v292.531h8.51l51.059-58.506c26.947,19.857,52.478,39.359,76.59,58.506c5.671,3.546,8.508,7.801,8.509,12.764
			c0,12.056-5.319,18.084-15.956,18.084H618.45c-10.638,36.168-23.049,69.498-37.232,99.992
			c-20.566,48.933-48.578,91.128-84.036,126.586c-45.387,46.095-89.355,82.262-131.904,108.502
			c-51.769,29.785-107.438,52.478-167.008,68.079l-12.765-18.083c87.227-32.622,152.47-67.371,195.729-104.247
			c41.131-31.913,76.944-69.853,107.439-113.821c26.238-36.877,48.932-82.618,68.079-137.223c3.545-9.928,6.382-19.857,8.51-29.785
			H381.234c-49.641,0.709-83.681,2.127-102.119,4.255l-20.211-46.806c29.784,7.802,69.143,11.702,118.076,11.702v-314.87
			C376.98,206.999,374.143,183.242,368.469,163.385L368.469,163.385z M423.784,549.525h149.988
			c7.091-30.494,13.119-63.47,18.084-98.929c7.091-58.151,10.637-119.848,10.637-185.092v-26.594H423.784V549.525z M653.554,238.911
			v26.594c-0.001,104.248-6.383,186.156-19.148,245.725c-2.128,14.184-4.61,26.949-7.445,38.296h196.792V238.911H653.554z
			 M680.148,681.43c51.059,27.657,95.736,56.024,134.031,85.099c39.004,26.239,69.852,48.224,92.546,65.952
			c21.983,18.438,38.294,33.685,48.933,45.741c7.8,12.765,13.827,24.466,18.083,35.104c5.672,9.929,8.509,20.566,8.51,31.913
			c-0.709,19.857-8.156,29.785-22.339,29.786c-7.802,0-15.248-2.483-22.339-7.447c-7.802-5.673-24.822-27.658-51.06-65.952
			c-25.53-37.585-54.252-70.916-86.163-99.992c-33.331-31.913-77.654-67.726-132.969-107.438L680.148,681.43z"/>
	</g>
</g>
</svg>
