<?xml version="1.0" encoding="UTF-8" standalone="no"?>
<!-- Generator: Adobe Illustrator 16.0.3, SVG Export Plug-In . SVG Version: 6.00 Build 0)  -->

<svg
   xmlns:dc="http://purl.org/dc/elements/1.1/"
   xmlns:cc="http://creativecommons.org/ns#"
   xmlns:rdf="http://www.w3.org/1999/02/22-rdf-syntax-ns#"
   xmlns:svg="http://www.w3.org/2000/svg"
   xmlns="http://www.w3.org/2000/svg"
   xmlns:sodipodi="http://sodipodi.sourceforge.net/DTD/sodipodi-0.dtd"
   xmlns:inkscape="http://www.inkscape.org/namespaces/inkscape"
   version="1.1"
   id="svg2985"
   sodipodi:docname="Z0998.svg"
   inkscape:version="0.48.5 r10040"
   x="0px"
   y="0px"
   width="1000px"
   height="1000px"
   viewBox="0 0 1000 1000"
   enable-background="new 0 0 1000 1000"
   xml:space="preserve"><metadata
   id="metadata15"><rdf:RDF><cc:Work
       rdf:about=""><dc:format>image/svg+xml</dc:format><dc:type
         rdf:resource="http://purl.org/dc/dcmitype/StillImage" /></cc:Work></rdf:RDF></metadata><defs
   id="defs13">
		
			
	
		
			
	</defs>
<sodipodi:namedview
   inkscape:window-maximized="1"
   inkscape:current-layer="layer1"
   inkscape:window-y="-8"
   inkscape:guide-bbox="true"
   inkscape:pageopacity="0.0"
   inkscape:pageshadow="2"
   inkscape:window-width="1366"
   inkscape:window-height="716"
   inkscape:window-x="-8"
   inkscape:cy="585.05849"
   inkscape:cx="345.59192"
   inkscape:zoom="0.454"
   showguides="true"
   showgrid="false"
   id="base"
   pagecolor="#ffffff"
   bordercolor="#666666"
   borderopacity="1.0">
	<sodipodi:guide
   position="200"
   orientation="horizontal"
   id="guide5596" />
</sodipodi:namedview>
<g
   id="layer1"
   inkscape:groupmode="layer"
   inkscape:label="Layer 1">
	<path
   d="m 289.46875,-0.75660791 c 6.23863,21.49641991 9.373,46.21530991 9.375,74.15882091 l 0,740.928317 c 0,53.02132 -2.0896,87.78264 -6.25,104.26228 -2.0802,20.77872 -3.125,37.24614 -3.125,49.42874 0,10.74515 3.8101,18.99967 11.4375,24.73008 9.01026,3.5824 16.29753,5.37337 21.84375,5.37337 14.55746,0 21.84375,-3.93367 21.84375,-11.81513 l 0,-908.602675 141.40625,0 c -20.79709,85.980585 -49.909,190.584865 -87.34375,313.823785 31.19711,35.10933 53.7287,66.63939 67.59375,94.58392 15.25186,29.37586 26.00841,59.11801 32.25,89.21055 7.62642,27.94453 11.43651,56.94981 11.4375,87.04235 -9.9e-4,27.22581 -3.81108,48.36581 -11.4375,63.41207 -4.85479,12.18158 -12.50918,22.22198 -22.90625,30.10346 -11.09046,6.45117 -27.01443,9.67936 -47.8125,9.67835 -15.25284,0.001 -32.25186,-4.31679 -50.96875,-12.91495 l -4.15625,21.49349 c 27.03769,5.73449 46.46613,13.63119 58.25,23.66169 3.46601,2.15005 6.57015,5.73201 9.34375,10.74675 l 7.28125,23.66169 c 31.8915,-7.88046 54.4221,-17.21745 67.59375,-27.96667 14.5555,-12.17852 24.9469,-27.56553 31.1875,-46.19215 9.70268,-20.77872 14.56151,-48.37615 14.5625,-82.76879 -9.9e-4,-34.39162 -5.53454,-66.27441 -16.625,-95.65231 -10.39706,-35.82397 -24.97062,-67.35607 -43.6875,-94.58392 -18.71787,-30.09254 -46.1083,-61.26988 -82.15625,-93.51553 39.51397,-93.14537 75.91217,-189.49818 109.1875,-289.0937 13.86407,-4.299083 26.34605,-9.67099 37.4375,-16.12012 10.40002,-5.014744 15.59375,-9.331532 15.59375,-12.914947 0,-5.731427 -2.42843,-11.807767 -7.28125,-18.256896 C 558.78333,42.249097 539.3881,26.483043 515.125,7.8533569 l -33.28125,38.6819951 -128.9375,0 -63.4375,-47.29195991 z M 710.3125,1.7572504 693.6875,14.515081 c 13.15413,21.296298 23.54029,40.469503 31.15625,57.50451 8.30824,17.037038 15.58009,35.492869 21.8125,55.367729 6.92271,19.16616 11.76217,39.05673 14.53125,59.64129 2.76809,17.03603 5.54441,26.95039 8.3125,29.78922 0.69425,1.42043 1.74046,2.49546 3.125,3.20517 l -136.28125,0 c -50.54764,0.001 -90.69518,-4.23931 -120.46875,-12.75783 l 21.8125,46.82061 c 17.30973,-2.83883 50.18741,-4.5998 98.65625,-5.31053 l 33.1875,0 c -9.9e-4,93.70068 -2.06512,166.08828 -6.21875,217.19736 -4.8449,62.46542 -11.77976,115.35562 -20.78125,158.65589 -9.69476,50.40141 -23.19126,97.25583 -40.5,140.5561 C 584.7225,807.77415 565.33836,844.32816 543.875,874.85167 521.7164,910.34313 491.0843,941.83034 444,977.32282 l 13.5,20.20514 c 33.23691,-19.87587 58.66229,-39.98459 84.28125,-68.37695 27.69577,-27.68366 51.94667,-59.60826 72.71875,-95.80942 17.30973,-31.94293 33.57958,-69.57095 48.8125,-112.87224 14.54066,-41.17013 25.97401,-87.31024 34.28125,-138.41933 6.92271,-31.94191 12.43715,-72.04929 16.59375,-120.31954 l 163.71875,0 c -4.1556,94.40935 -10.04128,169.63501 -17.65625,225.71305 -6.92469,58.91384 -15.2105,103.65673 -24.90625,134.17719 -9.69179,29.81583 -18.69474,50.74797 -27,62.81504 -6.92667,12.0701 -14.19653,19.17583 -21.8125,21.30495 -9.69179,4.25824 -20.78815,6.37891 -33.25,6.37891 -20.0808,0 -61.27851,-9.94579 -123.59375,-29.82064 l -4.15625,22.37334 c 67.16213,24.84381 104.20131,41.86593 111.125,51.09417 5.54015,7.80779 8.3125,19.1873 8.3125,34.0942 10.38306,0 23.20458,-4.63044 38.4375,-13.85764 17.30973,-9.93692 33.57759,-22.71973 48.8125,-38.33634 14.53768,-13.48546 27.69619,-34.77933 39.46875,-63.88343 11.76959,-30.52249 23.87991,-80.218 36.34375,-149.0718 10.38703,-66.01801 18.36511,-146.22973 23.90625,-240.63909 27.69676,-13.48646 41.53026,-24.83455 41.53125,-34.06278 -9.9e-4,-3.54651 -2.77433,-8.14653 -8.3125,-13.82622 -13.15611,-13.48646 -32.20029,-27.34432 -57.125,-41.54151 L 866.5,431.90983 l -150.21875,0 0,-7.4473 c 4.15362,-50.39735 6.55674,-108.96158 7.25,-175.68728 l 263.03125,0 c 8.30725,0 12.4375,-5.67303 12.4375,-17.03139 -9.9e-4,-4.25926 -2.74309,-8.17131 -8.28125,-11.72086 -22.15563,-18.45443 -45.36131,-36.91128 -69.59375,-55.36773 l -50.90625,55.36773 -75.78125,0 c 2.7671,-1.41941 5.54341,-4.61411 8.3125,-9.58408 4.15461,-8.51751 6.21875,-19.5069 6.21875,-32.9944 0,-12.06806 -1.38816,-23.44555 -4.15625,-34.0942 -3.46235,-11.35633 -9.68897,-24.82407 -18.6875,-40.44169 C 777.81677,88.002742 766.75265,72.025239 752.90625,54.988201 740.44241,37.243486 726.23869,19.503995 710.3125,1.7572504 z M 86.71875,16.463322 l -12.5,18.256896 c 29.11493,18.629686 52.35347,37.273258 69.6875,55.901924 15.94328,17.196318 30.85468,39.390418 44.71875,66.617248 6.23764,12.18157 12.10904,19.69617 17.65625,22.56188 5.54424,2.86673 11.44591,4.30598 17.6875,4.30498 16.63668,0.001 24.96875,-11.44824 24.96875,-34.37701 0,-10.74719 -4.18018,-21.14032 -12.5,-31.17185 C 226.03649,103.51214 209.74737,88.449502 187.5625,73.402213 162.60501,54.056862 129.00731,35.093008 86.71875,16.463322 z M 10.8125,278.69017 -0.625,296.94706 c 31.195133,18.62867 55.788031,37.62395 73.8125,56.97032 16.637667,16.48065 32.59288,38.35447 47.84375,65.58028 6.2406,12.18157 11.77021,19.69514 16.625,22.56188 6.23962,3.58239 12.47913,5.37337 18.71875,5.37337 16.63766,0 24.96776,-11.83035 24.96875,-35.47683 -9.9e-4,-10.03152 -3.81108,-20.42363 -11.4375,-31.17184 -11.78485,-15.04525 -29.12271,-30.42715 -52,-46.19215 C 92.258324,315.96444 56.565099,297.31986 10.8125,278.69017 z M 235.40625,529.10188 C 209.06295,579.97416 173.37268,639.81016 128.3125,708.59137 82.558913,778.09639 39.583354,833.63683 -0.625,875.19733 c 36.047951,52.30258 56.490933,78.43238 61.34375,78.43238 4.853804,0 9.33861,-17.1739 13.5,-51.56552 32.58095,-58.75375 63.44757,-120.02495 92.5625,-183.79447 29.1179,-60.18712 54.75361,-117.87636 76.9375,-173.04772 l -8.3125,-16.12012 z"
   id="path2997"
   inkscape:connector-curvature="0" />
	<g
   id="text2999"
   transform="scale(0.98248187,1.0178305)">
	</g>
	
</g>
<text
   transform="matrix(1.0026 0 0 1 2.2224 877.5674)"
   display="none"
   enable-background="new    "
   font-family="'AdobeMingStd-Light-B5pc-H'"
   font-size="999.9344"
   id="text11">防</text>

</svg>