<?xml version="1.0" encoding="utf-8"?>
<!-- Generator: Adobe Illustrator 14.0.0, SVG Export Plug-In . SVG Version: 6.00 Build 43363)  -->
<!DOCTYPE svg PUBLIC "-//W3C//DTD SVG 1.1//EN" "http://www.w3.org/Graphics/SVG/1.1/DTD/svg11.dtd">
<svg version="1.1"
	 id="svg2985" xmlns:dc="http://purl.org/dc/elements/1.1/" xmlns:sodipodi="http://sodipodi.sourceforge.net/DTD/sodipodi-0.dtd" xmlns:cc="http://creativecommons.org/ns#" xmlns:rdf="http://www.w3.org/1999/02/22-rdf-syntax-ns#" xmlns:inkscape="http://www.inkscape.org/namespaces/inkscape" xmlns:svg="http://www.w3.org/2000/svg" inkscape:version="0.48.2 r9819" sodipodi:docname="Z1179.svg"
	 xmlns="http://www.w3.org/2000/svg" xmlns:xlink="http://www.w3.org/1999/xlink" x="0px" y="0px" width="1000px" height="1000px"
	 viewBox="0 0 1000 1000" enable-background="new 0 0 1000 1000" xml:space="preserve">
<sodipodi:namedview  showgrid="false" showguides="true" pagecolor="#ffffff" bordercolor="#666666" borderopacity="1.0" inkscape:current-layer="layer2" inkscape:window-y="3" inkscape:window-x="1283" inkscape:guide-bbox="true" inkscape:pageopacity="0.0" inkscape:pageshadow="2" inkscape:window-width="1257" inkscape:window-height="952" id="base" inkscape:cy="499.61126" inkscape:cx="500.53374" inkscape:zoom="0.75844282" inkscape:window-maximized="0">
	<sodipodi:guide  id="guide5596" position="200" orientation="horizontal"></sodipodi:guide>
	<sodipodi:guide  id="guide3803" position="478.61221,698.8002" orientation="0,1"></sodipodi:guide>
	<sodipodi:guide  id="guide3805" position="480.58995,669.7934" orientation="0,1"></sodipodi:guide>
</sodipodi:namedview>
<g id="layer2" inkscape:groupmode="layer" inkscape:label="惜">
	<g id="text3796" transform="scale(0.99807034,1.0019334)">
		
			<path id="path3801" sodipodi:nodetypes="cccccccccccccccccccccccccccccccccccccscccccccccccccccccccccccccccccccccccccccscccccccccscccccccccccccccccc" inkscape:connector-curvature="0" d="
			M568.367,146.29h62.686c16.716-58.506,26.467-104.476,29.254-137.91l83.582,37.612l-29.254,16.717
			c-22.289,33.433-43.185,61.294-62.686,83.582h188.059l37.612-41.791l58.508,58.508l-33.433,29.254v275.821l4.179,62.686
			l-62.686,25.075V518.23H689.561l71.044,29.253l-29.254,29.254v50.149h150.448l54.328-45.97l62.686,75.224H756.426
			c22.288,44.577,52.935,89.851,91.94,135.82c39.004,45.97,90.547,78.706,154.627,98.209v16.717
			c-47.364,2.786-73.831,16.716-79.402,41.79c-61.295-47.363-105.871-98.209-133.732-152.537
			c-27.861-54.328-45.971-100.994-54.328-139.999h-4.18v200.597c0,47.363,1.392,86.367,4.18,117.014l-66.865,25.075l4.179-58.507
			V693.752C603.192,810.766,502.894,897.134,371.95,952.855l-4.179-12.537c119.8-86.368,207.561-181.094,263.283-284.178h-83.581
			c-27.861,0-54.329,2.786-79.403,8.358l-37.612-37.612h242.388c-0.001-36.219-1.394-72.437-4.179-108.656h-96.12v25.075
			l-62.686,16.716c2.786-58.507,4.179-133.731,4.18-225.671c-0.001-94.726-1.394-167.163-4.18-217.313L568.367,146.29z
			 M0.01,413.752C89.165,288.38,156.03,150.469,200.607,0.021l79.402,45.97l-33.433,25.075l-33.433,66.866h125.373l41.791-45.97
			l54.328,62.686c-25.075,0.001-72.439,48.757-142.089,146.269h91.939l54.328-45.97l54.328,75.224H158.816v217.313
			c-2.786,189.453-50.15,332.935-142.089,430.447l-12.538-8.358c61.293-103.085,93.333-240.995,96.119-413.731V334.349
			c-36.218,44.577-65.472,73.831-87.76,87.761L0.01,413.752z M250.756,438.827h125.373l29.254-45.97l62.686,50.15l-33.433,37.612
			c-0.001,66.866-3.483,121.193-10.448,162.985c-6.966,41.79-31.344,72.437-73.134,91.939
			c-8.358-30.646-34.826-54.328-79.402-71.044l4.179-16.717c39.004,11.144,64.079,13.931,75.223,8.359
			c11.144-5.572,18.806-20.895,22.985-45.971c4.179-25.074,6.269-72.437,6.269-142.089H254.935v384.477l208.955-91.94l4.179,16.717
			c-139.304,78.009-218.706,135.124-238.208,171.343L183.89,885.99c11.145-8.358,15.324-27.86,12.537-58.507V514.05
			c0-39.005-1.392-75.224-4.179-108.657L250.756,438.827z M844.187,315.018V175.544H572.546v139.474H844.187z M844.187,488.976
			V343.7H572.546v145.275H844.187z M154.637,300.916h117.015l62.686-133.731h-137.91c-11.145,25.076-30.647,61.294-58.507,108.657
			L154.637,300.916z"/>
	</g>
</g>
</svg>
