<?xml version="1.0" encoding="utf-8"?>
<!-- Generator: Adobe Illustrator 16.0.3, SVG Export Plug-In . SVG Version: 6.00 Build 0)  -->
<!DOCTYPE svg PUBLIC "-//W3C//DTD SVG 1.1//EN" "http://www.w3.org/Graphics/SVG/1.1/DTD/svg11.dtd">
<svg version="1.1"
	 id="svg2985" sodipodi:docname="Z1179.svg" inkscape:version="0.48.2 r9819" xmlns:dc="http://purl.org/dc/elements/1.1/" xmlns:cc="http://creativecommons.org/ns#" xmlns:rdf="http://www.w3.org/1999/02/22-rdf-syntax-ns#" xmlns:svg="http://www.w3.org/2000/svg" xmlns:sodipodi="http://sodipodi.sourceforge.net/DTD/sodipodi-0.dtd" xmlns:inkscape="http://www.inkscape.org/namespaces/inkscape"
	 xmlns="http://www.w3.org/2000/svg" xmlns:xlink="http://www.w3.org/1999/xlink" x="0px" y="0px" width="1000px" height="1000px"
	 viewBox="0 0 1000 1000" enable-background="new 0 0 1000 1000" xml:space="preserve">
<sodipodi:namedview  inkscape:window-maximized="0" inkscape:current-layer="layer2" inkscape:window-y="3" inkscape:guide-bbox="true" inkscape:pageopacity="0.0" inkscape:pageshadow="2" inkscape:window-width="1257" inkscape:window-height="952" inkscape:window-x="1283" inkscape:cy="499.61126" inkscape:cx="500.53374" inkscape:zoom="0.75844282" showguides="true" showgrid="false" id="base" pagecolor="#ffffff" bordercolor="#666666" borderopacity="1.0">
	<sodipodi:guide  position="200" orientation="horizontal" id="guide5596"></sodipodi:guide>
	<sodipodi:guide  position="478.61221,698.8002" orientation="0,1" id="guide3803"></sodipodi:guide>
	<sodipodi:guide  position="480.58995,669.7934" orientation="0,1" id="guide3805"></sodipodi:guide>
</sodipodi:namedview>
<g id="layer2" inkscape:groupmode="layer" inkscape:label="謘潭">
	<g id="text3796" transform="scale(0.99807034,1.0019334)">
		
			<path id="path3801" sodipodi:nodetypes="cccccccccccccccccccccccccccccccccccccscccccccccccccccccccccccccccccccccccccccscccccccccscccccccccccccccccc" inkscape:connector-curvature="0" d="
			M568.367,146.29h62.686C647.769,87.784,657.52,41.814,660.307,8.38l83.582,37.612l-29.254,16.717
			c-22.289,33.433-43.185,61.294-62.686,83.582h188.059L877.62,104.5l58.508,58.508l-33.433,29.254v275.821l4.179,62.685
			l-62.686,25.076v-37.614H689.561l71.044,29.252l-29.254,29.255v50.148h150.448l54.328-45.97l62.685,75.224H756.426
			c22.288,44.578,52.935,89.852,91.94,135.82c39.004,45.97,90.547,78.706,154.627,98.21v16.717
			c-47.364,2.786-73.831,16.716-79.401,41.789c-61.295-47.363-105.871-98.209-133.733-152.536
			c-27.86-54.329-45.971-100.994-54.328-140h-4.18v200.598c0,47.363,1.392,86.367,4.18,117.014l-66.865,25.075l4.179-58.507V693.753
			C603.192,810.767,502.894,897.134,371.95,952.855l-4.179-12.537c119.801-86.367,207.562-181.094,263.284-284.178h-83.581
			c-27.861,0-54.328,2.787-79.403,8.359l-37.612-37.613h242.388c-0.001-36.219-1.393-72.436-4.179-108.655h-96.12v25.075
			l-62.685,16.716c2.786-58.507,4.179-133.731,4.18-225.671c-0.001-94.726-1.394-167.163-4.18-217.313L568.367,146.29z
			 M0.01,413.752C89.166,288.38,156.03,150.469,200.607,0.021l79.402,45.97l-33.434,25.075l-33.433,66.866h125.373l41.791-45.97
			l54.328,62.686c-25.075,0.001-72.439,48.757-142.089,146.269h91.938l54.328-45.97l54.328,75.224H158.817v217.313
			c-2.787,189.452-50.151,332.935-142.09,430.447l-12.538-8.359c61.293-103.085,93.333-240.995,96.119-413.731V334.349
			c-36.218,44.577-65.472,73.831-87.76,87.761L0.01,413.752z M250.756,438.828h125.373l29.255-45.97l62.685,50.15l-33.433,37.612
			c-0.001,66.867-3.483,121.193-10.448,162.986c-6.967,41.789-31.344,72.437-73.134,91.939
			c-8.358-30.646-34.826-54.328-79.401-71.043l4.179-16.718c39.003,11.144,64.079,13.931,75.222,8.36
			c11.145-5.572,18.806-20.895,22.985-45.972c4.179-25.074,6.269-72.437,6.269-142.089H254.935v384.477l208.955-91.939l4.179,16.717
			C328.765,855.345,249.363,912.46,229.861,948.679l-45.971-62.688c11.145-8.358,15.324-27.86,12.537-58.507V514.05
			c0-39.005-1.392-75.224-4.179-108.657L250.756,438.828z M844.187,315.018V175.544H572.546v139.474H844.187z M844.187,488.977
			V343.7H572.546v145.274h271.641V488.977z M154.637,300.916h117.016l62.685-133.731h-137.91
			c-11.146,25.076-30.647,61.294-58.507,108.657L154.637,300.916z"/>
	</g>
</g>
</svg>
