<?xml version="1.0" encoding="utf-8"?>
<!-- Generator: Adobe Illustrator 14.0.0, SVG Export Plug-In . SVG Version: 6.00 Build 43363)  -->
<!DOCTYPE svg PUBLIC "-//W3C//DTD SVG 1.1//EN" "http://www.w3.org/Graphics/SVG/1.1/DTD/svg11.dtd">
<svg version="1.1"
	 id="svg2985" xmlns:dc="http://purl.org/dc/elements/1.1/" xmlns:sodipodi="http://sodipodi.sourceforge.net/DTD/sodipodi-0.dtd" xmlns:cc="http://creativecommons.org/ns#" xmlns:rdf="http://www.w3.org/1999/02/22-rdf-syntax-ns#" xmlns:inkscape="http://www.inkscape.org/namespaces/inkscape" xmlns:svg="http://www.w3.org/2000/svg" inkscape:version="0.48.2 r9819" sodipodi:docname="Z1178.svg"
	 xmlns="http://www.w3.org/2000/svg" xmlns:xlink="http://www.w3.org/1999/xlink" x="0px" y="0px" width="1000px" height="1000px"
	 viewBox="0 0 1000 1000" enable-background="new 0 0 1000 1000" xml:space="preserve">
<sodipodi:namedview  showgrid="false" showguides="true" pagecolor="#ffffff" bordercolor="#666666" borderopacity="1.0" inkscape:current-layer="layer2" inkscape:window-y="3" inkscape:window-x="1283" inkscape:guide-bbox="true" inkscape:pageopacity="0.0" inkscape:pageshadow="2" inkscape:window-width="1257" inkscape:window-height="952" id="base" inkscape:cy="480.76945" inkscape:cx="500.37375" inkscape:zoom="0.75785891" inkscape:window-maximized="0">
	<sodipodi:guide  id="guide5596" position="200" orientation="horizontal"></sodipodi:guide>
</sodipodi:namedview>
<g id="layer1" inkscape:groupmode="layer" inkscape:label="Layer 1">
	<g id="text2992" transform="scale(0.96857661,1.0324429)">
		
			<path id="path2997" sodipodi:nodetypes="cccccccccccccccccccccccccccccsccccccccccccccccccccccccccccccc" inkscape:connector-curvature="0" d="
			M509.36,73.279c30.344,7.764,70.922,11.645,121.732,11.644h254.052l50.81-58.22c26.815,19.76,52.221,39.167,76.215,58.22
			c5.644,3.529,8.467,7.763,8.468,12.703c0,11.997-5.293,17.996-15.878,17.995H667.084l-25.406,210.652h167.251l42.342-46.576
			c22.582,15.526,41.283,30.346,56.104,44.459c5.644,4.94,8.467,10.233,8.468,15.878c-0.001,3.529-4.941,7.763-14.82,12.703
			c-7.058,6.352-14.82,11.644-23.287,15.878l-34.933,516.572c-0.001,5.646,1.058,9.88,3.176,12.703
			c2.116,4.234,5.644,7.056,10.586,8.468c5.644,2.117,19.053,3.175,40.225,3.175c16.23,0,27.926-1.411,39.219-4.234
			c5.644-1.412,10.585-4.588,14.819-9.528c2.822-2.117,5.291-9.174,7.41-21.171c4.939-29.639,9.526-81.155,13.762-154.548
			l26.463,4.235c-3.529,42.342-5.293,85.743-5.292,130.202c-0.001,19.054,4.586,31.05,13.76,35.991
			c16.231,7.763,24.346,17.29,24.347,28.581c0,4.94-2.118,9.88-6.351,14.82c-5.647,6.351-19.055,11.997-40.225,16.937
			c-22.584,3.528-46.982,5.292-77.326,5.292c-33.875,0-61.044-2.117-81.508-6.351c-12.704-1.412-21.878-6.352-27.522-14.82
			c-3.53-4.94-5.294-21.524-5.293-49.752l33.874-529.275H638.503L622.625,474.47l4.235-3.176
			c19.759,14.821,36.695,30.698,50.81,47.635c16.935,14.114,30.344,28.229,40.225,42.342c11.29,13.409,18.7,25.405,22.23,35.991
			c4.233,10.586,6.35,20.466,6.351,29.64c-0.001,11.997-1.765,22.229-5.293,30.697c-5.646,7.763-12.703,11.645-21.17,11.644
			c-4.941,0-9.175-1.764-12.703-5.292c-3.53-2.823-6.705-11.644-9.527-26.464c-4.236-18.348-10.939-36.343-20.112-53.987
			c-8.469-16.936-17.29-33.52-26.464-49.751c-7.763-11.997-17.995-25.052-30.697-39.167l-44.46,357.791
			c16.936-4.94,33.167-10.233,48.693-15.878c33.873-11.292,73.039-25.758,117.499-43.401l4.235,20.112
			c-34.58,21.877-65.278,38.813-92.094,50.811c-28.935,15.526-56.457,28.228-82.567,38.107
			c-23.994,11.997-49.399,21.877-76.215,29.64c-7.058,25.404-12.703,38.107-16.936,38.107c-4.94,0-21.525-28.228-49.752-84.684
			c35.285-4.939,67.393-11.644,96.328-20.112l91.035-749.453c-41.636,0.707-70.571,2.118-86.801,4.234L509.36,73.279z"/>
	</g>
</g>
<g id="layer2" inkscape:groupmode="layer" inkscape:label="惜">
	<g id="text2988" transform="scale(1.0014367,0.99856539)">
		
			<path id="path2993" sodipodi:nodetypes="cccccccccccccccccccccscccccccccccccccccccccccccccccccccccccccccsccccccccccccccccccc" inkscape:connector-curvature="0" d="
			M152.893-0.689c33.431,5.691,62.24,13.16,86.425,22.406c4.978,1.423,7.468,5.335,7.469,11.737
			c-0.001,6.402-6.047,11.382-18.139,14.937c-14.938,3.557-28.452,5.335-40.544,5.335c-4.979,19.206-9.958,36.278-14.938,51.214
			H311.87l28.808-33.076c24.184,15.649,46.234,33.432,66.151,53.348c2.134,1.423,3.201,3.557,3.201,6.402
			c-0.001,4.98-6.758,9.248-20.273,12.804c-10.67,2.135-20.984,4.624-30.942,7.469c-14.227,24.897-31.654,50.859-52.281,77.888
			c-14.227,22.051-28.808,41.612-43.745,58.683h113.097l45.879-46.947c23.473,17.072,45.168,33.432,65.085,49.081
			c5.689,3.557,8.535,7.469,8.536,11.737c-0.001,11.382-4.624,17.072-13.871,17.071h-361.7l-1.067,7.469v234.732
			c0,45.523-1.779,87.491-5.335,125.901c-1.423,34.855-4.979,70.419-10.669,106.696c-4.979,29.164-11.737,56.194-20.273,81.089
			c-7.825,22.762-17.071,44.101-27.74,64.019c-9.959,17.782-24.185,35.921-42.679,54.415l-11.737-8.536
			c8.536-16.36,16.36-33.788,23.473-52.282c6.402-16.359,12.448-33.787,18.139-52.281c4.979-20.627,9.246-44.812,12.803-72.553
			c4.268-32.009,7.114-64.373,8.537-97.093c2.845-44.812,4.267-94.604,4.267-149.375c0.711-102.428,0-187.43-2.134-255.004
			l-1.067,1.067c-13.515,18.494-28.097,35.21-43.746,50.147L4.585,335.405c17.071-19.205,32.365-39.477,45.879-60.817
			c12.092-20.628,24.54-43.389,37.344-68.286c12.092-25.606,22.761-50.858,32.009-75.754c9.246-23.472,16.36-45.523,21.339-66.152
			C146.136,45.191,150.047,23.497,152.893-0.689L152.893-0.689z M88.875,275.655l20.273,12.804h124.834
			c19.916-27.03,35.565-52.992,46.946-77.889c13.515-26.318,23.828-51.213,30.942-74.687H161.428
			c-7.824,19.917-16.004,38.767-24.54,56.549c-12.804,24.897-24.54,45.88-35.209,62.951
			C97.411,262.496,93.143,269.254,88.875,275.655z M222.245,467.708v401.177c6.402-2.134,12.092-4.268,17.072-6.402
			c28.451-8.536,59.037-21.339,91.758-38.411c32.009-14.938,69.353-35.21,112.031-60.817l5.335,20.272
			c-34.143,29.164-63.662,51.926-88.558,68.286c-27.031,19.205-52.993,35.566-77.888,49.08
			c-23.473,14.226-48.013,26.674-73.62,37.344c-7.114,24.896-12.449,37.344-16.005,37.345c-5.69-0.001-22.761-28.097-51.214-84.291
			c12.092-2.845,23.473-5.69,34.142-8.536V463.44c0-27.741-3.2-51.57-9.602-71.487l65.084,46.947h140.84l24.54-34.143
			c40.544,24.185,60.816,41.256,60.817,51.215c-0.001,7.825-10.314,14.581-30.942,20.272v197.388
			c-0.001,12.093-3.201,22.762-9.603,32.009c-6.402,11.382-15.648,20.272-27.74,26.674c-10.67,7.114-23.829,12.804-39.477,17.071
			c-0.001-18.493-2.135-31.297-6.402-38.411c-2.846-7.113-7.47-11.737-13.871-13.871c-13.515-8.536-29.164-14.937-46.946-19.205
			v-22.406c25.607,14.937,48.013,22.406,67.219,22.406c10.669,0,17.782-2.845,21.338-8.536c3.556-4.268,5.335-11.737,5.335-22.406
			V467.708H222.245z"/>
	</g>
</g>
</svg>
