<?xml version="1.0" encoding="UTF-8" standalone="no"?>
<!-- Generator: Adobe Illustrator 16.0.3, SVG Export Plug-In . SVG Version: 6.00 Build 0)  -->

<svg
   xmlns:dc="http://purl.org/dc/elements/1.1/"
   xmlns:cc="http://creativecommons.org/ns#"
   xmlns:rdf="http://www.w3.org/1999/02/22-rdf-syntax-ns#"
   xmlns:svg="http://www.w3.org/2000/svg"
   xmlns="http://www.w3.org/2000/svg"
   xmlns:sodipodi="http://sodipodi.sourceforge.net/DTD/sodipodi-0.dtd"
   xmlns:inkscape="http://www.inkscape.org/namespaces/inkscape"
   version="1.1"
   id="svg2985"
   sodipodi:docname="Z1176.svg"
   inkscape:version="0.48.5 r10040"
   x="0px"
   y="0px"
   width="1000px"
   height="1000px"
   viewBox="0 0 1000 1000"
   enable-background="new 0 0 1000 1000"
   xml:space="preserve"><metadata
   id="metadata11"><rdf:RDF><cc:Work
       rdf:about=""><dc:format>image/svg+xml</dc:format><dc:type
         rdf:resource="http://purl.org/dc/dcmitype/StillImage" /></cc:Work></rdf:RDF></metadata><defs
   id="defs9" />
<sodipodi:namedview
   inkscape:window-maximized="1"
   inkscape:current-layer="layer1"
   inkscape:window-y="-8"
   inkscape:guide-bbox="true"
   inkscape:pageopacity="0.0"
   inkscape:pageshadow="2"
   inkscape:window-width="1366"
   inkscape:window-height="716"
   inkscape:window-x="-8"
   inkscape:cy="509.72438"
   inkscape:cx="216.01236"
   inkscape:zoom="0.44131018"
   showguides="true"
   showgrid="false"
   id="base"
   pagecolor="#ffffff"
   bordercolor="#666666"
   borderopacity="1.0">
	<sodipodi:guide
   position="200"
   orientation="horizontal"
   id="guide5596" />
</sodipodi:namedview>
<g
   id="layer1"
   inkscape:groupmode="layer"
   inkscape:label="Layer 1">
	<g
   id="text2986"
   transform="scale(1.0100361,0.99006362)"
   style="stroke:none;fill:#000000;fill-opacity:1">
		<g
   id="g2997"
   style="stroke:none;fill:#000000;fill-opacity:1">
			
				<path
   d="m 467.71875,0.53125 c 5.19236,35.749217 3.83247,74.320576 4.375,111.46875 l -344.53125,0 c -53.133762,9.9e-4 -95.725536,-4.26782 -127.75,-12.84375 L 22.75,146.3125 c 18.194962,-2.1435 53.135908,-3.56543 104.8125,-4.28125 l 344.53125,0 0,94.3125 -309.59375,0 -66.59375,-47.15625 c 5.82263,21.43885 8.75,46.09945 8.75,73.96875 l 0,141.46875 c 0,52.88227 -1.83137,87.56692 -5.46875,104 -2.184241,20.72302 -3.282258,37.13416 -3.28125,49.28125 -0.001,10.72041 3.992118,18.93961 12,24.65625 9.46405,4.28797 17.08462,6.4375 22.90625,6.4375 14.55758,0 21.84375,-4.26881 21.84375,-12.84375 l 0,-38.59375 685.65625,0 0,28.9375 c -0.001,9.28977 7.65284,13.9375 22.9375,13.9375 5.82062,0 13.47648,-2.14952 22.9375,-6.4375 7.27979,-6.43145 10.90525,-14.65166 10.90625,-24.65625 -10e-4,-12.14808 -0.36668,-28.58849 -1.09375,-49.3125 -2.18424,-16.43605 -3.28226,-51.08747 -3.28125,-103.96875 l 0,-112.5625 C 916.91957,267.77878 929.99899,256.36504 930,249.21875 c -0.001,-4.28698 -2.53046,-8.93472 -7.625,-13.9375 -11.64627,-14.29158 -30.54917,-29.65769 -56.75,-46.09375 l -36.03125,47.15625 c -142.29644,0 -162.79832,9.9e-4 -305.09375,0 l 0,-94.3125 457.9375,0 c 12.37132,9.9e-4 18.5614,-5.37433 18.5625,-16.09375 -0,-5.00081 -3.29506,-9.64952 -9.84375,-13.9375 -24.01961,-19.293367 -49.842,-39.307238 -77.5,-60.03125 L 861.25,112 l -336.75,0 0,-47.15625 c 16.73981,-1.428662 32.01423,-5.348808 45.84375,-11.78125 9.46303,-2.858315 14.1875,-7.157384 14.1875,-12.875 0,-6.429473 -4.72648,-11.774534 -14.1875,-16.0625 C 543.41181,13.406571 509.20625,5.5340415 467.71875,0.53125 z m -315.0625,266.90625 319.4375,0 0,101.84375 -319.4375,0 z m 371.84375,0 313.8125,0 0,101.84375 c -145.20675,0 -168.60575,-9.9e-4 -313.8125,0 z m -371.84375,132.90625 319.4375,0 0,106.125 -319.4375,0 z m 371.84375,0 313.8125,0 0,106.125 c -145.20675,0 -168.60575,-9.9e-4 -313.8125,0 z m -322.6875,184.375 c 5.82263,20.00721 8.71875,43.94221 8.71875,71.8125 l 0,159.71875 -8.71875,152.21875 c 0,10.71942 3.62544,18.93962 10.90625,24.65625 9.46303,4.28698 17.11386,6.4375 22.9375,6.4375 15.28567,-9.9e-4 22.9375,-4.30005 22.9375,-12.875 l 0,-34.3125 471.65625,0 0,28.9375 c -0.001,9.28982 6.92048,13.9375 20.75,13.9375 6.5507,0 14.50571,-2.11826 23.96875,-6.40625 7.27777,-6.43144 10.93649,-14.65463 10.9375,-24.65625 -0.001,-12.14808 -0.36869,-28.58948 -1.09375,-49.3125 -1.45918,-16.43408 -2.18851,-50.73881 -2.1875,-102.90625 l 0,-132.90625 c 26.20082,-16.43308 39.31149,-28.22872 39.3125,-35.375 -0.001,-3.57413 -2.92837,-8.22284 -8.75,-13.9375 -12.37334,-15.00638 -31.64393,-30.02586 -57.84375,-45.03125 L 721.5,631.875 l -454.1875,0 z m 56.78125,76.09375 471.65625,0 0,116.84375 -471.65625,0 z m 0,146.875 471.65625,0 0,113.625 -471.65625,0 z"
   transform="scale(0.99006362,1.0100361)"
   id="path2995"
   style="fill:#000000;fill-opacity:1;stroke:none"
   inkscape:connector-curvature="0"
   sodipodi:nodetypes="ccccccccccsscccsscccscccccccccccccccccccscccccccccccccccccccccccsccccscccsccccccccccccccccccccc" />
		</g>
	</g>
</g>
</svg>