<?xml version="1.0" encoding="utf-8"?>
<!-- Generator: Adobe Illustrator 16.0.3, SVG Export Plug-In . SVG Version: 6.00 Build 0)  -->
<!DOCTYPE svg PUBLIC "-//W3C//DTD SVG 1.1//EN" "http://www.w3.org/Graphics/SVG/1.1/DTD/svg11.dtd">
<svg version="1.1"
	 id="svg2985" sodipodi:docname="Z1182.svg" inkscape:version="0.48.2 r9819" xmlns:dc="http://purl.org/dc/elements/1.1/" xmlns:cc="http://creativecommons.org/ns#" xmlns:rdf="http://www.w3.org/1999/02/22-rdf-syntax-ns#" xmlns:svg="http://www.w3.org/2000/svg" xmlns:sodipodi="http://sodipodi.sourceforge.net/DTD/sodipodi-0.dtd" xmlns:inkscape="http://www.inkscape.org/namespaces/inkscape"
	 xmlns="http://www.w3.org/2000/svg" xmlns:xlink="http://www.w3.org/1999/xlink" x="0px" y="0px" width="1000px" height="1000px"
	 viewBox="0 0 1000 1000" enable-background="new 0 0 1000 1000" xml:space="preserve">
<sodipodi:namedview  inkscape:window-maximized="1" inkscape:current-layer="layer1" inkscape:window-y="-8" inkscape:guide-bbox="true" inkscape:pageopacity="0.0" inkscape:pageshadow="2" inkscape:window-width="1280" inkscape:window-height="974" inkscape:window-x="1272" inkscape:cy="495.81159" inkscape:cx="445.22443" inkscape:zoom="0.64205296" showguides="true" showgrid="false" id="base" pagecolor="#ffffff" bordercolor="#666666" borderopacity="1.0">
	<sodipodi:guide  position="200" orientation="horizontal" id="guide5596"></sodipodi:guide>
</sodipodi:namedview>
<g id="layer1" inkscape:groupmode="layer" inkscape:label="Layer 1">
	<g id="text3021" transform="scale(1.0007769,0.99922367)">
		
			<path id="path3026" sodipodi:nodetypes="ccccccccccccccccccccsccccccccccccccccccccccccccccccccccccscccccccccccccccc" inkscape:connector-curvature="0" d="
			M552.908-0.677c66.201,14.393,99.3,27.705,99.3,39.936c0,7.916-18.709,13.313-56.125,16.19
			c-17.99,32.382-39.938,64.042-65.84,94.983h298.983l35.619-47.491c25.903,16.55,44.612,32.021,56.125,46.412
			c5.036,5.038,7.555,10.075,7.557,15.111c-0.002,6.477-12.954,17.63-38.857,33.46v208.315c-0.001,53.247,1.078,88.147,3.24,104.697
			c1.436,20.869,2.156,37.419,2.157,49.65c-0.001,10.796-3.959,19.07-11.873,24.826c-9.356,4.319-16.912,6.477-22.667,6.477
			c-15.111,0-22.667-4.317-22.666-12.952v-47.491H751.51v375.615c-0.001,9.354,2.158,17.269,6.475,23.746
			c2.879,7.195,8.994,12.232,18.349,15.11c10.792,2.878,32.38,4.318,64.761,4.318c23.745,0,42.277-1.44,63.145-4.318
			c7.195-0.719,12.592-4.677,16.191-11.872c4.316-5.037,7.556-14.03,9.714-26.984c4.316-18.709,8.634-61.883,12.952-129.521
			l16.192,4.318V888.71c-0.001,12.951,2.156,22.667,6.475,29.143c5.755,8.635,14.03,15.471,24.825,20.508
			c5.755,3.598,8.634,8.993,8.635,16.189c-0.001,2.159-1.44,5.756-4.318,10.794c-3.599,6.476-10.794,11.872-21.587,16.19
			c-11.515,5.755-28.784,9.354-51.809,10.794c-25.906,3.598-44.437,5.397-63.145,5.397c-39.578,0-68-1.44-85.269-4.318
			c-18.71-0.719-32.741-4.318-42.095-10.794c-10.793-4.319-19.068-11.153-24.825-20.508c-4.318-10.073-6.476-18.709-6.475-25.904
			V531.445H590.685c-5.038,43.174-11.875,82.03-20.508,116.57c-7.917,39.578-20.508,75.195-37.777,106.856
			c-16.552,36.696-34.901,68.359-55.047,94.983c-20.869,27.344-46.412,52.528-76.634,75.555
			c-31.662,25.186-70.158,47.851-115.49,67.999l-16.191-22.666c45.331-25.905,81.311-51.45,107.936-76.635
			c26.623-24.465,48.93-50.01,66.92-76.635c16.55-25.186,31.301-51.448,44.254-78.794c12.233-28.782,22.666-62.243,31.302-100.38
			c6.474-29.502,11.513-65.121,15.11-106.856h-88.506v56.128c0,7.915-7.557,11.872-22.666,11.872
			c-5.757,0-19.308-1.799-28.662-5.397c-7.197-5.756-10.793-14.031-10.793-24.826c0-12.232,0.719-28.782,2.158-49.65
			c4.317-16.55,6.474-51.81,6.475-105.776V177.416c-0.001-28.062-2.879-52.888-8.635-74.475l70.758,47.491h48.571
			c15.11-20.867,26.264-42.094,33.46-63.682C543.912,63.725,549.309,34.582,552.908-0.677L552.908-0.677z M446.051,501.223h391.806
			V354.43H446.051V501.223z M446.051,323.129h391.806V181.734H446.051V323.129z"/>
	</g>
</g>
<g id="layer2" inkscape:groupmode="layer" inkscape:label="謘潭">
	<g id="text3014" transform="scale(0.98613427,1.0140607)">
		<path id="path3019" sodipodi:nodetypes="ccccccccsccccccscccsscsscccccccsc" inkscape:connector-curvature="0" d="M138.232,4.25
			c41.576,5.735,75.626,13.62,102.15,23.656c10.036,3.585,15.052,8.603,15.052,15.053c0,7.169-5.018,11.829-15.052,13.978
			c-13.621,7.169-28.674,11.471-45.161,12.904v665.585h83.87c0.717-7.885,1.075-14.695,1.075-20.43V258.011
			c0-37.992-1.434-66.666-4.301-86.02c35.125,5.018,64.155,12.904,87.094,23.656c7.886,4.301,11.828,9.678,11.828,16.129
			c0,5.735-3.226,10.036-9.677,12.903c-9.32,7.169-20.072,11.47-32.258,12.904v554.832c0,13.62-10.036,20.431-30.107,20.431
			c-17.921,0-26.882-8.244-26.882-24.731c0-7.169,0.358-14.695,1.074-22.58H46.835c-4.301,2.867-10.754,4.301-19.354,4.301
			c-17.921,0-26.882-8.242-26.882-24.73c0-9.319,0.717-20.788,2.15-34.409C4.183,695.641,4.9,682.38,4.9,670.91V258.011
			c0-37.992-1.434-66.666-4.301-86.02c35.125,5.018,64.156,12.904,87.094,23.656c7.887,4.301,11.828,9.678,11.828,16.129
			c0,5.735-3.224,10.036-9.677,12.903c-9.319,7.169-20.07,11.47-32.258,12.904v497.845h84.945V90.271
			C142.533,52.279,141.099,23.606,138.232,4.25L138.232,4.25z"/>
	</g>
</g>
</svg>
