<?xml version="1.0" encoding="utf-8"?>
<!-- Generator: Adobe Illustrator 16.0.3, SVG Export Plug-In . SVG Version: 6.00 Build 0)  -->
<!DOCTYPE svg PUBLIC "-//W3C//DTD SVG 1.1//EN" "http://www.w3.org/Graphics/SVG/1.1/DTD/svg11.dtd">
<svg version="1.1"
	 id="svg2985" sodipodi:docname="Z1187.svg" inkscape:version="0.48.2 r9819" xmlns:dc="http://purl.org/dc/elements/1.1/" xmlns:cc="http://creativecommons.org/ns#" xmlns:rdf="http://www.w3.org/1999/02/22-rdf-syntax-ns#" xmlns:svg="http://www.w3.org/2000/svg" xmlns:sodipodi="http://sodipodi.sourceforge.net/DTD/sodipodi-0.dtd" xmlns:inkscape="http://www.inkscape.org/namespaces/inkscape"
	 xmlns="http://www.w3.org/2000/svg" xmlns:xlink="http://www.w3.org/1999/xlink" x="0px" y="0px" width="1000px" height="1000px"
	 viewBox="0 0 1000 1000" enable-background="new 0 0 1000 1000" xml:space="preserve">
<g id="layer1" inkscape:groupmode="layer" inkscape:label="Layer 1">
	<g id="text3032" transform="scale(0.98079733,1.0195786)">
		
			<path id="path3037" sodipodi:nodetypes="cccccccccccccccccccccccccccscccccccccccccccccccccscccccccccccccc" inkscape:connector-curvature="0" d="
			M23.991,42.173c27.614,5.665,67.621,8.498,120.018,8.497h89.218l38.235-33.987c24.783,21.951,45.67,43.547,62.663,64.789
			c2.833,3.541,4.25,7.435,4.25,11.683c0,4.249-6.019,7.789-18.056,10.621c-22.659,1.417-36.111,2.125-40.36,2.124
			c-21.951,33.28-44.255,63.019-66.913,89.217c-13.455,19.118-26.907,35.05-40.36,47.795c6.371,8.498,10.973,16.287,13.806,23.367
			c5.664,9.913,8.497,20.534,8.497,31.863c0,19.119-7.435,28.678-22.303,28.677c-3.542,0-7.081-1.416-10.621-4.249
			c-3.542-3.54-7.081-10.975-10.623-22.304c-8.495-28.321-18.056-50.981-28.677-67.975c-10.621-18.41-25.137-37.527-43.546-57.354
			l9.56-12.745c27.614,18.411,49.565,37.528,65.85,57.354c2.833,2.833,4.957,5.311,6.372,7.435
			c10.621-19.117,19.826-36.465,27.615-52.044c10.62-24.782,22.658-54.521,36.11-89.217l1.062-4.248h-81.783
			c-56.644,0-90.633,1.417-101.962,4.248L23.991,42.173z M12.308,326.818c27.614,6.373,67.266,9.559,118.956,9.559h122.142
			l30.8-33.988c21.242,14.162,40.713,30.094,58.416,47.795c7.004,9.526,15.529,12.105,0,20.18
			c-2.833,1.417-6.372,2.833-10.621,4.248c-10.622,2.125-21.243,4.957-31.863,8.497c-7.08,20.534-15.933,42.131-26.553,64.789
			c-10.622,24.783-21.243,46.733-31.864,65.851l-16.993-12.747c7.788-24.781,13.807-48.148,18.057-70.098
			c4.957-22.658,8.495-44.609,10.621-65.851h-50.981v532.116c0,21.95-4.25,38.236-12.747,48.857
			c-7.789,10.621-18.41,19.118-31.863,25.49c-12.038,7.081-22.659,10.621-31.864,10.621l-2.124-20.18
			c-1.417-4.958-3.186-8.85-5.311-11.682c-5.664-7.789-15.223-14.516-28.678-20.18c-15.576-6.373-33.28-10.621-53.106-12.746V892.92
			c29.739,7.789,56.646,11.682,80.721,11.682c15.577,0,25.844-1.77,30.8-5.31c4.957-3.541,7.435-13.1,7.435-28.677V431.966
			c-4.25,16.287-8.497,32.219-12.745,47.796c-11.331,39.651-23.721,76.118-37.175,109.397
			c-12.038,31.156-25.845,62.665-41.421,94.526c-15.577,29.031-34.342,60.188-56.292,93.466l-8.497-11.682
			c17.702-37.528,33.28-73.639,46.732-108.335c12.746-31.863,24.075-67.62,33.989-107.273
			c9.912-32.571,18.409-67.267,25.489-104.087c5.664-29.03,10.266-55.938,13.807-80.72c-49.565,0-80.012,1.417-91.341,4.248
			L12.308,326.818z"/>
	</g>
</g>
<g id="layer3" inkscape:groupmode="layer" inkscape:label="謘潭">
	<g id="text3040" transform="matrix(0.99885558,0,0,1.0011457,344,0)">
		<path id="path3045" sodipodi:nodetypes="cccccccccscccsccccccccssccccccccccccccc" inkscape:connector-curvature="0" d="
			M116.155,35.848c65.569,13.543,98.353,26.371,98.354,38.486c-0.001,8.553-18.531,13.899-55.591,16.036
			c-17.105,44.901-38.485,88.02-64.144,129.356h115.458l29.934-42.763c23.519,14.255,40.98,28.152,52.384,41.692
			c4.988,4.989,7.483,9.266,7.483,12.829c0,5.702-13.185,16.037-39.555,31.003v435.107c-0.001,49.177,1.069,80.893,3.207,95.147
			c0.713,19.243,1.069,34.21,1.07,44.901c-0.001,10.69-2.852,18.888-8.553,24.588c-8.553,3.563-15.68,5.345-21.382,5.345
			c-13.541,0-20.312-3.92-20.311-11.76v-54.522H46.666v54.522c0,7.84-5.346,11.76-16.036,11.76c-5.702,0-13.185-1.782-22.45-5.345
			c-5.702-5.701-8.553-13.898-8.553-24.588c0-10.691,0.357-25.658,1.07-44.901c2.138-14.254,3.208-45.97,3.208-95.147v-453.28
			c0-25.657-1.425-48.107-4.276-67.351l56.661,42.763h16.037c13.541-27.082,23.518-54.521,29.934-82.318
			C107.959,110.327,112.591,76.473,116.155,35.848z M46.666,771.361h167.841V509.441H46.666V771.361z M46.666,480.577h167.841
			V249.66H46.666V480.577z"/>
	</g>
</g>
<g id="layer5" inkscape:groupmode="layer" inkscape:label="謘潭#2">
	<g id="text3060" transform="scale(0.99057621,1.0095134)">
	</g>
	<g id="text3070" transform="scale(0.997948,1.0020562)">
	</g>
	<g id="text3082" transform="matrix(0.99933343,0,0,0.98791487,0.46398317,11.637313)">
	</g>
	<g id="text3089" transform="scale(0.96674625,1.0343976)">
		<path id="path3094" sodipodi:nodetypes="ccccccccccccccccccccccccccccccccccccccccccc" inkscape:connector-curvature="0" d="
			M787.773,193.235l-8.275,236.697h146.729l40.179-41.687c19.342,17.37,48.745,32.656,59.248,45.856
			c3.868,4.864,5.801,9.38,5.801,13.549c-1.104,4.864-4.697,10.074-10.775,15.632c-7.185,8.338-32.159,15.829-37.685,18.608
			c-21.699,83.339-26.556,120.68-55.534,221.204c-6.08,20.845-14.782,39.256-21.965,55.237
			c12.711,24.318,24.323,46.204,43.113,65.658c24.315,29.876,51.043,58.363,84.755,85.459l-3.314,16.674
			c-22.107,0-34.465,6.6-41.65,19.801c-29.291-28.486-52.503-55.237-69.634-80.247c-12.712-21.537-24.87-44.119-36.475-67.742
			c-15.477,31.265-35.646,62.878-60.515,94.838c-25.422,31.96-52.778,56.972-82.068,75.037l-9.948-17.718
			c24.869-16.674,47.805-39.951,68.806-69.827c18.79-25.012,37.58-59.751,56.371-104.218c2.763-7.642,5.249-14.937,7.46-21.885
			c-13.263-33.35-25.422-69.479-36.476-108.387c-17.966-80.928-46.12-176.515-46.423-185.619
			c-0.552,50.72-1.933-10.658-4.145,32.419c-1.66,50.718-11.18,102.132-16.153,154.241c-3.87,41.687-5.259,80.596-12.442,116.724
			c-6.08,31.96-13.817,62.532-23.21,91.712c-8.29,26.4-17.827,52.455-32.748,78.163l-17.249-9.192
			c17.967-64.256,23.608-99.76,30.535-149.22c4.973-31.264,8.842-66.7,11.606-106.301c3.869-46.55,6.632-93.796,8.289-141.736
			c2.21-64.615,11.592-137.22,11.593-217.816c0.552-111.165,6.078-127.618,3.314-194.318l50.751-17.908L787.773,193.235z
			 M810.566,460.155c8.142,54.262,14.823,89.635,42.703,175.197c7.737,25.013,12.994,49.33,24.048,72.953
			c5.526-18.064,10.776-36.128,15.75-54.193c13.355-86.224,35.996-181.917,36.475-193.956L810.566,460.155L810.566,460.155z"/>
	</g>
</g>
<g id="layer6" inkscape:groupmode="layer" inkscape:label="謘潭#3">
	<g id="text3000" transform="matrix(0.980749,0,0,1.0196289,26,38)">
		<path id="path3005" sodipodi:nodetypes="cccccccccc" inkscape:connector-curvature="0" d="M878.842,72.53
			c28.623,13.265,51.664,26.531,69.118,39.795c14.661,11.171,25.483,21.993,32.466,32.464c5.584,7.681,8.376,15.71,8.377,24.087
			c-0.001,21.644-7.332,32.465-21.993,32.464c-4.189,0.001-8.03-1.046-11.52-3.141c-3.491-2.792-6.982-8.378-10.472-16.756
			c-9.775-20.944-20.247-37.7-31.417-50.268c-11.171-13.962-26.88-27.925-47.126-41.89L878.842,72.53z"/>
	</g>
</g>
<g id="layer4" inkscape:groupmode="layer" inkscape:label="謘潭#1">
	<g id="text3096" transform="scale(1.0004162,0.99958398)">
		<path id="path3101" sodipodi:nodetypes="cccccccccccccccccc" inkscape:connector-curvature="0" d="M867.591,304.18l47.063-52.41
			c25.669,17.827,49.557,35.653,71.663,53.479c6.416,3.566,9.626,7.488,9.627,11.766c-0.001,10.696-4.637,16.044-13.904,16.044
			c-134.805,0-100.134,0-230.798,0c-49.915,0.714-98.136,2.14-116.674,4.279l-20.323-47.062
			c30.661,9.27,85.656,13.905,136.997,13.905C848.108,304.18,767.716,304.18,867.591,304.18L867.591,304.18z M625.32,140.532
			l-4.829-24.183C708.735,99.53,839.175,70.938,863.314,16.46c25.67,16.401,47.774,32.089,66.315,47.062
			c3.564,2.853,5.345,6.062,5.346,9.626c-0.001,8.558-4.279,12.836-12.833,12.835c-9.272,0-22.106-1.425-38.505-4.279
			c-34.228,9.984-69.525,18.897-105.89,26.74"/>
	</g>
</g>
</svg>
