<?xml version="1.0" encoding="utf-8"?>
<!-- Generator: Adobe Illustrator 16.0.3, SVG Export Plug-In . SVG Version: 6.00 Build 0)  -->
<!DOCTYPE svg PUBLIC "-//W3C//DTD SVG 1.1//EN" "http://www.w3.org/Graphics/SVG/1.1/DTD/svg11.dtd">
<svg version="1.1"
	 id="svg2985" sodipodi:docname="Z1185.svg" inkscape:version="0.48.2 r9819" xmlns:dc="http://purl.org/dc/elements/1.1/" xmlns:cc="http://creativecommons.org/ns#" xmlns:rdf="http://www.w3.org/1999/02/22-rdf-syntax-ns#" xmlns:svg="http://www.w3.org/2000/svg" xmlns:sodipodi="http://sodipodi.sourceforge.net/DTD/sodipodi-0.dtd" xmlns:inkscape="http://www.inkscape.org/namespaces/inkscape"
	 xmlns="http://www.w3.org/2000/svg" xmlns:xlink="http://www.w3.org/1999/xlink" x="0px" y="0px" width="1000px" height="1000px"
	 viewBox="0 0 1000 1000" enable-background="new 0 0 1000 1000" xml:space="preserve">
<sodipodi:namedview  inkscape:window-maximized="1" inkscape:current-layer="layer2" inkscape:window-y="-8" inkscape:guide-bbox="true" inkscape:pageopacity="0.0" inkscape:pageshadow="2" inkscape:window-width="1280" inkscape:window-height="974" inkscape:window-x="1272" inkscape:cy="942.07775" inkscape:cx="1275.5306" inkscape:zoom="0.1135" showguides="true" showgrid="false" id="base" pagecolor="#ffffff" bordercolor="#666666" borderopacity="1.0">
	<sodipodi:guide  position="200" orientation="horizontal" id="guide5596"></sodipodi:guide>
</sodipodi:namedview>
<g id="layer1" inkscape:groupmode="layer" inkscape:label="Layer 1">
	<g id="text2992" transform="scale(0.98423192,1.0160207)">
		
			<path id="path3005" sodipodi:nodetypes="ccccccccccccccccccccccccccccccccccsccccccccccccccccccccccccccccccccccccccccccccccccccsccccccccccccccccccsccccccccccscccccccc" inkscape:connector-curvature="0" d="
			M535.478,47.59c33.33,10.638,63.469,22.339,90.419,35.104c4.963,4.256,7.446,8.156,7.446,11.701
			c0,6.383-4.965,11.347-14.892,14.893c-16.312,4.965-31.204,7.447-44.678,7.446c-12.056,27.658-25.175,53.543-39.358,77.653
			c-14.893,26.24-31.204,52.833-48.933,79.781c-15.602,23.403-32.268,44.678-49.996,63.825
			c-15.602,18.439-36.522,38.296-62.761,59.57l-15.956-12.765c25.529-24.821,47.159-51.414,64.888-79.781
			c20.565-30.493,39.358-62.76,56.378-96.801c17.729-34.748,32.622-69.852,44.678-105.311
			C529.095,85.886,533.35,67.448,535.478,47.59L535.478,47.59z M667.382,35.889c20.565,3.547,47.159,6.029,79.781,7.446
			l38.295-42.55c21.982,14.184,41.485,29.431,58.506,45.741c4.255,2.837,6.382,6.028,6.383,9.574
			c-0.001,5.674-3.547,10.638-10.637,14.892c-7.802,5.674-15.602,9.575-23.402,11.701c7.8,26.949,19.147,53.897,34.04,80.845
			c14.183,25.53,29.784,48.933,46.804,70.207c17.019,21.985,35.103,40.777,54.251,56.378c17.019,16.311,38.294,29.076,63.825,38.295
			v22.339c-14.184,0-26.948,1.773-38.294,5.319c-14.894,7.092-24.467,15.247-28.721,24.466
			c-24.821-19.147-48.224-45.741-70.207-79.781c-19.858-33.33-38.65-70.206-56.379-110.629
			c-18.439-39.712-31.913-78.362-40.423-115.949c-53.897,0.001-86.518,1.419-97.864,4.255L667.382,35.889z M478.336,285.113
			c31.203,9.22,78.812,13.829,108.202,13.829h158.389l46.804-51.059c25.529,17.02,49.286,34.395,71.271,52.123
			c6.382,3.546,9.573,7.447,9.574,11.701c-0.001,10.638-4.611,15.957-13.828,15.956H640.216l-73.89,222.016h253.172l39.359-32.977
			c23.401,12.765,41.485,25.176,54.251,37.232c5.672,6.382,8.509,10.992,8.51,13.828c-0.001,8.51-14.185,18.084-42.55,28.721
			c-4.966,72.334-12.767,133.323-23.403,182.964c-11.347,51.06-22.694,88.645-34.04,112.757
			c-11.347,21.984-23.757,37.94-37.231,47.869c-14.894,11.347-30.85,21.274-47.869,29.785c-14.185,6.382-26.24,9.573-36.167,9.574
			c-0.001-13.475-2.838-23.757-8.51-30.849c-7.092-8.51-45.033-24.112-113.821-46.805l4.255-20.211
			c63.825,19.147,106.375,28.721,127.649,28.721c11.346,0,21.629-1.772,30.849-5.318c7.801-1.419,14.892-6.383,21.275-14.892
			c7.801-8.51,16.31-24.112,25.531-46.805c9.219-21.985,17.019-54.252,23.402-96.802c7.8-41.84,13.473-97.155,17.02-165.944H552.497
			c-2.127,2.128-3.9,3.546-5.318,4.255c-9.929,4.964-18.439,7.446-25.529,7.446c-13.475,0-20.212-2.836-20.211-8.51
			c-0.001-2.127,0.708-4.963,2.127-8.51c7.091-14.183,18.083-44.677,32.976-91.482l48.359-156.064
			c-16.404-1.459-68.625,2.128-84.227,4.255L478.336,285.113z M66.366,9.295l60.633,38.295h160.626l34.04-46.805
			c26.238,16.312,45.031,31.559,56.378,45.741c4.964,4.965,7.446,9.929,7.447,14.892c-0.001,6.383-13.829,17.375-41.486,32.976
			v795.682c-0.001,24.112-5.319,42.196-15.957,54.252c-7.801,11.346-19.502,20.565-35.103,27.656
			c-12.765,7.801-24.112,11.701-34.04,11.702c0-17.02-3.192-29.076-9.574-36.168c-6.383-8.51-17.02-15.956-31.912-22.339
			c-17.02-7.801-36.168-12.764-57.442-14.892v-24.466c39.712,10.638,75.525,15.956,107.438,15.956
			c11.346,0,18.792-1.772,22.339-5.318c4.255-3.546,6.382-13.12,6.382-28.721V510.32c-10.637,9.928-20.211,18.083-28.72,24.465
			c-17.02,13.475-33.331,25.53-48.933,36.168c-14.893,9.929-29.785,18.439-44.677,25.529c-7.801,22.694-13.829,34.041-18.084,34.041
			c-4.255,0-17.02-20.211-38.295-60.634c0,2.128,0,3.547,0,4.255c-2.127,46.096-6.382,93.256-12.765,141.479
			c-5.673,38.295-12.411,73.398-20.211,105.311c-7.801,30.494-17.729,59.215-29.784,86.164
			c-9.929,24.112-24.467,48.224-43.614,72.335l-11.701-8.51c9.22-21.275,17.375-44.323,24.467-69.144
			c7.801-22.693,14.183-46.096,19.147-70.207c4.964-27.657,9.574-59.924,13.829-96.801c4.255-42.55,7.446-86.164,9.574-130.84
			c3.545-58.861,5.318-125.168,5.318-198.921C71.684,240.484,69.911,108.579,66.366,9.295z M118.49,551.806
			c21.983-4.255,41.84-9.928,59.569-17.02c18.438-5.673,39.004-14.538,61.697-26.593c17.019-7.8,35.813-17.729,56.378-29.785
			v-91.483c-2.837,1.419-5.673,2.128-8.509,2.128c-2.838,0-8.156-2.481-15.957-7.446c-29.785-21.274-60.634-40.067-92.546-56.379
			c-20.565-9.928-39.359-17.729-56.378-23.402v103.183C122.744,457.488,121.325,506.42,118.49,551.806L118.49,551.806z
			 M122.744,275.232c31.203,2.837,57.797,7.447,79.781,13.829c29.784,7.092,51.768,14.893,65.952,23.402
			c13.473,7.801,22.693,17.02,27.657,27.657V78.439h-173.39V275.232z"/>
	</g>
</g>
<g id="layer2" inkscape:groupmode="layer" inkscape:label="惜">
	<g id="text2997" transform="matrix(0.97390068,0,0,1.0267987,0,-12)">
		<path id="path3002" sodipodi:nodetypes="cccccccccccc" inkscape:connector-curvature="0" d="M369.231,419.906
			c30.885,8.62,72.545,12.93,124.979,12.929h374.87l51.715-60.335c27.292,20.112,53.151,40.224,77.572,60.335
			c5.745,2.873,8.618,6.824,8.62,11.851c-0.001,12.211-5.389,18.317-16.161,18.316H648.782h-54.947h-99.627
			c-50.998,0.719-85.834,2.155-104.508,4.309L369.231,419.906z"/>
	</g>
</g>
</svg>
