<?xml version="1.0" encoding="utf-8"?>
<!-- Generator: Adobe Illustrator 16.0.3, SVG Export Plug-In . SVG Version: 6.00 Build 0)  -->
<!DOCTYPE svg PUBLIC "-//W3C//DTD SVG 1.1//EN" "http://www.w3.org/Graphics/SVG/1.1/DTD/svg11.dtd">
<svg version="1.1"
	 id="svg2985" sodipodi:docname="喲2" inkscape:version="0.48.2 r9819" xmlns:dc="http://purl.org/dc/elements/1.1/" xmlns:cc="http://creativecommons.org/ns#" xmlns:rdf="http://www.w3.org/1999/02/22-rdf-syntax-ns#" xmlns:svg="http://www.w3.org/2000/svg" xmlns:sodipodi="http://sodipodi.sourceforge.net/DTD/sodipodi-0.dtd" xmlns:inkscape="http://www.inkscape.org/namespaces/inkscape"
	 xmlns="http://www.w3.org/2000/svg" xmlns:xlink="http://www.w3.org/1999/xlink" x="0px" y="0px" width="1000px" height="1000px"
	 viewBox="0 0 1000 1000" enable-background="new 0 0 1000 1000" xml:space="preserve">
<sodipodi:namedview  inkscape:window-maximized="1" inkscape:current-layer="layer1" inkscape:window-y="-8" inkscape:guide-bbox="true" inkscape:pageopacity="0.0" inkscape:pageshadow="2" inkscape:window-width="1280" inkscape:window-height="974" inkscape:window-x="1272" inkscape:cy="484.5815" inkscape:cx="548.0064" inkscape:zoom="0.65661852" showguides="true" showgrid="false" id="base" pagecolor="#ffffff" bordercolor="#666666" borderopacity="1.0">
	<sodipodi:guide  position="200" orientation="horizontal" id="guide5596"></sodipodi:guide>
</sodipodi:namedview>
<g id="layer1" inkscape:groupmode="layer" inkscape:label="Layer 1">
	<g id="text2992" transform="matrix(0.99628688,0,0,1.003727,0,-44)">
		<path id="path3020" sodipodi:nodetypes="cccccccccccccccccccccccccc" inkscape:connector-curvature="0" d="M165.866,45.191
			l63.617,33.929c182.014,0,364.026,0,546.041,0l30.748-33.929c36.757,21.913,55.133,37.464,55.134,46.652
			c-0.001,7.069-10.25,16.965-30.748,29.688v407.602c-0.001,13.429-10.957,21.912-32.868,25.446
			c-12.018,0-18.026-2.473-18.025-7.422V516.41H216.759v18.025c0,6.362-4.594,11.31-13.785,14.844
			c-10.603,3.535-18.732,5.302-24.385,5.302c-8.482,0-12.723-3.888-12.723-11.664V45.191z M216.759,487.783h563.006V311.211H216.759
			V487.783z M216.759,282.584h563.006V107.748H216.759V282.584z"/>
	</g>
</g>
<g id="layer2" inkscape:groupmode="layer" inkscape:label="謘潭">
	<g id="text3025" transform="scale(0.98670339,1.0134758)">
		<path id="path3030" sodipodi:nodetypes="csccccccccccccccccccccccccccccsccccccccccccccc" inkscape:connector-curvature="0" d="
			M-0.277,634.398c30.145,7.711,70.452,11.567,120.928,11.567h198.741c-0.701-63.794-3.506-116.721-8.413-158.784
			c33.65,4.207,62.392,10.166,86.228,17.876c9.814,2.103,14.721,7.011,14.721,14.723c0,5.608-4.907,11.216-14.721,16.824
			c-9.815,4.909-18.927,9.115-27.34,12.619v96.742h260.784v-70.454c-0.001-37.855-1.402-65.896-4.205-84.123
			c33.649,4.908,61.688,12.268,84.122,22.082c8.413,3.505,12.618,8.763,12.619,15.773c-0.001,6.31-3.507,10.516-10.516,12.619
			c-9.815,6.31-20.331,10.165-31.546,11.567v92.536h187.315l54.679-62.041c28.041,21.031,54.33,41.361,78.866,60.99
			c6.308,4.206,9.464,9.115,9.465,14.722c-0.001,11.217-5.61,16.825-16.824,16.825H681.128v288.124
			c-0.001,14.721-10.165,22.081-30.494,22.081c-16.126,0-24.187-8.763-24.186-26.287c-0.001-8.413,0.7-19.279,2.103-32.6
			c1.401-14.722,2.101-27.34,2.102-37.854V676.46H369.869v7.361c-0.001,44.866-4.206,79.567-12.619,104.103
			c-7.712,25.939-18.578,49.423-32.599,70.454c-12.619,20.33-30.144,37.855-52.577,52.578c-27.34,20.331-54.68,35.754-82.02,46.268
			c-31.545,13.32-65.545,23.135-102.001,29.443l-13.67-17.875c51.177-13.32,89.382-27.342,114.619-42.062
			c24.536-13.32,45.568-29.093,63.094-47.319c15.423-14.721,28.743-33.299,39.959-55.732c9.112-16.825,15.772-37.856,19.98-63.093
			c4.907-24.536,7.361-50.122,7.361-76.761v-7.361H120.651c-49.072,0.701-82.722,1.753-100.95,3.155L-0.277,634.398z"/>
	</g>
</g>
</svg>
