<?xml version="1.0" encoding="utf-8"?>
<!-- Generator: Adobe Illustrator 14.0.0, SVG Export Plug-In . SVG Version: 6.00 Build 43363)  -->
<!DOCTYPE svg PUBLIC "-//W3C//DTD SVG 1.1//EN" "http://www.w3.org/Graphics/SVG/1.1/DTD/svg11.dtd">
<svg version="1.1"
	 id="svg2985" xmlns:dc="http://purl.org/dc/elements/1.1/" xmlns:sodipodi="http://sodipodi.sourceforge.net/DTD/sodipodi-0.dtd" xmlns:cc="http://creativecommons.org/ns#" xmlns:rdf="http://www.w3.org/1999/02/22-rdf-syntax-ns#" xmlns:inkscape="http://www.inkscape.org/namespaces/inkscape" xmlns:svg="http://www.w3.org/2000/svg" inkscape:version="0.48.2 r9819" sodipodi:docname="唳隞2"
	 xmlns="http://www.w3.org/2000/svg" xmlns:xlink="http://www.w3.org/1999/xlink" x="0px" y="0px" width="1000px" height="1000px"
	 viewBox="0 0 1000 1000" enable-background="new 0 0 1000 1000" xml:space="preserve">
<sodipodi:namedview  showgrid="false" showguides="true" pagecolor="#ffffff" bordercolor="#666666" borderopacity="1.0" inkscape:current-layer="layer1" inkscape:window-y="-8" inkscape:window-x="1272" inkscape:guide-bbox="true" inkscape:pageopacity="0.0" inkscape:pageshadow="2" inkscape:window-width="1280" inkscape:window-height="974" id="base" inkscape:cy="484.5815" inkscape:cx="548.0064" inkscape:zoom="0.65661852" inkscape:window-maximized="1">
	<sodipodi:guide  id="guide5596" position="200" orientation="horizontal"></sodipodi:guide>
</sodipodi:namedview>
<g id="layer1" inkscape:groupmode="layer" inkscape:label="Layer 1">
	<g id="text2992" transform="matrix(0.99628688,0,0,1.003727,0,-44)">
		<path id="path3020" sodipodi:nodetypes="cccccccccccccccccccccccccc" inkscape:connector-curvature="0" d="M165.866,45.191
			l63.617,33.929c182.014,0,364.027,0,546.042,0l30.748-33.929c36.756,21.913,55.133,37.464,55.134,46.652
			c-0.001,7.069-10.25,16.965-30.748,29.688v407.602c-0.001,13.43-10.957,21.913-32.868,25.447c-12.018,0-18.026-2.474-18.025-7.423
			V516.41H216.759v18.025c0,6.362-4.594,11.31-13.784,14.844c-10.603,3.535-18.732,5.302-24.386,5.302
			c-8.482,0-12.723-3.888-12.723-11.664V45.191z M216.759,487.783h563.007V311.211H216.759V487.783z M216.759,282.584h563.007
			V107.748H216.759V282.584z"/>
	</g>
</g>
<g id="layer2" inkscape:groupmode="layer" inkscape:label="惜">
	<g id="text3025" transform="scale(0.98670339,1.0134758)">
		<path id="path3030" sodipodi:nodetypes="csccccccccccccccccccccccccccccsccccccccccccccc" inkscape:connector-curvature="0" d="
			M-0.277,634.398c30.145,7.711,70.453,11.567,120.928,11.567h198.742c-0.701-63.794-3.506-116.721-8.413-158.784
			c33.65,4.207,62.392,10.166,86.228,17.876c9.814,2.103,14.721,7.011,14.721,14.723c0,5.608-4.907,11.216-14.721,16.824
			c-9.815,4.908-18.928,9.115-27.34,12.619v96.742h260.784v-70.454c-0.001-37.855-1.403-65.896-4.206-84.123
			c33.649,4.908,61.689,12.268,84.123,22.082c8.412,3.505,12.618,8.763,12.619,15.773c-0.001,6.31-3.507,10.516-10.516,12.619
			c-9.815,6.31-20.331,10.165-31.546,11.567v92.536H868.44l54.68-62.041c28.04,21.031,54.329,41.361,78.866,60.99
			c6.308,4.206,9.463,9.114,9.464,14.722c-0.001,11.217-5.609,16.825-16.824,16.825H681.127v288.124
			c-0.001,14.721-10.165,22.082-30.494,22.082c-16.125,0-24.187-8.763-24.186-26.288c-0.001-8.413,0.7-19.279,2.103-32.599
			c1.401-14.722,2.102-27.34,2.103-37.855V676.46H369.869v7.361c-0.001,44.866-4.207,79.567-12.619,104.103
			c-7.712,25.939-18.578,49.423-32.599,70.454c-12.619,20.33-30.144,37.855-52.577,52.578c-27.34,20.33-54.68,35.753-82.02,46.268
			c-31.546,13.32-65.546,23.134-102.001,29.443l-13.67-17.876c51.176-13.32,89.382-27.341,114.619-42.062
			c24.536-13.32,45.567-29.093,63.093-47.319c15.423-14.722,28.743-33.299,39.959-55.732c9.113-16.825,15.773-37.856,19.98-63.093
			c4.907-24.536,7.361-50.123,7.361-76.762v-7.361H120.651c-49.072,0.701-82.722,1.753-100.949,3.155L-0.277,634.398z"/>
	</g>
</g>
</svg>
