<?xml version="1.0" encoding="UTF-8" standalone="no"?>
<!-- Created with Inkscape (http://www.inkscape.org/) -->

<svg
   xmlns:dc="http://purl.org/dc/elements/1.1/"
   xmlns:cc="http://creativecommons.org/ns#"
   xmlns:rdf="http://www.w3.org/1999/02/22-rdf-syntax-ns#"
   xmlns:svg="http://www.w3.org/2000/svg"
   xmlns="http://www.w3.org/2000/svg"
   xmlns:sodipodi="http://sodipodi.sourceforge.net/DTD/sodipodi-0.dtd"
   xmlns:inkscape="http://www.inkscape.org/namespaces/inkscape"
   width="1000"
   height="1000"
   id="svg2985"
   version="1.1"
   inkscape:version="0.48.2 r9819"
   sodipodi:docname="Z1185.svg">
  <defs
     id="defs5498" />
  <sodipodi:namedview
     inkscape:window-height="974"
     inkscape:window-width="1280"
     inkscape:pageshadow="2"
     inkscape:pageopacity="0.0"
     borderopacity="1.0"
     bordercolor="#666666"
     pagecolor="#ffffff"
     id="base"
     showgrid="false"
     showguides="true"
     inkscape:guide-bbox="true"
     inkscape:zoom="0.1135"
     inkscape:cx="1275.5306"
     inkscape:cy="942.07775"
     inkscape:window-x="1272"
     inkscape:window-y="-8"
     inkscape:current-layer="layer2"
     inkscape:window-maximized="1">
    <sodipodi:guide
       orientation="horizontal"
       position="200"
       id="guide5596" />
  </sodipodi:namedview>
  <metadata
     id="metadata5594">
    <rdf:RDF>
      <cc:Work
         rdf:about="">
        <dc:format>image/svg+xml</dc:format>
        <dc:type
           rdf:resource="http://purl.org/dc/dcmitype/StillImage" />
        <dc:title></dc:title>
      </cc:Work>
    </rdf:RDF>
  </metadata>
  <g
     inkscape:label="Layer 1"
     inkscape:groupmode="layer"
     id="layer1"
     style="display:inline">
    <g
       transform="scale(0.98423192,1.0160207)"
       style="font-size:1089.2767334px;font-style:normal;font-variant:normal;font-weight:normal;font-stretch:normal;text-align:start;line-height:125%;letter-spacing:0px;word-spacing:0px;writing-mode:lr-tb;text-anchor:start;fill:#000000;fill-opacity:1;stroke:none;font-family:PMingLiU;-inkscape-font-specification:PMingLiU"
       id="text2992">
      <path
         d="m 535.47801,47.590203 c 33.33012,10.638229 63.46958,22.339432 90.41848,35.103645 4.96347,4.255719 7.44555,8.15612 7.44622,11.701215 -6.7e-4,6.383197 -4.96482,11.347347 -14.89245,14.892457 -16.31143,4.96485 -31.20387,7.44693 -44.67737,7.44623 -12.0564,27.65809 -25.17593,53.54257 -39.35863,77.65351 -14.89302,26.23969 -31.20378,52.83333 -48.93235,79.78101 -15.60213,23.40295 -32.26748,44.67787 -49.9961,63.82481 -15.60208,18.43874 -36.52242,38.29533 -62.76106,59.56982 l -15.95621,-12.76496 c 25.5295,-24.8203 47.159,-51.41394 64.88856,-79.78101 20.56529,-30.49353 39.35813,-62.76048 56.37858,-96.80096 17.72858,-34.74842 32.62102,-69.85203 44.67737,-105.31093 6.38191,-17.019219 10.63689,-35.457478 12.76496,-55.314837 z m 131.9046,-11.701215 c 20.56504,3.546603 47.15869,6.028676 79.78101,7.446228 L 785.45851,0.78534377 C 807.44176,14.969438 826.94376,30.216461 843.96458,46.526457 c 4.2541,2.837427 6.38159,6.028664 6.38248,9.573721 -8.9e-4,5.674073 -3.54671,10.63822 -10.63746,14.892455 -7.80169,5.674059 -15.60249,9.57446 -23.40243,11.701215 7.79994,26.948962 19.14656,53.897192 34.03989,80.844762 14.18239,25.53055 29.78399,48.93296 46.80486,70.20729 17.019,21.98466 35.10267,40.7775 54.25109,56.37858 17.01894,16.31129 38.29385,29.07624 63.82479,38.29488 l 0,22.33868 c -14.1843,4.7e-4 -26.94926,1.77338 -38.29487,5.31874 -14.89346,7.0921 -24.46717,15.24748 -28.72116,24.46617 -24.82172,-19.14698 -48.22413,-45.74062 -70.20729,-79.78101 -19.85751,-33.33018 -38.65035,-70.2067 -56.37858,-110.62966 -18.43912,-39.71255 -31.91324,-78.36198 -40.42238,-115.948406 -53.89727,7.44e-4 -86.51881,1.419072 -97.86471,4.254987 z M 478.33581,285.11315 c 31.2027,9.21962 78.81177,13.82871 108.20205,13.82871 l 158.38905,0 46.80486,-51.05985 c 25.52904,17.02046 49.28603,34.39498 71.27104,52.1236 6.38154,3.54629 9.57278,7.44669 9.57372,11.70121 -9.4e-4,10.63792 -4.6105,15.95665 -13.82871,15.9562 l -218.53159,0 -73.88956,222.01568 253.17174,0 39.35863,-32.97615 c 23.4015,12.76525 41.48518,25.17561 54.25109,37.23113 5.67235,6.38274 8.50901,10.99231 8.50997,13.82871 -9.6e-4,8.51022 -14.18424,18.08393 -42.54987,28.72117 -4.96507,72.33493 -12.76587,133.32302 -23.40243,182.96445 -11.34752,51.05983 -22.69414,88.64552 -34.0399,112.75716 -11.34749,21.98401 -23.75785,37.94019 -37.23114,47.86861 -14.89327,11.3465 -30.84945,21.27479 -47.8686,29.78491 -14.18406,6.38232 -26.23985,9.57356 -36.1674,9.57372 -7.4e-4,-13.47427 -2.8374,-23.75715 -8.50997,-30.84866 -7.09237,-8.51009 -45.03264,-24.1117 -113.82091,-46.80486 l 4.25499,-20.21119 c 63.82412,19.14736 106.37395,28.72107 127.64962,28.72117 11.34586,-10e-5 21.62874,-1.773 30.84865,-5.31874 7.80002,-1.41841 14.89166,-6.38256 21.27494,-14.89245 7.8,-8.51004 16.30996,-24.11164 25.52992,-46.80486 9.2183,-21.98411 17.0191,-54.25106 23.40243,-96.80096 7.79995,-41.8406 13.47326,-97.15537 17.01995,-165.9445 l -275.51042,0 c -2.12809,2.12772 -3.901,3.54605 -5.31874,4.25498 -9.92888,4.96438 -18.43885,7.44646 -25.52992,7.44623 -13.47468,2.3e-4 -20.21173,-2.83643 -20.21119,-8.50997 -5.4e-4,-2.12726 0.70862,-4.96392 2.12749,-8.50998 7.0911,-14.18303 18.08313,-44.67708 32.97616,-91.48222 L 584.9014,327.66302 c -16.40444,-1.45829 -68.62583,2.12794 -84.22691,4.25499 z M 66.365665,9.2953182 126.99923,47.590203 l 160.62577,0 34.0399,-46.80485923 C 347.9036,17.09693 366.69644,32.343952 378.04348,46.526457 c 4.96373,4.964919 7.4458,9.929066 7.44623,14.892455 -4.3e-4,6.383232 -13.82913,17.375271 -41.48613,32.976151 l 0,795.682617 c -3.8e-4,24.1115 -5.31911,42.19517 -15.9562,54.25108 -7.80117,11.3465 -19.50238,20.56563 -35.10364,27.65742 -12.76529,7.80065 -24.11191,11.70105 -34.0399,11.70122 -3e-4,-17.0201 -3.19154,-29.07589 -9.57372,-36.1674 -6.38277,-8.51009 -17.02023,-15.95631 -31.91241,-22.33868 -17.02019,-7.80091 -36.16761,-12.76505 -57.44233,-14.89245 l 0,-24.46618 c 39.71298,10.63739 75.52575,15.95612 107.43843,15.9562 11.34631,-8e-5 18.79253,-1.77299 22.33869,-5.31873 4.25465,-3.5459 6.38214,-13.11961 6.38248,-28.72117 l 0,-357.41892 c -10.6378,9.9286 -20.21151,18.08398 -28.72117,24.46617 -17.02024,13.4744 -33.33101,25.53018 -48.93235,36.16739 -14.8927,9.92855 -29.78514,18.43851 -44.67737,25.52993 -7.80102,22.69346 -13.82891,34.04008 -18.08369,34.0399 -4.25518,1.8e-4 -17.02013,-20.21099 -38.29489,-60.63357 -1.6e-4,2.12774 -1.6e-4,3.54607 0,4.25498 -2.12765,46.0959 -6.38263,93.25529 -12.76496,141.47833 -5.673458,38.29495 -12.410515,73.39856 -20.211189,105.31093 -7.80093,30.49405 -17.729224,59.21518 -29.784911,86.1635 -9.928391,24.11148 -24.46625,48.22305 -43.613619,72.33478 L -0.65038395,970.92243 C 8.5687033,949.64737 16.724087,926.59954 23.815793,901.77889 c 7.800735,-22.69332 14.183209,-46.09573 19.147442,-70.20729 4.964061,-27.6574 9.573626,-59.92435 13.828709,-96.80096 4.254883,-42.54974 7.44612,-86.16332 9.573721,-130.84085 3.54571,-58.86039 5.318619,-125.16721 5.318734,-198.92066 C 71.684284,240.48354 69.911375,108.57906 66.365665,9.2953182 z M 118.48926,551.80619 c 21.98392,-4.25471 41.8405,-9.92803 59.56982,-17.01995 18.43804,-5.67302 39.00379,-14.53757 61.69732,-26.59367 17.01964,-7.80049 35.81249,-17.72878 56.37858,-29.78491 l 0,-91.48222 c -2.837,1.41876 -5.67365,2.12792 -8.50998,2.12749 -2.83698,4.3e-4 -8.15571,-2.48164 -15.9562,-7.44623 -29.7852,-21.27448 -60.63382,-40.06732 -92.54597,-56.37858 -20.56598,-9.9278 -39.35882,-17.7286 -56.37858,-23.40243 l 0,103.18344 c -1.7e-4,52.47854 -1.4185,101.41084 -4.25499,146.79706 z m 4.25499,-276.57417 c 31.20304,2.8372 57.79668,7.44676 79.78101,13.82871 29.78463,7.09217 51.76871,14.89297 65.9523,23.40243 13.4738,7.80131 22.69293,17.02044 27.65742,27.65742 l 0,-261.681719 -173.39073,0 z"
         id="path3005"
         inkscape:connector-curvature="0"
         sodipodi:nodetypes="ccccccccccccccccccccccccccccccccccsccccccccccccccccccccccccccccccccccccccccccccccccccsccccccccccccccccccsccccccccccscccccccc" />
    </g>
  </g>
  <g
     inkscape:groupmode="layer"
     id="layer2"
     inkscape:label="圖層"
     style="display:inline">
    <g
       transform="matrix(0.97390068,0,0,1.0267987,0,-12)"
       style="font-size:1103.25695801px;font-style:normal;font-variant:normal;font-weight:normal;font-stretch:normal;text-align:start;line-height:125%;letter-spacing:0px;word-spacing:0px;writing-mode:lr-tb;text-anchor:start;fill:#000000;fill-opacity:1;stroke:none;font-family:PMingLiU;-inkscape-font-specification:PMingLiU"
       id="text2997">
      <path
         d="m 369.23099,419.90611 c 30.88505,8.61995 72.54445,12.92954 124.97832,12.9288 l 374.86959,0 51.71517,-60.33437 c 27.29316,20.11224 53.15072,40.22368 77.57274,60.33437 5.74509,2.8738 8.61819,6.82426 8.61919,11.85139 -10e-4,12.21125 -5.388,18.3165 -16.16099,18.31579 l -342.04158,0 -54.94737,0 -99.62675,0 c -50.99734,0.71898 -85.83321,2.15551 -104.50774,4.30959 z"
         id="path3002"
         inkscape:connector-curvature="0"
         sodipodi:nodetypes="cccccccccccc" />
    </g>
  </g>
</svg>
