<?xml version="1.0" encoding="utf-8"?>
<!-- Generator: Adobe Illustrator 14.0.0, SVG Export Plug-In . SVG Version: 6.00 Build 43363)  -->
<!DOCTYPE svg PUBLIC "-//W3C//DTD SVG 1.1//EN" "http://www.w3.org/Graphics/SVG/1.1/DTD/svg11.dtd">
<svg version="1.1"
	 id="svg2985" xmlns:dc="http://purl.org/dc/elements/1.1/" xmlns:sodipodi="http://sodipodi.sourceforge.net/DTD/sodipodi-0.dtd" xmlns:cc="http://creativecommons.org/ns#" xmlns:rdf="http://www.w3.org/1999/02/22-rdf-syntax-ns#" xmlns:inkscape="http://www.inkscape.org/namespaces/inkscape" xmlns:svg="http://www.w3.org/2000/svg" inkscape:version="0.48.2 r9819" sodipodi:docname="Z1182.svg"
	 xmlns="http://www.w3.org/2000/svg" xmlns:xlink="http://www.w3.org/1999/xlink" x="0px" y="0px" width="1000px" height="1000px"
	 viewBox="0 0 1000 1000" enable-background="new 0 0 1000 1000" xml:space="preserve">
<sodipodi:namedview  showgrid="false" showguides="true" pagecolor="#ffffff" bordercolor="#666666" borderopacity="1.0" inkscape:current-layer="layer1" inkscape:window-y="-8" inkscape:window-x="1272" inkscape:guide-bbox="true" inkscape:pageopacity="0.0" inkscape:pageshadow="2" inkscape:window-width="1280" inkscape:window-height="974" id="base" inkscape:cy="495.81159" inkscape:cx="445.22443" inkscape:zoom="0.64205296" inkscape:window-maximized="1">
	<sodipodi:guide  id="guide5596" position="200" orientation="horizontal"></sodipodi:guide>
</sodipodi:namedview>
<g id="layer1" inkscape:groupmode="layer" inkscape:label="Layer 1">
	<g id="text3021" transform="scale(1.0007769,0.99922367)">
		
			<path id="path3026" sodipodi:nodetypes="ccccccccccccccccccccsccccccccccccccccccccccccccccccccccccscccccccccccccccc" inkscape:connector-curvature="0" d="
			M552.908-0.677c66.2,14.393,99.3,27.705,99.3,39.936c0,7.916-18.709,13.313-56.126,16.19
			c-17.99,32.382-39.937,64.042-65.84,94.983h298.982l35.619-47.491c25.903,16.55,44.612,32.021,56.126,46.412
			c5.036,5.038,7.554,10.075,7.556,15.111c-0.002,6.477-12.954,17.63-38.857,33.46v208.315
			c-0.001,53.248,1.078,88.147,3.239,104.697c1.437,20.868,2.157,37.418,2.158,49.65c-0.001,10.795-3.959,19.07-11.873,24.826
			c-9.356,4.318-16.912,6.476-22.667,6.476c-15.111,0-22.667-4.317-22.666-12.952v-47.491h-86.349v375.615
			c-0.001,9.354,2.159,17.269,6.476,23.746c2.878,7.195,8.994,12.232,18.349,15.11c10.792,2.878,32.38,4.318,64.761,4.318
			c23.745,0,42.277-1.44,63.145-4.318c7.195-0.719,12.592-4.677,16.191-11.872c4.316-5.037,7.555-14.031,9.714-26.984
			c4.316-18.709,8.634-61.883,12.952-129.522l16.191,4.318V888.71c-0.001,12.952,2.157,22.667,6.476,29.143
			c5.755,8.635,14.03,15.471,24.825,20.508c5.755,3.598,8.634,8.994,8.635,16.19c-0.001,2.158-1.44,5.756-4.318,10.794
			c-3.599,6.476-10.794,11.872-21.587,16.19c-11.515,5.756-28.784,9.354-51.809,10.794c-25.906,3.598-44.437,5.397-63.145,5.397
			c-39.578,0-68-1.44-85.269-4.318c-18.71-0.719-32.741-4.318-42.095-10.794c-10.794-4.318-19.069-11.153-24.825-20.508
			c-4.318-10.073-6.476-18.709-6.475-25.904V531.445H590.685c-5.038,43.174-11.874,82.03-20.508,116.57
			c-7.917,39.577-20.508,75.195-37.778,106.856c-16.551,36.697-34.9,68.359-55.047,94.983
			c-20.868,27.344-46.412,52.528-76.634,75.555c-31.661,25.185-70.158,47.851-115.49,67.999l-16.191-22.666
			c45.332-25.905,81.311-51.45,107.936-76.635c26.623-24.465,48.93-50.01,66.92-76.634c16.55-25.186,31.301-51.449,44.254-78.794
			c12.232-28.782,22.666-62.243,31.301-100.38c6.475-29.502,11.513-65.121,15.111-106.856h-88.507v56.127
			c0,7.916-7.556,11.873-22.666,11.873c-5.757,0-19.308-1.799-28.662-5.397c-7.196-5.756-10.793-14.031-10.793-24.826
			c0-12.232,0.719-28.782,2.158-49.65c4.317-16.55,6.475-51.809,6.476-105.776V177.416c-0.001-28.062-2.879-52.888-8.635-74.475
			l70.757,47.491h48.571c15.11-20.867,26.264-42.094,33.46-63.682C543.912,63.725,549.309,34.582,552.908-0.677L552.908-0.677z
			 M446.051,501.223h391.806V354.43H446.051V501.223z M446.051,323.129h391.806V181.734H446.051V323.129z"/>
	</g>
</g>
<g id="layer2" inkscape:groupmode="layer" inkscape:label="惜">
	<g id="text3014" transform="scale(0.98613427,1.0140607)">
		<path id="path3019" sodipodi:nodetypes="ccccccccsccccccscccsscsscccccccsc" inkscape:connector-curvature="0" d="M138.232,4.25
			c41.576,5.735,75.626,13.62,102.15,23.656c10.036,3.585,15.053,8.603,15.053,15.053c0,7.169-5.018,11.829-15.053,13.978
			c-13.62,7.169-28.674,11.471-45.161,12.904v665.585h83.87c0.717-7.885,1.075-14.695,1.075-20.43V258.011
			c0-37.992-1.434-66.666-4.301-86.02c35.125,5.018,64.156,12.904,87.095,23.656c7.886,4.301,11.828,9.678,11.828,16.129
			c0,5.735-3.226,10.036-9.677,12.903c-9.32,7.169-20.072,11.47-32.258,12.903v554.833c0,13.62-10.036,20.431-30.107,20.431
			c-17.921,0-26.882-8.244-26.882-24.731c0-7.169,0.358-14.695,1.075-22.58H46.835c-4.301,2.867-10.753,4.301-19.354,4.301
			c-17.921,0-26.882-8.243-26.882-24.731c0-9.319,0.717-20.788,2.15-34.408C4.183,695.641,4.9,682.38,4.9,670.91V258.011
			c0-37.992-1.434-66.666-4.301-86.02c35.125,5.018,64.157,12.904,87.095,23.656c7.886,4.301,11.828,9.678,11.828,16.129
			c0,5.735-3.225,10.036-9.677,12.903c-9.319,7.169-20.071,11.47-32.258,12.903v497.845h84.945V90.271
			C142.533,52.279,141.099,23.606,138.232,4.25L138.232,4.25z"/>
	</g>
</g>
</svg>
