<?xml version="1.0" encoding="utf-8"?>
<!-- Generator: Adobe Illustrator 14.0.0, SVG Export Plug-In . SVG Version: 6.00 Build 43363)  -->
<!DOCTYPE svg PUBLIC "-//W3C//DTD SVG 1.1//EN" "http://www.w3.org/Graphics/SVG/1.1/DTD/svg11.dtd">
<svg version="1.1"
	 id="svg2985" xmlns:dc="http://purl.org/dc/elements/1.1/" xmlns:sodipodi="http://sodipodi.sourceforge.net/DTD/sodipodi-0.dtd" xmlns:cc="http://creativecommons.org/ns#" xmlns:rdf="http://www.w3.org/1999/02/22-rdf-syntax-ns#" xmlns:inkscape="http://www.inkscape.org/namespaces/inkscape" xmlns:svg="http://www.w3.org/2000/svg" inkscape:version="0.48.2 r9819" sodipodi:docname="Z1199.svg"
	 xmlns="http://www.w3.org/2000/svg" xmlns:xlink="http://www.w3.org/1999/xlink" x="0px" y="0px" width="1000px" height="1000px"
	 viewBox="0 0 1000 1000" enable-background="new 0 0 1000 1000" xml:space="preserve">
<sodipodi:namedview  showgrid="false" showguides="true" pagecolor="#ffffff" bordercolor="#666666" borderopacity="1.0" inkscape:current-layer="layer1" inkscape:window-y="-8" inkscape:window-x="1272" inkscape:guide-bbox="true" inkscape:pageopacity="0.0" inkscape:pageshadow="2" inkscape:window-width="1280" inkscape:window-height="974" id="base" inkscape:cy="510.2093" inkscape:cx="434.43745" inkscape:zoom="0.454" inkscape:window-maximized="1">
	<sodipodi:guide  id="guide5596" position="200" orientation="horizontal"></sodipodi:guide>
</sodipodi:namedview>
<g id="layer1" inkscape:groupmode="layer" inkscape:label="Layer 1">
	<g id="text2988" transform="scale(0.99336812,1.0066762)">
	</g>
	<g id="text3023" transform="scale(0.98925001,1.0108668)">
		
			<path id="path3028" sodipodi:nodetypes="cscccccsccccccccccccccccccccccccccsccccccccccccccccccscccccccccccscccccccccccccccccccccccccccccccccccccccccccccccccc" inkscape:connector-curvature="0" d="
			M-0.529,390.876c31.208,8.512,72.7,12.908,124.477,12.767h727.708l51.067-59.578c26.952,20.569,52.131,40.429,75.538,59.578
			c6.382,3.547,9.574,8.157,9.575,13.831c-0.001,11.348-6.03,17.023-18.086,17.022h-845.8c-50.359,0-84.758,1.065-103.198,3.192
			L-0.529,390.876z M829.314,495.194c26.951,19.859,52.484,39.364,76.601,58.515c5.672,3.546,8.509,7.802,8.51,12.767
			c-0.001,12.057-5.32,18.087-15.958,18.087h-324.49c24.823,35.463,51.776,66.671,80.857,93.623
			c32.625,31.208,69.508,61.352,110.646,90.431c41.137,27.661,82.628,51.067,124.477,70.217
			c40.427,17.731,78.373,30.499,113.837,38.301v18.086c-37.592,0-63.126,10.994-76.601,32.981
			c-40.429-16.314-76.956-36.173-109.581-59.579c-36.883-24.824-68.446-51.067-94.688-78.728
			c-30.499-24.824-59.933-53.194-88.304-85.111c-27.662-29.081-56.387-66.316-86.175-111.71v306.403
			c-0.001,24.115-4.965,42.202-14.894,54.259c-9.221,11.348-21.634,20.568-37.237,27.661c-14.186,7.802-26.597,11.703-37.236,11.703
			l-1.064-15.958c-2.128-9.22-4.965-15.958-8.51-20.214c-7.803-8.511-21.634-15.958-41.492-22.342
			c-21.279-7.802-45.394-12.767-72.346-14.894v-24.47c42.556,10.639,81.211,15.958,115.965,15.958
			c18.44,0,30.498-2.127,36.173-6.383c7.092-4.255,10.638-14.895,10.639-31.917V584.562h-7.447
			c-23.406,35.463-48.94,66.671-76.601,93.623c-32.627,34.044-69.154,65.606-109.582,94.687
			c-35.463,26.952-75.891,53.55-121.284,79.792c-45.393,24.825-101.07,51.777-167.032,80.857L3.727,911.179
			c65.252-30.499,120.221-60.288,164.905-89.368c44.683-26.243,84.757-55.678,120.221-88.304
			c33.335-26.952,62.415-55.677,87.24-86.176c19.859-21.987,35.462-42.911,46.812-62.77H194.165
			c-5.674,4.965-13.476,11.404-23.405,11.404c-17.733,0-26.598-9.276-26.597-19.915c-0.001-9.93,0.709-21.988,2.127-36.173
			c1.419-15.603,2.127-29.079,2.127-40.428v10.098c0,34.044-1.419-35.836-4.255-52.859c33.335,6.384,60.641,12.413,81.92,18.087
			c7.802,3.546,11.703,7.447,11.703,11.703c0,4.256-2.837,7.447-8.511,9.575c-8.511,4.966-16.419,9.221-27.767,12.768
			c-1.529,24.02,0.033,21.501,1.276,44.888c191.147,0,384.316,0,575.464,0L829.314,495.194z M7.983,102.615
			c31.208,9.221,72.699,13.831,124.477,13.831h131.923V82.401c0-34.753-1.419-60.641-4.256-77.665
			c32.626,5.675,59.932,11.349,81.921,17.023c7.802,4.256,11.702,8.867,11.703,13.831c-0.001,3.547-3.193,6.384-9.576,8.512
			c-9.221,4.966-18.796,8.867-28.725,11.703v60.642h72.345l41.492-42.556c21.986,14.895,42.555,29.79,61.706,44.684
			c4.965,2.838,7.446,6.384,7.447,10.639c-0.001,10.64-4.257,15.959-12.767,15.958H315.45v12.767
			c-0.001,16.314,0.353,27.307,1.063,32.981c1.419,12.768,2.127,23.406,2.128,31.917c-0.001,22.697-11.349,34.046-34.045,34.045
			c-16.313,0-24.47-6.028-24.47-18.087c0-9.22,0.709-21.277,2.128-36.172c1.418-14.894,2.127-28.015,2.127-39.364v-18.087H132.459
			c-50.359,0.71-84.403,2.129-102.135,4.256L7.983,102.615z M552.7,102.615c31.207,9.221,72.698,13.831,124.476,13.831h7.447V78.145
			c0-34.753-1.419-60.641-4.256-77.665c33.335,5.675,60.997,11.704,82.985,18.087c7.092,3.547,10.638,7.802,10.639,12.767
			c-0.001,3.547-2.838,6.384-8.511,8.511c-8.511,4.966-18.441,8.867-29.789,11.703v64.898h142.242l52.132-56.387
			c24.823,19.86,48.584,38.656,71.281,56.387c5.673,3.547,8.51,7.802,8.511,12.767c0,10.64-4.257,15.959-12.767,15.958H735.69v8.512
			c-0.001,17.023,0.709,28.016,2.127,32.981c1.419,12.768,2.127,23.406,2.128,31.917c-0.001,22.697-10.994,34.046-32.981,34.045
			c-17.733,0-26.598-6.028-26.598-18.087c0-9.22,0.709-21.277,2.128-36.172c1.418-14.894,2.127-28.37,2.127-40.428v-12.767h-7.447
			c-50.359,0.71-84.403,2.129-102.134,4.256L552.7,102.615z"/>
	</g>
	<path id="path3804" sodipodi:nodetypes="cscccccccc" inkscape:connector-curvature="0" d="M174.228,287.751
		c30.903,8.498,71.991,12.746,123.263,12.746h438.269l46.354-50.982c25.284,18.411,48.813,35.759,70.587,52.044
		c5.618,4.249,8.428,8.498,8.429,12.746c-0.001,10.622-4.216,15.933-12.643,15.932H297.49c-49.867,0.708-83.58,2.125-101.139,4.249
		L174.228,287.751z"/>
</g>
</svg>
