<?xml version="1.0" encoding="utf-8"?>
<!-- Generator: Adobe Illustrator 16.0.3, SVG Export Plug-In . SVG Version: 6.00 Build 0)  -->
<!DOCTYPE svg PUBLIC "-//W3C//DTD SVG 1.1//EN" "http://www.w3.org/Graphics/SVG/1.1/DTD/svg11.dtd">
<svg version="1.1"
	 id="svg2985" sodipodi:docname="Z1197.svg" inkscape:version="0.48.2 r9819" xmlns:dc="http://purl.org/dc/elements/1.1/" xmlns:cc="http://creativecommons.org/ns#" xmlns:rdf="http://www.w3.org/1999/02/22-rdf-syntax-ns#" xmlns:svg="http://www.w3.org/2000/svg" xmlns:sodipodi="http://sodipodi.sourceforge.net/DTD/sodipodi-0.dtd" xmlns:inkscape="http://www.inkscape.org/namespaces/inkscape"
	 xmlns="http://www.w3.org/2000/svg" xmlns:xlink="http://www.w3.org/1999/xlink" x="0px" y="0px" width="1000px" height="1000px"
	 viewBox="0 0 1000 1000" enable-background="new 0 0 1000 1000" xml:space="preserve">
<sodipodi:namedview  inkscape:window-maximized="1" inkscape:current-layer="layer1" inkscape:window-y="-8" inkscape:guide-bbox="true" inkscape:pageopacity="0.0" inkscape:pageshadow="2" inkscape:window-width="1280" inkscape:window-height="974" inkscape:window-x="1272" inkscape:cy="500" inkscape:cx="246.69604" inkscape:zoom="0.454" showguides="true" showgrid="false" id="base" pagecolor="#ffffff" bordercolor="#666666" borderopacity="1.0">
	<sodipodi:guide  position="200" orientation="horizontal" id="guide5596"></sodipodi:guide>
</sodipodi:namedview>
<g id="layer1" inkscape:groupmode="layer" inkscape:label="Layer 1">
	<g id="text3028" transform="scale(0.98314936,1.0171395)">
		<path id="path3041" sodipodi:nodetypes="ccccsccccccccccccccccccccccccccc" inkscape:connector-curvature="0" d="M288.26,561.25
			H121.766c-49.805,0.712-83.958,2.135-102.457,4.271l-20.278-46.96c30.596,8.537,71.508,12.808,122.735,12.807h744.99l54.43-64.035
			c29.881,20.634,57.987,41.624,84.314,62.969c6.402,3.557,9.603,7.828,9.604,12.808c-0.001,12.094-5.337,18.144-16.009,18.143
			H729.039v327.651c0,15.653,0.711,26.325,2.135,32.018c1.422,12.807,2.136,23.124,2.136,30.951
			c0,23.479-11.742,35.221-35.219,35.221c-16.366,0-24.546-5.693-24.546-17.076c0-15.654,0.71-35.22,2.135-58.7
			c1.422-24.902,2.135-46.604,2.135-65.103V561.253H339.489c-0.711,63.325-4.269,113.129-10.673,149.417
			c-7.115,38.422-18.856,71.507-35.218,99.255c-16.365,29.884-35.22,55.143-56.565,75.776
			c-25.614,23.478-50.874,43.045-75.776,58.699c-25.614,15.654-55.853,29.882-90.717,42.691l-12.808-17.076
			c29.171-14.231,54.43-27.749,75.776-40.556c19.21-13.519,37.354-28.105,54.43-43.758c15.653-17.788,31.307-37.355,46.959-58.7
			c12.808-17.789,23.48-39.133,32.018-64.035c7.115-24.192,12.451-51.941,16.009-83.247
			C286.481,651.256,288.259,611.769,288.26,561.25L288.26,561.25z"/>
	</g>
</g>
<g id="layer3" inkscape:groupmode="layer" inkscape:label="謘潭">
	<g id="text3033" transform="scale(0.98271107,1.0175931)">
		
			<path id="path3038" sodipodi:nodetypes="ccccccccccccccccccccccccccccccccccccccccccssccccccccc" inkscape:connector-curvature="0" d="
			M423.253,66.526c-38.598,20.352-81.056,35.791-127.371,46.317c-28.071,9.124-58.248,15.791-90.529,20.001l-1.053,2.106v112.635
			h161.058l46.316-46.317c22.458,16.843,43.51,32.984,63.159,48.423c5.615,3.51,8.421,7.369,8.422,11.579
			c-0.001,10.527-4.562,15.791-13.685,15.79H204.3v147.373h607.388V277.059H668.525c-56.143,0-90.178,1.404-102.108,4.211
			l-16.843-42.106c28.069,5.615,67.722,8.422,118.951,8.421h143.163V108.633H668.525c-56.143,0.001-90.178,1.404-102.108,4.211
			l-16.843-42.106c28.069,6.317,67.722,9.475,118.951,9.474h134.742l32.633-46.317c25.263,14.738,43.861,29.476,55.792,44.212
			c5.614,5.615,8.421,10.528,8.422,14.738c-0.001,6.317-12.633,17.545-37.896,33.685v176.848
			c-0.001,51.932,0.703,85.968,2.106,102.108c0.702,20.352,1.051,36.844,1.052,49.475c-0.001,9.125-3.51,16.843-10.527,23.159
			c-9.825,4.211-17.546,6.317-23.158,6.317c-13.335,0-20.002-4.561-20.001-13.685v-15.791H204.3v15.791
			c0,9.124-6.667,13.685-20,13.685c-6.316,0-14.385-2.106-24.212-6.317c-7.019-6.316-10.528-14.034-10.528-23.159
			c0-12.63,1.052-29.122,3.158-49.475c3.509-16.14,5.263-50.176,5.263-102.108V130.739c0-27.369-2.806-51.58-8.421-72.634
			l64.214,46.317c39.3-11.929,76.844-27.719,112.635-47.37c30.176-16.14,52.983-35.088,68.422-56.844
			c35.089,18.247,62.81,35.09,83.16,50.528c6.316,3.51,9.474,7.369,9.474,11.579c0,7.72-4.562,12.281-13.685,13.685
			c-3.51,0-9.825-1.754-18.949-5.263C447.114,67.93,436.586,66.527,423.253,66.526z"/>
	</g>
</g>
</svg>
