<?xml version="1.0" encoding="utf-8"?>
<!-- Generator: Adobe Illustrator 16.0.3, SVG Export Plug-In . SVG Version: 6.00 Build 0)  -->
<!DOCTYPE svg PUBLIC "-//W3C//DTD SVG 1.1//EN" "http://www.w3.org/Graphics/SVG/1.1/DTD/svg11.dtd">
<svg version="1.1"
	 id="svg2985" sodipodi:docname="Z1199.svg" inkscape:version="0.48.2 r9819" xmlns:dc="http://purl.org/dc/elements/1.1/" xmlns:cc="http://creativecommons.org/ns#" xmlns:rdf="http://www.w3.org/1999/02/22-rdf-syntax-ns#" xmlns:svg="http://www.w3.org/2000/svg" xmlns:sodipodi="http://sodipodi.sourceforge.net/DTD/sodipodi-0.dtd" xmlns:inkscape="http://www.inkscape.org/namespaces/inkscape"
	 xmlns="http://www.w3.org/2000/svg" xmlns:xlink="http://www.w3.org/1999/xlink" x="0px" y="0px" width="1000px" height="1000px"
	 viewBox="0 0 1000 1000" enable-background="new 0 0 1000 1000" xml:space="preserve">
<sodipodi:namedview  inkscape:window-maximized="1" inkscape:current-layer="layer1" inkscape:window-y="-8" inkscape:guide-bbox="true" inkscape:pageopacity="0.0" inkscape:pageshadow="2" inkscape:window-width="1280" inkscape:window-height="974" inkscape:window-x="1272" inkscape:cy="510.2093" inkscape:cx="434.43745" inkscape:zoom="0.454" showguides="true" showgrid="false" id="base" pagecolor="#ffffff" bordercolor="#666666" borderopacity="1.0">
	<sodipodi:guide  position="200" orientation="horizontal" id="guide5596"></sodipodi:guide>
</sodipodi:namedview>
<g id="layer1" inkscape:groupmode="layer" inkscape:label="Layer 1">
	<g id="text2988" transform="scale(0.99336812,1.0066762)">
	</g>
	<g id="text3023" transform="scale(0.98925001,1.0108668)">
		
			<path id="path3028" sodipodi:nodetypes="cscccccsccccccccccccccccccccccccccsccccccccccccccccccscccccccccccscccccccccccccccccccccccccccccccccccccccccccccccccc" inkscape:connector-curvature="0" d="
			M-0.529,390.876c31.208,8.512,72.699,12.908,124.477,12.767h727.708l51.068-59.578c26.952,20.569,52.131,40.429,75.538,59.578
			c6.382,3.547,9.574,8.157,9.576,13.831c-0.001,11.347-6.031,17.023-18.086,17.022h-845.8c-50.359,0-84.758,1.065-103.198,3.192
			L-0.529,390.876z M829.314,495.194c26.951,19.859,52.484,39.364,76.601,58.514c5.672,3.547,8.509,7.803,8.51,12.768
			c-0.001,12.057-5.32,18.087-15.959,18.087H573.977c24.823,35.463,51.775,66.671,80.857,93.623
			c32.625,31.208,69.508,61.352,110.646,90.431c41.137,27.66,82.628,51.066,124.477,70.216
			c40.427,17.731,78.373,30.499,113.837,38.302v18.086c-37.593,0-63.126,10.994-76.601,32.98
			c-40.43-16.314-76.956-36.172-109.581-59.578c-36.883-24.824-68.446-51.067-94.688-78.728
			c-30.5-24.824-59.933-53.193-88.305-85.111c-27.662-29.08-56.386-66.315-86.174-111.71v306.403
			c-0.001,24.116-4.965,42.203-14.895,54.259c-9.22,11.348-21.634,20.568-37.236,27.661c-14.187,7.802-26.597,11.703-37.236,11.703
			l-1.064-15.957c-2.128-9.22-4.965-15.958-8.509-20.215c-7.804-8.51-21.635-15.957-41.493-22.341
			c-21.279-7.802-45.393-12.768-72.346-14.894v-24.47c42.556,10.639,81.212,15.958,115.965,15.958
			c18.44,0,30.498-2.127,36.173-6.384c7.092-4.255,10.638-14.895,10.639-31.917V584.562h-7.446
			c-23.407,35.463-48.94,66.671-76.602,93.623c-32.627,34.044-69.154,65.606-109.581,94.687
			c-35.463,26.952-75.891,53.55-121.284,79.792c-45.393,24.825-101.07,51.777-167.032,80.857l-12.77-22.342
			c65.252-30.499,120.221-60.287,164.906-89.368c44.682-26.243,84.757-55.678,120.221-88.304
			c33.334-26.951,62.414-55.676,87.24-86.176c19.859-21.987,35.461-42.911,46.812-62.77h-228.74
			c-5.673,4.966-13.476,11.404-23.405,11.404c-17.733,0-26.597-9.276-26.596-19.915c-0.001-9.93,0.709-21.988,2.126-36.172
			c1.42-15.604,2.127-29.08,2.127-40.429v10.098c0,34.044-1.419-35.836-4.255-52.859c33.335,6.385,60.641,12.413,81.92,18.088
			c7.802,3.545,11.703,7.446,11.703,11.703c0,4.255-2.837,7.446-8.511,9.575c-8.51,4.967-16.419,9.221-27.766,12.768
			c-1.529,24.019,0.033,21.501,1.275,44.887c191.147,0,384.316,0,575.464,0L829.314,495.194z M7.983,102.615
			c31.209,9.221,72.699,13.831,124.478,13.831h131.923V82.401c0-34.753-1.42-60.641-4.257-77.665
			c32.626,5.675,59.932,11.349,81.921,17.023c7.803,4.256,11.702,8.867,11.703,13.831c-0.001,3.547-3.193,6.384-9.576,8.512
			c-9.221,4.966-18.796,8.867-28.725,11.703v60.642h72.345l41.492-42.556c21.985,14.895,42.555,29.79,61.705,44.684
			c4.965,2.838,7.446,6.384,7.447,10.639c-0.001,10.64-4.257,15.959-12.767,15.958H315.45v12.767
			c-0.001,16.314,0.352,27.307,1.063,32.981c1.419,12.768,2.126,23.406,2.127,31.917c-0.001,22.697-11.349,34.046-34.045,34.045
			c-16.313,0-24.47-6.028-24.47-18.087c0-9.22,0.71-21.277,2.128-36.172c1.418-14.894,2.127-28.015,2.127-39.364v-18.087H132.459
			c-50.36,0.71-84.403,2.129-102.135,4.256L7.983,102.615z M552.7,102.615c31.208,9.221,72.698,13.831,124.476,13.831h7.447V78.145
			c0-34.753-1.419-60.641-4.256-77.665c33.335,5.675,60.997,11.704,82.985,18.087c7.092,3.547,10.638,7.802,10.639,12.767
			c-0.001,3.547-2.838,6.384-8.51,8.511c-8.511,4.966-18.441,8.867-29.789,11.703v64.898h142.242l52.132-56.387
			c24.823,19.86,48.584,38.656,71.281,56.387c5.673,3.547,8.51,7.802,8.511,12.767c0,10.64-4.258,15.959-12.767,15.958h-261.4v8.512
			c-0.001,17.023,0.709,28.016,2.126,32.981c1.42,12.768,2.127,23.406,2.128,31.917c-0.001,22.697-10.994,34.046-32.981,34.045
			c-17.733,0-26.597-6.028-26.597-18.087c0-9.22,0.709-21.277,2.127-36.172c1.419-14.894,2.127-28.37,2.127-40.428v-12.767h-7.447
			c-50.359,0.71-84.402,2.129-102.134,4.256L552.7,102.615z"/>
	</g>
	<path id="path3804" sodipodi:nodetypes="cscccccccc" inkscape:connector-curvature="0" d="M174.228,287.751
		c30.903,8.498,71.991,12.746,123.264,12.746H735.76l46.354-50.982c25.284,18.411,48.813,35.759,70.587,52.044
		c5.618,4.249,8.429,8.498,8.43,12.746c-0.001,10.622-4.217,15.933-12.644,15.932H297.49c-49.866,0.708-83.579,2.125-101.139,4.249
		L174.228,287.751z"/>
</g>
</svg>
