<?xml version="1.0" encoding="utf-8"?>
<!-- Generator: Adobe Illustrator 14.0.0, SVG Export Plug-In . SVG Version: 6.00 Build 43363)  -->
<!DOCTYPE svg PUBLIC "-//W3C//DTD SVG 1.1//EN" "http://www.w3.org/Graphics/SVG/1.1/DTD/svg11.dtd">
<svg version="1.1"
	 id="svg2985" xmlns:dc="http://purl.org/dc/elements/1.1/" xmlns:sodipodi="http://sodipodi.sourceforge.net/DTD/sodipodi-0.dtd" xmlns:cc="http://creativecommons.org/ns#" xmlns:rdf="http://www.w3.org/1999/02/22-rdf-syntax-ns#" xmlns:inkscape="http://www.inkscape.org/namespaces/inkscape" xmlns:svg="http://www.w3.org/2000/svg" inkscape:version="0.48.2 r9819" sodipodi:docname="Z1197.svg"
	 xmlns="http://www.w3.org/2000/svg" xmlns:xlink="http://www.w3.org/1999/xlink" x="0px" y="0px" width="1000px" height="1000px"
	 viewBox="0 0 1000 1000" enable-background="new 0 0 1000 1000" xml:space="preserve">
<sodipodi:namedview  showgrid="false" showguides="true" pagecolor="#ffffff" bordercolor="#666666" borderopacity="1.0" inkscape:current-layer="layer1" inkscape:window-y="-8" inkscape:window-x="1272" inkscape:guide-bbox="true" inkscape:pageopacity="0.0" inkscape:pageshadow="2" inkscape:window-width="1280" inkscape:window-height="974" id="base" inkscape:cy="500" inkscape:cx="246.69604" inkscape:zoom="0.454" inkscape:window-maximized="1">
	<sodipodi:guide  id="guide5596" position="200" orientation="horizontal"></sodipodi:guide>
</sodipodi:namedview>
<g id="layer1" inkscape:groupmode="layer" inkscape:label="Layer 1">
	<g id="text3028" transform="scale(0.98314936,1.0171395)">
		<path id="path3041" sodipodi:nodetypes="ccccsccccccccccccccccccccccccccc" inkscape:connector-curvature="0" d="M288.26,561.251
			H121.766c-49.805,0.712-83.958,2.135-102.457,4.27l-20.278-46.96c30.595,8.538,71.507,12.808,122.735,12.807h744.99l54.43-64.035
			c29.882,20.634,57.987,41.624,84.314,62.969c6.402,3.557,9.604,7.827,9.605,12.807c-0.001,12.095-5.337,18.144-16.009,18.143
			H729.039v327.651c0,15.653,0.711,26.325,2.135,32.018c1.422,12.807,2.135,23.124,2.135,30.951c0,23.479-11.741,35.22-35.219,35.22
			c-16.366,0-24.547-5.693-24.547-17.076c0-15.654,0.711-35.22,2.135-58.7c1.422-24.902,2.135-46.604,2.135-65.103v-284.96H339.489
			c-0.712,63.325-4.27,113.13-10.673,149.417c-7.115,38.422-18.856,71.507-35.219,99.255c-16.365,29.884-35.22,55.143-56.566,75.776
			c-25.614,23.479-50.873,43.046-75.775,58.699c-25.615,15.654-55.854,29.883-90.718,42.691l-12.807-17.076
			c29.171-14.231,54.43-27.749,75.776-40.556c19.21-13.519,37.354-28.105,54.43-43.758c15.653-17.788,31.306-37.355,46.959-58.7
			c12.808-17.788,23.48-39.133,32.018-64.035c7.115-24.192,12.451-51.941,16.009-83.247
			C286.481,651.257,288.259,611.769,288.26,561.251L288.26,561.251z"/>
	</g>
</g>
<g id="layer3" inkscape:groupmode="layer" inkscape:label="惜">
	<g id="text3033" transform="scale(0.98271107,1.0175931)">
		
			<path id="path3038" sodipodi:nodetypes="ccccccccccccccccccccccccccccccccccccccccccssccccccccc" inkscape:connector-curvature="0" d="
			M423.254,66.526c-38.598,20.352-81.056,35.791-127.372,46.317c-28.071,9.124-58.248,15.791-90.529,20.001l-1.053,2.106v112.635
			h161.058l46.317-46.317c22.457,16.843,43.51,32.984,63.159,48.423c5.615,3.51,8.421,7.369,8.422,11.579
			c-0.001,10.527-4.562,15.791-13.685,15.79H204.3v147.373h607.388V277.059H668.525c-56.143,0-90.178,1.404-102.108,4.211
			l-16.843-42.106c28.07,5.615,67.722,8.422,118.951,8.421h143.163V108.633H668.525c-56.143,0.001-90.178,1.404-102.108,4.211
			l-16.843-42.106c28.07,6.317,67.722,9.475,118.951,9.474h134.742l32.633-46.317c25.263,14.738,43.86,29.476,55.791,44.212
			c5.614,5.615,8.421,10.528,8.422,14.738c-0.001,6.317-12.633,17.545-37.896,33.685v176.848
			c-0.001,51.932,0.702,85.968,2.106,102.108c0.701,20.352,1.051,36.844,1.052,49.475c-0.001,9.124-3.51,16.843-10.527,23.159
			c-9.825,4.211-17.545,6.316-23.158,6.316c-13.335,0-20.002-4.561-20.001-13.685v-15.79H204.3v15.79
			c0,9.124-6.667,13.685-20,13.685c-6.316,0-14.386-2.105-24.212-6.316c-7.018-6.316-10.527-14.035-10.527-23.159
			c0-12.631,1.052-29.123,3.158-49.475c3.509-16.14,5.263-50.176,5.263-102.108V130.739c0-27.369-2.807-51.58-8.421-72.634
			l64.213,46.317c39.3-11.929,76.844-27.719,112.635-47.37c30.176-16.14,52.984-35.088,68.423-56.844
			c35.089,18.247,62.809,35.09,83.16,50.528c6.316,3.51,9.474,7.369,9.474,11.579c0,7.72-4.562,12.281-13.685,13.685
			c-3.509,0-9.825-1.754-18.948-5.263C447.114,67.93,436.587,66.527,423.254,66.526z"/>
	</g>
</g>
</svg>
