<?xml version="1.0" encoding="utf-8"?>
<!-- Generator: Adobe Illustrator 16.0.3, SVG Export Plug-In . SVG Version: 6.00 Build 0)  -->
<!DOCTYPE svg PUBLIC "-//W3C//DTD SVG 1.1//EN" "http://www.w3.org/Graphics/SVG/1.1/DTD/svg11.dtd">
<svg version="1.1"
	 id="svg2985" sodipodi:docname="喲2" inkscape:version="0.48.2 r9819" xmlns:dc="http://purl.org/dc/elements/1.1/" xmlns:cc="http://creativecommons.org/ns#" xmlns:rdf="http://www.w3.org/1999/02/22-rdf-syntax-ns#" xmlns:svg="http://www.w3.org/2000/svg" xmlns:sodipodi="http://sodipodi.sourceforge.net/DTD/sodipodi-0.dtd" xmlns:inkscape="http://www.inkscape.org/namespaces/inkscape"
	 xmlns="http://www.w3.org/2000/svg" xmlns:xlink="http://www.w3.org/1999/xlink" x="0px" y="0px" width="1000px" height="1000px"
	 viewBox="0 0 1000 1000" enable-background="new 0 0 1000 1000" xml:space="preserve">
<sodipodi:namedview  inkscape:window-maximized="1" inkscape:current-layer="layer1" inkscape:window-y="-8" inkscape:guide-bbox="true" inkscape:pageopacity="0.0" inkscape:pageshadow="2" inkscape:window-width="1280" inkscape:window-height="974" inkscape:window-x="1272" inkscape:cy="500" inkscape:cx="500" inkscape:zoom="0.454" showguides="true" showgrid="false" id="base" pagecolor="#ffffff" bordercolor="#666666" borderopacity="1.0">
	<sodipodi:guide  position="200" orientation="horizontal" id="guide5596"></sodipodi:guide>
</sodipodi:namedview>
<g id="layer1" inkscape:groupmode="layer" inkscape:label="Layer 1">
	<g id="text2992" transform="scale(0.97895858,1.0214937)">
		
			<path id="path2997" sodipodi:nodetypes="cccccccccccccccccccccccccccccsccscccccccccccccccccccccccccccccccccccccccccccccsccccccccccccccccccccccccccccccccccccc" inkscape:connector-curvature="0" d="
			M556.41,75.676c-29.29,10.461-60.672,18.481-94.145,24.059c-18.133,4.882-37.309,8.369-57.533,10.461l-2.093,7.322v170.506h82.638
			l41.842-41.842c21.617,15.343,41.84,30.336,60.67,44.98c4.881,2.79,7.322,6.277,7.323,10.461
			c-0.001,10.461-4.187,15.691-12.553,15.691h-179.92v206.072h74.271l41.841-41.842c21.617,14.644,41.841,29.288,60.67,43.934
			c4.881,2.791,7.322,6.277,7.323,10.461c-0.001,10.462-4.534,15.691-13.599,15.691H402.639v178.874
			c21.618-4.184,44.631-9.065,69.041-14.644c39.052-8.368,84.032-19.875,134.94-34.52l4.185,21.967
			c-41.145,17.434-77.757,31.38-109.834,41.842c-34.868,11.856-67.645,21.966-98.33,30.335v190.381
			c0,8.369-7.322,12.552-21.966,12.552c-5.579,0-12.901-2.092-21.967-6.275c-7.671-5.578-11.508-13.598-11.507-24.059
			c-0.001-11.856,1.045-27.896,3.137-48.118c4.185-16.039,6.277-49.513,6.277-100.422v-10.461
			c-16.04,4.185-18.451,7.671-33.792,10.461c-6.974,24.408-12.552,36.612-16.737,36.612c-4.881,0-21.269-27.547-49.163-82.638
			c41.841-4.185,66.219-9.414,99.692-15.69V112.288c0-26.499-3.137-49.861-9.414-70.085l60.67,43.934
			c25.105-7.67,48.815-17.433,71.131-29.289c21.618-11.855,37.658-25.453,48.119-40.796c32.078,16.737,57.532,31.382,76.362,43.934
			c4.881,3.488,7.321,7.324,7.322,11.507c-0.001,6.975-3.837,11.159-11.507,12.553c-3.487,0-9.067-1.394-16.737-4.184
			C576.284,77.071,567.566,75.677,556.41,75.676L556.41,75.676z M648.462,24.419l58.578,37.658h105.652l41.84-41.842
			c19.526,15.343,38.006,30.336,55.441,44.98c4.184,2.791,6.277,6.277,6.278,10.461v4.184c-0.001,7.672-5.231,13.599-15.691,17.783
			c-11.857,3.488-17.784,8.369-17.783,14.645v213.394c-0.001,11.856,13.599,17.783,40.797,17.783c13.25,0,30.335-1.394,51.255-4.184
			c18.828,0.697,28.591,10.112,29.29,28.243c-1.397,10.461-7.672,17.086-18.829,19.875c-18.831,4.184-39.402,6.277-61.719,6.276
			c-34.171,0-56.836-5.23-67.992-15.691c-15.343-12.552-23.013-28.592-23.013-48.119V92.413H702.855v75.315
			c-0.001,27.896-2.093,53.698-6.277,77.408c-2.093,21.619-6.627,43.935-13.6,66.947c-6.277,18.132-14.645,34.52-25.103,49.164
			c-8.369,14.645-19.527,28.244-33.474,40.796c-12.553,10.461-29.638,21.618-51.256,33.473l-12.553-9.414
			c13.25-9.764,24.407-20.224,33.474-31.382c8.367-10.46,16.04-21.269,23.014-32.428c6.973-12.552,12.899-27.545,17.781-44.98
			c6.277-19.526,10.46-39.052,12.552-58.579c3.486-27.197,5.23-57.532,5.231-91.006C653.343,108.453,651.947,60.683,648.462,24.419
			L648.462,24.419z M595.114,481.543c27.195,5.578,65.899,8.369,116.111,8.368h159l46.026-41.843
			c25.802,18.831,46.721,35.568,62.763,50.212c6.275,4.88,9.413,10.112,9.414,15.69c-0.001,5.578-5.928,11.508-17.782,17.784
			c-11.159,6.973-25.105,12.204-41.842,15.69c-25.804,69.736-50.211,123.783-73.222,162.138
			c-17.435,31.38-34.172,57.183-50.21,77.407c4.183,4.881,8.716,9.415,13.599,13.598c25.103,20.224,53.696,39.4,85.776,57.533
			c34.17,17.434,72.874,32.079,116.111,43.934v17.783c-29.289,2.791-50.211,14.994-62.762,36.612
			c-39.75-18.132-74.968-38.007-105.652-59.625c-27.896-18.831-53-40.796-75.315-65.902c-2.789-3.487-5.579-6.624-8.367-9.415
			c-16.738,15.342-33.823,29.289-51.256,41.842c-29.29,21.618-58.927,40.098-88.915,55.44
			c-32.079,17.434-68.69,31.381-109.834,41.842l-7.323-16.736c49.513-20.224,85.078-37.657,106.697-52.303
			c22.315-13.947,49.863-33.125,82.638-57.533c14.644-12.552,28.94-26.5,42.888-41.842c-11.159-15.342-20.922-31.033-29.289-47.072
			c-21.619-37.657-39.401-78.105-53.348-121.342c-12.553-35.566-20.223-70.083-23.014-103.558
			c-13.249,0.697-22.316,1.745-27.197,3.139L595.114,481.543z M659.969,519.201c7.67,37.658,18.828,72.875,33.474,105.651
			c16.736,39.053,35.216,73.224,55.44,102.513c8.367,10.461,17.085,20.224,26.152,29.288l1.045-1.046
			c18.13-26.5,35.914-59.974,53.349-100.422c19.524-37.657,35.913-82.986,49.162-135.986H711.225
			C691,519.202,673.914,519.202,659.969,519.201L659.969,519.201z"/>
	</g>
	<g id="text2999" transform="scale(0.97972046,1.0206993)">
		<path id="path3004" sodipodi:nodetypes="ccccccccccsccccccccsccsccccccccccccccccccccc" inkscape:connector-curvature="0" d="
			M230.442,0.782c29.748,14.167,54.184,27.624,73.308,40.373c4.248,2.834,6.373,6.375,6.373,10.624
			c0,4.25-3.542,7.792-10.624,10.624c-10.625,3.542-21.248,6.021-31.873,7.437c-14.166,26.208-30.103,51.352-47.808,75.433
			c-14.166,20.541-29.395,39.665-45.685,57.372c2.834,3.542,5.313,7.083,7.437,10.624c19.832,42.498,35.414,86.058,46.748,130.679
			c12.04,41.081,20.541,88.537,25.5,142.366c3.541,43.914,5.312,95.973,5.312,156.178c0,78.62-4.604,146.971-13.811,205.051
			c-4.25,28.332-11.333,49.579-21.249,63.746c-9.207,16.291-22.666,30.81-40.371,43.558c-18.415,13.459-41.435,23.021-69.059,28.687
			c0-15.582-2.479-26.208-7.437-31.872c-4.249-7.791-11.686-13.812-22.312-18.062c-14.874-6.374-34.706-9.562-59.496-9.562l8.5-25.5
			c29.749,7.792,56.664,11.688,80.745,11.688c25.499,0,42.498-4.605,50.996-13.812c13.457-9.917,23.021-32.581,28.686-67.996
			c9.207-55.247,13.811-117.222,13.811-185.926c0-84.995-2.125-149.804-6.374-194.426c-14.166,32.58-27.978,58.788-41.435,78.621
			c-16.999,26.916-35.061,50.642-54.184,71.183c-19.833,21.958-46.748,48.163-80.745,78.621L9.457,656.304
			c34.707-38.246,61.976-71.183,81.809-98.805c16.998-24.792,35.412-55.247,55.246-91.37c14.874-29.748,29.038-64.1,42.498-103.056
			c-2.834-14.874-6.375-29.394-10.625-43.56c-7.793-28.331-17.709-57.725-29.749-88.182c-16.29,18.416-34.707,36.477-55.246,54.184
			c-24.79,21.958-51.351,43.56-79.682,64.808l-12.75-12.75c33.997-31.872,63.037-61.621,87.119-89.244
			c15.583-19.123,30.102-38.247,43.559-57.372c-16.999-36.122-43.559-83.932-79.682-143.429L72.14,35.842
			c33.998,50.289,60.913,92.432,80.745,126.43l1.064-1.062c20.54-31.164,37.185-59.85,49.935-86.057
			C215.922,48.946,224.777,24.156,230.442,0.782z"/>
	</g>
</g>
</svg>
