<?xml version="1.0" encoding="utf-8"?>
<!-- Generator: Adobe Illustrator 16.0.3, SVG Export Plug-In . SVG Version: 6.00 Build 0)  -->
<!DOCTYPE svg PUBLIC "-//W3C//DTD SVG 1.1//EN" "http://www.w3.org/Graphics/SVG/1.1/DTD/svg11.dtd">
<svg version="1.1"
	 id="svg2985" sodipodi:docname="Z1203.svg" inkscape:version="0.48.2 r9819" xmlns:dc="http://purl.org/dc/elements/1.1/" xmlns:cc="http://creativecommons.org/ns#" xmlns:rdf="http://www.w3.org/1999/02/22-rdf-syntax-ns#" xmlns:svg="http://www.w3.org/2000/svg" xmlns:sodipodi="http://sodipodi.sourceforge.net/DTD/sodipodi-0.dtd" xmlns:inkscape="http://www.inkscape.org/namespaces/inkscape"
	 xmlns="http://www.w3.org/2000/svg" xmlns:xlink="http://www.w3.org/1999/xlink" x="0px" y="0px" width="1000px" height="1000px"
	 viewBox="0 0 1000 1000" enable-background="new 0 0 1000 1000" xml:space="preserve">
<sodipodi:namedview  inkscape:window-maximized="1" inkscape:current-layer="layer1" inkscape:window-y="-8" inkscape:guide-bbox="true" inkscape:pageopacity="0.0" inkscape:pageshadow="2" inkscape:window-width="1280" inkscape:window-height="974" inkscape:window-x="1272" inkscape:cy="500" inkscape:cx="500" inkscape:zoom="0.454" showguides="true" showgrid="false" id="base" pagecolor="#ffffff" bordercolor="#666666" borderopacity="1.0">
	<sodipodi:guide  position="200" orientation="horizontal" id="guide5596"></sodipodi:guide>
</sodipodi:namedview>
<g id="layer1" inkscape:groupmode="layer" inkscape:label="Layer 1">
	<g id="text3006" transform="scale(0.99813264,1.0018709)">
		
			<path id="path3011" sodipodi:nodetypes="ccccccccccccccccccccccccccccccccccccccsccccccccccccccccccccccscccccccccccccccccccccccccccccccccccccccc" inkscape:connector-curvature="0" d="
			M409.48,282.806c30.323,8.463,71.226,12.694,122.708,12.694h48.659c1.41-35.965,2.115-73.694,2.115-113.187
			c0-92.382-1.411-152.032-4.232-180.947c34.556,2.117,61.354,5.643,80.394,10.578c11.987,2.821,17.63,7.406,16.925,13.752
			c0.703,7.053-3.879,12.342-13.752,15.867c-8.463,4.232-17.984,8.816-28.561,13.752c0,96.615-1.059,176.011-3.173,240.185h235.894
			l49.718-59.238c27.503,20.451,52.89,40.198,76.163,59.238c6.346,4.232,9.52,8.816,9.521,13.752
			c0,10.579-5.642,15.868-16.924,15.867H629.506c-1.411,43.019-3.526,77.574-6.347,103.666
			c-8.463,78.279-19.746,144.569-33.85,198.87c-14.81,58.533-33.498,109.661-56.064,153.384
			c-23.273,44.43-52.893,83.568-88.857,117.418c-35.967,38.787-77.221,70.874-123.765,96.262l-12.694-22.214
			c49.365-33.145,88.504-68.052,117.417-104.724c28.209-33.145,52.185-72.285,71.931-117.418
			c18.335-37.375,34.556-84.979,48.66-142.806c11.283-48.66,19.745-106.133,25.387-172.423c4.231-33.85,7.052-70.521,8.463-110.014
			h-47.604c-50.07,0.706-84.274,2.116-102.609,4.231L409.48,282.806z M680.28,402.34c33.85,5.642,62.411,12.342,85.683,20.099
			c7.757,2.116,11.636,6.698,11.636,13.752c0,5.642-3.879,9.52-11.636,11.635c-9.873,4.231-20.451,7.053-31.734,8.463v423.128
			c-0.001,12.694,2.115,21.51,6.347,26.446c5.641,5.642,14.809,9.52,27.503,11.636c14.104,5.641,37.728,8.462,70.874,8.463
			c22.568-0.001,40.903-1.06,55.007-3.174c10.577-2.116,15.878-5.996,22.226-11.636c6.347-4.231,10.577-14.455,12.695-30.677
			c4.935-22.566,9.873-78.983,14.81-169.251l20.099,4.231c-2.823,50.069-4.234,99.081-4.233,147.035
			c-0.001,10.579,2.114,17.278,6.347,20.099c2.114,5.642,8.109,10.578,17.983,14.809c11.988,5.642,17.983,13.752,17.984,24.329
			c0,7.051-2.823,13.4-8.462,19.042c-8.464,7.757-19.396,13.399-32.794,16.924c-15.514,4.936-33.85,8.463-55.006,10.579
			c-24.684,2.821-44.795,4.23-66.656,4.23c-35.967,0-63.117-1.409-81.452-4.23c-23.978-4.937-40.198-10.226-48.659-15.869
			c-8.464-4.23-14.811-11.987-19.04-23.272c-3.526-10.578-5.289-21.157-5.289-31.735V473.213
			C684.513,443.595,683.102,419.97,680.28,402.34L680.28,402.34z M1.049,228.857c30.324,7.758,68.871,11.636,119.646,11.636h56.064
			V89.225c0-38.081-1.41-66.642-4.231-85.683c40.195,4.937,73.341,12.695,99.435,23.272c9.168,4.232,13.751,9.521,13.751,15.867
			c0,5.642-4.585,9.874-13.751,12.694c-13.399,6.348-28.209,10.226-44.43,11.636v173.483h42.313l46.544-50.776
			c25.387,18.336,49.01,35.614,70.874,51.833c6.348,3.527,9.521,7.758,9.522,12.694c-0.001,11.284-4.586,16.926-13.752,16.925
			h-155.5v88.857c35.967,16.925,64.528,34.556,85.683,52.891c22.567,17.631,39.492,34.556,50.774,50.776
			c7.052,11.989,10.577,23.978,10.578,35.966c-0.001,22.567-6.7,33.851-20.099,33.85c-7.052,0.001-13.399-1.761-19.04-5.289
			c-5.641-3.526-11.284-11.987-16.924-25.387c-15.515-30.324-31.382-54.654-47.603-72.989
			c-11.988-12.693-26.446-25.739-43.371-39.139v510.924c0,15.516,0.705,26.094,2.116,31.736c1.41,11.987,2.115,22.214,2.115,30.677
			c0,22.567-11.636,33.85-34.908,33.851c-16.22-0.001-24.332-5.29-24.331-15.868c-0.001-15.515,0.704-34.908,2.115-58.18
			c1.41-24.681,2.115-46.191,2.115-64.527V418.207c-13.399,40.903-27.503,77.926-42.312,111.072
			c-15.514,35.259-32.793,70.52-51.833,105.782c-19.746,32.44-42.72,67.348-70.929,104.724L1.049,723.917
			c23.977-41.608,42.073-81.805,58.291-120.592c16.925-36.672,32.087-76.515,45.486-119.534
			c12.695-36.671,23.624-75.81,32.793-117.418c7.758-33.145,14.103-64.879,19.04-95.204h-35.966
			c-49.367,0.706-81.212,1.764-99.547,3.174L1.049,228.857z"/>
	</g>
</g>
</svg>
