<?xml version="1.0" encoding="utf-8"?>
<!-- Generator: Adobe Illustrator 16.0.3, SVG Export Plug-In . SVG Version: 6.00 Build 0)  -->
<!DOCTYPE svg PUBLIC "-//W3C//DTD SVG 1.1//EN" "http://www.w3.org/Graphics/SVG/1.1/DTD/svg11.dtd">
<svg version="1.1"
	 id="svg2985" sodipodi:docname="Z1204.svg" inkscape:version="0.48.2 r9819" xmlns:dc="http://purl.org/dc/elements/1.1/" xmlns:cc="http://creativecommons.org/ns#" xmlns:rdf="http://www.w3.org/1999/02/22-rdf-syntax-ns#" xmlns:svg="http://www.w3.org/2000/svg" xmlns:sodipodi="http://sodipodi.sourceforge.net/DTD/sodipodi-0.dtd" xmlns:inkscape="http://www.inkscape.org/namespaces/inkscape"
	 xmlns="http://www.w3.org/2000/svg" xmlns:xlink="http://www.w3.org/1999/xlink" x="0px" y="0px" width="1000px" height="1000px"
	 viewBox="0 0 1000 1000" enable-background="new 0 0 1000 1000" xml:space="preserve">
<sodipodi:namedview  inkscape:window-maximized="1" inkscape:current-layer="layer1" inkscape:window-y="-8" inkscape:guide-bbox="true" inkscape:pageopacity="0.0" inkscape:pageshadow="2" inkscape:window-width="1280" inkscape:window-height="974" inkscape:window-x="1272" inkscape:cy="500" inkscape:cx="500" inkscape:zoom="0.454" showguides="true" showgrid="false" id="base" pagecolor="#ffffff" bordercolor="#666666" borderopacity="1.0">
	<sodipodi:guide  position="200" orientation="horizontal" id="guide5596"></sodipodi:guide>
</sodipodi:namedview>
<g id="layer1" inkscape:groupmode="layer" inkscape:label="Layer 1">
	<g id="text3017" transform="scale(0.99298659,1.0070629)">
		
			<path id="path3022" sodipodi:nodetypes="ccccccccccccccccccccccscccccccccccaccsccccccccccccccccccsccccccccscccccccccccca" inkscape:connector-curvature="0" d="
			M903.381,86.262c-41.655,12.709-84.369,24.358-128.141,34.947c-53.659,11.297-108.373,20.475-164.147,27.535
			c-40.948,4.943-91.428,9.179-151.438,12.708l-1.059,9.531v102.183h412.913l50.833-60.364
			c26.827,20.475,52.242,40.596,76.249,60.364c5.647,3.531,8.473,7.766,8.474,12.708c0,10.591-5.296,15.886-15.886,15.885H458.594
			c-0.707,58.599-3.531,185.515-8.472,237.761c-3.532,50.126-10.238,100.96-20.122,152.497
			c-8.474,42.361-19.77,81.544-33.889,117.552c-12.001,31.771-27.535,62.129-46.595,91.075
			c-16.239,26.122-39.184,52.244-68.836,78.367l-12.706-9.531c18.354-21.885,34.945-46.597,49.772-74.132
			c13.414-24.004,24.71-49.42,33.888-76.25c11.296-30.358,20.476-65.304,27.535-104.843c9.179-46.596,15.533-93.898,19.062-141.908
			c6.353-63.54,9.531-135.2,9.531-214.98c0-106.606-1.411-191.681-4.236-255.222l56.128,36.006
			c29.651-2.117,60.363-5.647,92.133-10.59c39.536-5.648,78.014-13.061,115.433-22.239c40.242-9.177,74.483-18.709,102.724-28.593
			c27.534-9.177,50.479-18.709,68.835-28.593c15.532-7.765,29.651-16.59,42.362-26.475c26.121,15.533,48.714,31.418,67.776,47.656
			c3.53,2.825,5.295,5.649,5.296,8.472c-0.001,8.473-4.591,12.709-13.767,12.708C930.56,90.499,918.205,89.087,903.381,86.262
			L903.381,86.262z M1.102,209.108c30.358,8.473,70.955,12.709,121.788,12.708h38.124V86.262c0-40.948-1.412-69.541-4.237-85.78
			c39.536,4.943,73.777,14.121,102.724,27.535c8.473,2.825,12.708,6.708,12.708,11.649c0,6.355-4.943,11.297-14.828,14.826
			c-14.121,4.237-29.298,7.414-45.536,9.531v157.793h42.361l46.595-50.832c25.417,16.945,49.421,34.242,72.014,51.892
			c5.648,2.824,8.472,6.355,8.473,10.59c-0.001,12.003-3.884,18.004-11.65,18.003H211.845v248.868
			c1.41-0.706,2.824-1.412,4.236-2.118c36.713-19.769,79.073-45.892,127.082-78.367l4.236,22.239
			c-38.831,34.595-73.072,61.777-102.723,81.543c-11.296,8.472-22.239,15.887-32.829,22.239V902.76
			c0,24.004-4.944,42.008-14.828,54.01c-7.765,12.002-19.414,21.18-34.946,27.534c-12.708,7.06-24.357,10.59-34.947,10.59
			l-2.118-18.004c-1.412-7.061-3.883-12.708-7.413-16.945c-6.353-8.471-17.649-15.886-33.887-22.238
			C65.35,929.942,44.522,925,21.224,922.882v-24.357c36.005,10.59,68.482,15.885,97.428,15.885c17.65,0,28.946-2.118,33.889-6.354
			c5.648-4.237,8.473-14.827,8.473-31.771V578.704c-2.824,2.118-5.648,3.884-8.473,5.296
			c-26.829,16.945-55.069,31.771-84.721,44.479c-7.059,25.416-12.354,38.124-15.886,38.124c-5.648,0-22.592-28.24-50.832-84.721
			c40.948-9.884,78.014-21.886,111.196-36.006c16.238-4.942,32.478-11.296,48.716-19.063V251.468H122.89
			c-49.422,0.707-83.311,2.119-101.666,4.236L1.102,209.108z"/>
	</g>
	<g id="text3024" transform="scale(0.98309627,1.0171944)">
		<path id="path3035" sodipodi:nodetypes="cccccccccccccccccccccccccsccccccccccccscccccc" inkscape:connector-curvature="0" d="
			M593.163,437.528v208.299c85.456,14.956,209.104,22.433,232.605,22.433c3.56,0,6.766-1.068,9.615-3.205
			c2.848-2.136,5.697-5.697,8.546-10.682c2.848-5.698,5.34-13.176,7.478-22.434c2.136-10.682,4.628-33.114,7.477-67.297
			c3.56-42.728,5.34-85.1,5.341-127.116L593.163,437.528L593.163,437.528z M850.336,406.549l38.456-38.455
			c22.075,12.819,40.235,25.282,54.479,37.387c7.119,5.697,10.682,10.325,10.683,13.886c-0.001,7.834-12.82,20.653-38.456,38.456
			c-2.85,63.381-6.41,113.586-10.683,150.616c-3.561,37.031-7.834,62.67-12.818,76.911c-4.272,13.53-8.547,22.789-12.817,27.773
			c-4.273,4.985-10.327,8.902-18.161,11.75c-7.121,4.272-18.873,7.833-35.251,10.682c-4.986-13.53-19.531-23.5-27.365-29.91
			c-8.547-7.833-58.695-13.53-77.21-17.091c-15.667-4.987-74.619-10.326-128.028-16.023v188.004c0,11.396,2.136,21.72,6.409,30.978
			c7.121,11.395,21.72,19.584,43.797,24.569c27.06,4.987,130.413,7.479,171.717,7.479c34.181,0,61.955-2.137,83.32-6.409
			c14.954-2.849,25.992-6.053,33.114-9.614c7.12-4.273,12.106-10.326,14.955-18.158c4.272-8.545,9.613-61.245,16.024-158.094h16.023
			l-4.272,102.546c1.422,21.364,3.916,33.47,7.478,36.319c2.847,8.546,11.037,14.956,24.569,19.229
			c7.834,4.272,11.749,11.394,11.75,21.363c0,5.697-2.138,11.039-6.409,16.023c-7.122,8.545-18.873,15.667-35.251,21.364
			c-19.227,5.697-40.949,9.97-65.161,12.819c-30.622,3.561-60.532,5.342-89.729,5.342c-52.699,0-163.886-2.849-195.218-8.545
			c-32.048-4.273-54.481-13.175-67.298-26.706c-11.395-14.242-17.092-37.743-17.092-70.501V363.821l69.433,42.728H850.336z"/>
	</g>
</g>
</svg>
