<?xml version="1.0" encoding="utf-8"?>
<!-- Generator: Adobe Illustrator 16.0.3, SVG Export Plug-In . SVG Version: 6.00 Build 0)  -->
<!DOCTYPE svg PUBLIC "-//W3C//DTD SVG 1.1//EN" "http://www.w3.org/Graphics/SVG/1.1/DTD/svg11.dtd">
<svg version="1.1"
	 id="svg2985" sodipodi:docname="Z1200.svg" inkscape:version="0.48.2 r9819" xmlns:dc="http://purl.org/dc/elements/1.1/" xmlns:cc="http://creativecommons.org/ns#" xmlns:rdf="http://www.w3.org/1999/02/22-rdf-syntax-ns#" xmlns:svg="http://www.w3.org/2000/svg" xmlns:sodipodi="http://sodipodi.sourceforge.net/DTD/sodipodi-0.dtd" xmlns:inkscape="http://www.inkscape.org/namespaces/inkscape"
	 xmlns="http://www.w3.org/2000/svg" xmlns:xlink="http://www.w3.org/1999/xlink" x="0px" y="0px" width="1000px" height="1000px"
	 viewBox="0 0 1000 1000" enable-background="new 0 0 1000 1000" xml:space="preserve">
<sodipodi:namedview  inkscape:window-maximized="1" inkscape:current-layer="layer4" inkscape:window-y="-8" inkscape:guide-bbox="true" inkscape:pageopacity="0.0" inkscape:pageshadow="2" inkscape:window-width="1280" inkscape:window-height="974" inkscape:window-x="1272" inkscape:cy="510.2093" inkscape:cx="434.43745" inkscape:zoom="0.454" showguides="true" showgrid="false" id="base" pagecolor="#ffffff" bordercolor="#666666" borderopacity="1.0">
	</sodipodi:namedview>
<g id="layer1" inkscape:groupmode="layer" inkscape:label="Layer 1">
	<g id="text2988" transform="scale(0.99336812,1.0066762)">
	</g>
	<g id="text3023" transform="scale(0.98925001,1.0108668)">
	</g>
	<g id="text3824" transform="scale(0.98789606,1.0122522)">
		<path id="path3841" sodipodi:nodetypes="ccccccccccccccccccccccc" inkscape:connector-curvature="0" d="M161.96,510.464H917.76
			l33.287-34.361c21.475,10.739,38.655,22.192,51.541,34.361c6.442,6.443,9.664,12.526,9.665,18.254
			c0,10.022-14.319,19.687-42.952,28.99c-0.001,84.471-2.671,71.213-12.693,165.703c-10.738,94.493-23.625,153.614-38.655,187.258
			c-7.159,20.044-16.824,34.719-28.993,44.025c-8.59,6.443-19.688,12.885-33.288,19.328c-20.044,8.59-42.953,12.885-68.721,12.885
			c-1.431-11.453-5.012-20.401-10.736-26.844c-2.865-5.727-8.949-11.096-18.254-16.106c-21.477-7.875-57.627-18.255-108.451-31.14
			l4.295-24.695c88.765,22.907,139.948,34.359,153.55,34.359c14.316,0,26.487-2.862,36.508-8.59
			c8.589-5.011,15.747-12.526,21.475-22.549c6.442-10.022,13.242-21.54,20.402-44.447c8.589-32.931,16.106-85.186,22.549-156.772
			c7.158-73.732,8.752-54.745,9.47-148.522H160.886L161.96,510.464z"/>
	</g>
</g>
<g id="layer4" inkscape:groupmode="layer" inkscape:label="謘潭">
	<g id="text3833" transform="scale(0.98819386,1.0119472)">
		
			<path id="path3838" sodipodi:nodetypes="ccccccccccccccccsccccccccccscccccccccccccccccccccccccsccccccccccc" inkscape:connector-curvature="0" d="
			M874.12,64.049c-63.57,9.889-128.552,18.718-194.945,26.487c-81.934,7.77-165.633,14.127-251.097,19.071
			c-64.982,4.238-146.209,7.417-243.681,9.535l-1.059,9.535v76.282h686.544l33.904-47.676c24.72,15.54,43.084,30.726,55.093,45.558
			c4.943,5.651,7.417,10.596,7.418,14.833c-0.001,6.358-14.129,17.659-42.379,33.904v88.996c14.83,9.889,28.604,19.425,41.32,28.606
			c3.53,2.826,5.296,5.651,5.297,8.476c-0.001,12.008-2.474,18.012-7.417,18.011H183.338v32.844c0,57.212-3.177,110.54-9.534,159.98
			c-2.119,43.792-8.122,88.644-18.01,134.556c-7.769,37.436-18.364,71.338-31.783,101.711
			c-11.301,28.252-26.136,55.446-44.499,81.58c-15.539,22.602-37.435,45.557-65.689,68.866L1.108,965.67
			c17.658-19.071,33.197-40.614,46.617-64.629c12.008-21.189,22.957-43.79,32.844-67.806c10.596-25.428,19.072-55.798,25.428-91.116
			c7.769-40.967,13.42-82.286,16.951-123.96c6.357-55.799,9.535-119.015,9.535-189.646c0-153.271-1.766-276.171-5.297-368.701
			l58.271,37.082c49.442-2.118,101.357-5.297,155.743-9.535c61.449-4.237,121.133-10.241,179.052-18.011
			c62.156-7.769,115.13-15.891,158.922-24.368c43.085-6.356,79.108-14.126,108.067-23.308c23.308-6.356,44.851-10.455,64.629-18.225
			C877.297,19.693,899.9,32.268,919.676,47.1c2.824,2.826,4.238,5.651,4.239,8.476c-0.001,9.183-3.887,13.774-11.654,13.773
			C901.665,69.347,888.95,67.581,874.12,64.049L874.12,64.049z M183.338,364.941h693.961V233.566H183.338V364.941z M314.726,611.801
			l63.569,32.844h309.437l29.666-32.844c36.729,21.896,55.093,37.435,55.093,46.617c0,7.063-9.534,16.599-28.604,28.606v105.947
			c8.475,6.358,16.245,12.36,23.307,18.01c3.531,2.119,5.297,4.592,5.297,7.417c0,10.594-2.824,15.892-8.475,15.892H365.581v13.773
			c0,6.357-4.591,11.301-13.773,14.833c-10.596,3.532-18.718,5.297-24.369,5.297c-8.476,0-12.715-3.884-12.715-11.654
			L314.726,611.801L314.726,611.801z M365.581,806.746h326.388V675.37H365.581V806.746z"/>
	</g>
</g>
</svg>
