<?xml version="1.0" encoding="utf-8"?>
<!-- Generator: Adobe Illustrator 14.0.0, SVG Export Plug-In . SVG Version: 6.00 Build 43363)  -->
<!DOCTYPE svg PUBLIC "-//W3C//DTD SVG 1.1//EN" "http://www.w3.org/Graphics/SVG/1.1/DTD/svg11.dtd">
<svg version="1.1"
	 id="svg2985" xmlns:dc="http://purl.org/dc/elements/1.1/" xmlns:sodipodi="http://sodipodi.sourceforge.net/DTD/sodipodi-0.dtd" xmlns:cc="http://creativecommons.org/ns#" xmlns:rdf="http://www.w3.org/1999/02/22-rdf-syntax-ns#" xmlns:inkscape="http://www.inkscape.org/namespaces/inkscape" xmlns:svg="http://www.w3.org/2000/svg" inkscape:version="0.48.2 r9819" sodipodi:docname="Z1203.svg"
	 xmlns="http://www.w3.org/2000/svg" xmlns:xlink="http://www.w3.org/1999/xlink" x="0px" y="0px" width="1000px" height="1000px"
	 viewBox="0 0 1000 1000" enable-background="new 0 0 1000 1000" xml:space="preserve">
<sodipodi:namedview  showgrid="false" showguides="true" pagecolor="#ffffff" bordercolor="#666666" borderopacity="1.0" inkscape:current-layer="layer1" inkscape:window-y="-8" inkscape:window-x="1272" inkscape:guide-bbox="true" inkscape:pageopacity="0.0" inkscape:pageshadow="2" inkscape:window-width="1280" inkscape:window-height="974" id="base" inkscape:cy="500" inkscape:cx="500" inkscape:zoom="0.454" inkscape:window-maximized="1">
	<sodipodi:guide  id="guide5596" position="200" orientation="horizontal"></sodipodi:guide>
</sodipodi:namedview>
<g id="layer1" inkscape:groupmode="layer" inkscape:label="Layer 1">
	<g id="text3006" transform="scale(0.99813264,1.0018709)">
		
			<path id="path3011" sodipodi:nodetypes="ccccccccccccccccccccccccccccccccccccccsccccccccccccccccccccccscccccccccccccccccccccccccccccccccccccccc" inkscape:connector-curvature="0" d="
			M409.48,282.806c30.323,8.463,71.226,12.694,122.708,12.694h48.659c1.41-35.965,2.115-73.694,2.115-113.187
			c0-92.382-1.411-152.032-4.231-180.947c34.555,2.117,61.353,5.643,80.394,10.578c11.987,2.821,17.63,7.406,16.925,13.752
			c0.704,7.053-3.879,12.342-13.752,15.867c-8.463,4.232-17.984,8.816-28.561,13.752c0,96.615-1.059,176.011-3.173,240.185h235.893
			l49.718-59.238c27.503,20.451,52.89,40.198,76.163,59.238c6.346,4.232,9.52,8.816,9.521,13.752
			c0,10.579-5.643,15.868-16.925,15.867H629.506c-1.411,43.019-3.526,77.574-6.347,103.666
			c-8.463,78.279-19.746,144.569-33.85,198.87c-14.81,58.533-33.498,109.661-56.064,153.384
			c-23.273,44.429-52.892,83.568-88.857,117.418c-35.967,38.787-77.221,70.874-123.765,96.262l-12.694-22.214
			c49.365-33.145,88.504-68.053,117.418-104.724c28.208-33.145,52.185-72.285,71.931-117.418
			c18.335-37.376,34.555-84.979,48.66-142.806c11.283-48.66,19.745-106.134,25.387-172.424c4.231-33.85,7.052-70.521,8.463-110.014
			h-47.603c-50.07,0.706-84.274,2.116-102.609,4.231L409.48,282.806z M680.281,402.34c33.85,5.642,62.411,12.342,85.683,20.099
			c7.757,2.116,11.636,6.699,11.636,13.752c0,5.642-3.879,9.52-11.636,11.635c-9.873,4.232-20.451,7.053-31.734,8.463v423.128
			c-0.001,12.694,2.115,21.51,6.347,26.446c5.641,5.642,14.809,9.52,27.503,11.636c14.104,5.641,37.728,8.462,70.874,8.463
			c22.567-0.001,40.902-1.059,55.007-3.174c10.577-2.116,15.878-5.995,22.226-11.636c6.347-4.231,10.577-14.456,12.695-30.677
			c4.935-22.566,9.872-78.983,14.809-169.251l20.099,4.231c-2.822,50.07-4.233,99.082-4.232,147.036
			c-0.001,10.579,2.114,17.278,6.347,20.099c2.114,5.642,8.109,10.578,17.983,14.809c11.988,5.642,17.982,13.752,17.983,24.33
			c0,7.051-2.822,13.399-8.462,19.041c-8.464,7.757-19.395,13.399-32.793,16.925c-15.515,4.936-33.851,8.462-55.006,10.578
			c-24.684,2.821-44.795,4.231-66.656,4.231c-35.967,0-63.117-1.41-81.452-4.231c-23.978-4.937-40.198-10.226-48.659-15.868
			c-8.464-4.231-14.811-11.988-19.041-23.272c-3.526-10.578-5.289-21.157-5.289-31.735V473.213
			C684.513,443.595,683.102,419.97,680.281,402.34L680.281,402.34z M1.049,228.857c30.324,7.758,68.871,11.636,119.646,11.636
			h56.064V89.225c0-38.081-1.41-66.642-4.231-85.683c40.196,4.937,73.342,12.695,99.435,23.272
			c9.168,4.232,13.751,9.521,13.751,15.867c0,5.642-4.584,9.874-13.751,12.694c-13.399,6.348-28.209,10.226-44.429,11.636v173.483
			h42.313l46.544-50.776c25.387,18.336,49.011,35.614,70.874,51.833c6.347,3.527,9.52,7.758,9.521,12.694
			c-0.001,11.284-4.585,16.926-13.752,16.925H227.534v88.857c35.966,16.925,64.527,34.556,85.683,52.891
			c22.567,17.631,39.492,34.556,50.775,50.776c7.052,11.989,10.577,23.978,10.578,35.966c-0.001,22.567-6.7,33.851-20.099,33.85
			c-7.052,0.001-13.399-1.762-19.04-5.289c-5.642-3.526-11.284-11.988-16.925-25.387c-15.515-30.324-31.382-54.654-47.602-72.99
			c-11.989-12.693-26.446-25.739-43.371-39.139V901.63c0,15.515,0.705,26.093,2.116,31.735c1.41,11.988,2.115,22.214,2.115,30.677
			c0,22.567-11.636,33.85-34.908,33.851c-16.22-0.001-24.331-5.29-24.33-15.868c-0.001-15.515,0.704-34.908,2.115-58.18
			c1.41-24.682,2.115-46.191,2.115-64.527V418.207c-13.399,40.903-27.503,77.926-42.312,111.071
			c-15.515,35.26-32.793,70.521-51.833,105.782c-19.746,32.44-42.721,67.348-70.93,104.724L1.049,723.917
			c23.977-41.608,42.073-81.805,58.292-120.592c16.925-36.671,32.087-76.515,45.486-119.534
			c12.694-36.671,23.624-75.81,32.793-117.418c7.757-33.145,14.103-64.879,19.04-95.204h-35.966
			c-49.366,0.706-81.212,1.764-99.547,3.174L1.049,228.857z"/>
	</g>
</g>
</svg>
