<?xml version="1.0" encoding="utf-8"?>
<!-- Generator: Adobe Illustrator 14.0.0, SVG Export Plug-In . SVG Version: 6.00 Build 43363)  -->
<!DOCTYPE svg PUBLIC "-//W3C//DTD SVG 1.1//EN" "http://www.w3.org/Graphics/SVG/1.1/DTD/svg11.dtd">
<svg version="1.1"
	 id="svg2985" xmlns:dc="http://purl.org/dc/elements/1.1/" xmlns:sodipodi="http://sodipodi.sourceforge.net/DTD/sodipodi-0.dtd" xmlns:cc="http://creativecommons.org/ns#" xmlns:rdf="http://www.w3.org/1999/02/22-rdf-syntax-ns#" xmlns:inkscape="http://www.inkscape.org/namespaces/inkscape" xmlns:svg="http://www.w3.org/2000/svg" inkscape:version="0.48.2 r9819" sodipodi:docname="Z1204.svg"
	 xmlns="http://www.w3.org/2000/svg" xmlns:xlink="http://www.w3.org/1999/xlink" x="0px" y="0px" width="1000px" height="1000px"
	 viewBox="0 0 1000 1000" enable-background="new 0 0 1000 1000" xml:space="preserve">
<sodipodi:namedview  showgrid="false" showguides="true" pagecolor="#ffffff" bordercolor="#666666" borderopacity="1.0" inkscape:current-layer="layer1" inkscape:window-y="-8" inkscape:window-x="1272" inkscape:guide-bbox="true" inkscape:pageopacity="0.0" inkscape:pageshadow="2" inkscape:window-width="1280" inkscape:window-height="974" id="base" inkscape:cy="500" inkscape:cx="500" inkscape:zoom="0.454" inkscape:window-maximized="1">
	<sodipodi:guide  id="guide5596" position="200" orientation="horizontal"></sodipodi:guide>
</sodipodi:namedview>
<g id="layer1" inkscape:groupmode="layer" inkscape:label="Layer 1">
	<g id="text3017" transform="scale(0.99298659,1.0070629)">
		
			<path id="path3022" sodipodi:nodetypes="ccccccccccccccccccccccscccccccccccaccsccccccccccccccccccsccccccccscccccccccccca" inkscape:connector-curvature="0" d="
			M903.381,86.262c-41.655,12.709-84.369,24.358-128.141,34.947c-53.658,11.297-108.373,20.475-164.147,27.535
			c-40.948,4.943-91.428,9.179-151.438,12.708l-1.059,9.531v102.183h412.913l50.833-60.364
			c26.827,20.475,52.243,40.596,76.249,60.364c5.647,3.531,8.472,7.766,8.473,12.708c0,10.591-5.296,15.886-15.885,15.885H458.595
			c-0.707,58.599-3.531,185.515-8.473,237.76c-3.531,50.127-10.238,100.96-20.121,152.498
			c-8.474,42.361-19.77,81.544-33.889,117.551c-12.002,31.771-27.535,62.129-46.596,91.075
			c-16.239,26.122-39.184,52.244-68.836,78.367l-12.707-9.531c18.355-21.886,34.946-46.597,49.773-74.132
			c13.414-24.004,24.71-49.42,33.888-76.249c11.296-30.358,20.475-65.305,27.535-104.843c9.178-46.596,15.532-93.898,19.062-141.908
			c6.353-63.54,9.531-135.2,9.531-214.98c0-106.606-1.412-191.681-4.236-255.222l56.128,36.006
			c29.651-2.117,60.363-5.647,92.133-10.59c39.536-5.648,78.014-13.061,115.433-22.239c40.242-9.177,74.483-18.709,102.724-28.593
			c27.534-9.177,50.479-18.709,68.836-28.593c15.531-7.765,29.651-16.59,42.361-26.475c26.121,15.533,48.714,31.418,67.776,47.656
			c3.53,2.825,5.295,5.649,5.296,8.472c-0.001,8.473-4.591,12.709-13.767,12.708C930.561,90.499,918.206,89.087,903.381,86.262
			L903.381,86.262z M1.102,209.108c30.358,8.473,70.954,12.709,121.787,12.708h38.124V86.262c0-40.948-1.412-69.541-4.236-85.78
			c39.536,4.943,73.777,14.121,102.724,27.535c8.472,2.825,12.708,6.708,12.708,11.649c0,6.355-4.943,11.297-14.827,14.826
			c-14.121,4.237-29.299,7.414-45.537,9.531v157.793h42.361l46.596-50.832c25.416,16.945,49.42,34.242,72.013,51.892
			c5.648,2.824,8.472,6.355,8.473,10.59c-0.001,12.003-3.884,18.004-11.65,18.003H211.845v248.868
			c1.411-0.706,2.824-1.412,4.236-2.118c36.713-19.768,79.073-45.891,127.082-78.367l4.236,22.239
			c-38.831,34.595-73.072,61.777-102.724,81.544c-11.296,8.472-22.239,15.886-32.829,22.239v356.887
			c0,24.004-4.943,42.008-14.827,54.01c-7.766,12.002-19.415,21.18-34.947,27.534c-12.708,7.06-24.357,10.59-34.947,10.59
			l-2.118-18.004c-1.412-7.06-3.883-12.708-7.413-16.944c-6.354-8.472-17.65-15.886-33.888-22.239
			c-18.356-7.766-39.184-12.708-62.482-14.826v-24.357c36.006,10.59,68.483,15.885,97.429,15.885c17.65,0,28.946-2.118,33.889-6.354
			c5.648-4.237,8.472-14.827,8.472-31.771V578.704c-2.824,2.118-5.648,3.883-8.472,5.295
			c-26.829,16.945-55.069,31.771-84.721,44.479c-7.06,25.416-12.355,38.124-15.886,38.124c-5.648,0-22.592-28.24-50.832-84.721
			c40.948-9.884,78.014-21.886,111.196-36.006c16.238-4.942,32.477-11.296,48.715-19.063V251.468h-38.124
			c-49.421,0.707-83.31,2.119-101.666,4.236L1.102,209.108z"/>
	</g>
	<g id="text3024" transform="scale(0.98309627,1.0171944)">
		<path id="path3035" sodipodi:nodetypes="cccccccccccccccccccccccccsccccccccccccscccccc" inkscape:connector-curvature="0" d="
			M593.163,437.528v208.299c85.456,14.956,209.104,22.433,232.605,22.433c3.56,0,6.765-1.068,9.614-3.205
			c2.848-2.136,5.697-5.697,8.546-10.682c2.848-5.697,5.34-13.175,7.478-22.433c2.136-10.682,4.628-33.114,7.477-67.297
			c3.56-42.728,5.34-85.1,5.341-127.116H593.163z M850.336,406.549l38.456-38.455c22.075,12.819,40.235,25.282,54.479,37.387
			c7.12,5.697,10.682,10.326,10.683,13.886c-0.001,7.834-12.82,20.653-38.456,38.456c-2.85,63.381-6.41,113.586-10.682,150.617
			c-3.561,37.031-7.834,62.669-12.818,76.911c-4.273,13.53-8.547,22.788-12.818,27.773c-4.273,4.985-10.327,8.902-18.16,11.75
			c-7.122,4.272-18.873,7.833-35.251,10.682c-4.986-13.53-19.532-23.5-27.365-29.91c-8.547-7.833-58.696-13.53-77.211-17.091
			c-15.667-4.986-74.619-10.326-128.028-16.023v188.004c0,11.395,2.136,21.72,6.409,30.978c7.121,11.395,21.72,19.584,43.797,24.569
			c27.06,4.986,130.412,7.478,171.717,7.478c34.181,0,61.955-2.137,83.32-6.409c14.954-2.849,25.992-6.053,33.114-9.614
			c7.12-4.273,12.106-10.326,14.955-18.159c4.272-8.545,9.613-61.244,16.024-158.094h16.023l-4.273,102.547
			c1.423,21.364,3.916,33.47,7.478,36.319c2.847,8.546,11.037,14.955,24.569,19.228c7.833,4.273,11.749,11.394,11.75,21.364
			c0,5.697-2.138,11.038-6.409,16.023c-7.122,8.545-18.873,15.667-35.251,21.364c-19.228,5.697-40.949,9.97-65.161,12.819
			c-30.622,3.56-60.532,5.341-89.729,5.341c-52.699,0-163.885-2.848-195.218-8.545c-32.047-4.273-54.48-13.175-67.297-26.706
			c-11.395-14.242-17.092-37.743-17.092-70.501V363.821l69.433,42.728H850.336z"/>
	</g>
</g>
</svg>
