<?xml version="1.0" encoding="utf-8"?>
<!-- Generator: Adobe Illustrator 16.0.3, SVG Export Plug-In . SVG Version: 6.00 Build 0)  -->
<!DOCTYPE svg PUBLIC "-//W3C//DTD SVG 1.1//EN" "http://www.w3.org/Graphics/SVG/1.1/DTD/svg11.dtd">
<svg version="1.1"
	 id="svg2985" sodipodi:docname="" inkscape:version="0.48.2 r9819" xmlns:dc="http://purl.org/dc/elements/1.1/" xmlns:cc="http://creativecommons.org/ns#" xmlns:rdf="http://www.w3.org/1999/02/22-rdf-syntax-ns#" xmlns:svg="http://www.w3.org/2000/svg" xmlns:sodipodi="http://sodipodi.sourceforge.net/DTD/sodipodi-0.dtd" xmlns:inkscape="http://www.inkscape.org/namespaces/inkscape"
	 xmlns="http://www.w3.org/2000/svg" xmlns:xlink="http://www.w3.org/1999/xlink" x="0px" y="0px" width="1000px" height="1000px"
	 viewBox="0 0 1000 1000" enable-background="new 0 0 1000 1000" xml:space="preserve">
<sodipodi:namedview  inkscape:window-maximized="1" inkscape:current-layer="layer1" inkscape:window-y="-8" inkscape:guide-bbox="true" inkscape:pageopacity="0.0" inkscape:pageshadow="2" inkscape:window-width="1280" inkscape:window-height="974" inkscape:window-x="1272" inkscape:cy="617.8934" inkscape:cx="116.45282" inkscape:zoom="0.45634842" showguides="true" showgrid="false" id="base" pagecolor="#ffffff" bordercolor="#666666" borderopacity="1.0">
	<sodipodi:guide  position="200" orientation="horizontal" id="guide5596"></sodipodi:guide>
</sodipodi:namedview>
<g id="layer1" inkscape:groupmode="layer" inkscape:label="Layer 1">
	<g id="text2992" transform="scale(1.008691,0.99138386)">
		<path id="path3019" d="M440.997-0.456c13.328,7.016,25.604,14.031,36.827,21.045c12.627,6.314,22.448,12.277,29.464,17.888
			c8.417,6.314,14.028,11.926,16.834,16.835c3.509,4.21,5.261,8.419,5.263,12.627c-0.001,13.329-2.456,24.202-7.367,32.619
			l-1.051,1.052h294.628l49.455-59.978c27.357,20.344,52.611,40.337,75.76,59.978c6.311,3.508,9.469,7.717,9.469,12.627
			c-0.002,10.523-5.612,15.784-16.836,15.783h-761.82c-49.806,0.702-83.829,2.106-102.068,4.209L49.563,87.932
			c30.166,9.12,70.851,13.68,122.06,13.679h313.568c-0.704-1.402-1.405-3.156-2.106-5.261c-2.808-10.522-7.368-20.343-13.679-29.463
			c-5.611-9.119-11.575-18.238-17.888-27.358c-7.015-8.417-16.487-17.186-28.409-26.306L440.997-0.456z M214.661,167.903
			l64.186,34.724h454.568l28.409-34.724c37.179,22.448,55.768,37.881,55.769,46.298c-0.001,7.717-9.822,17.889-29.464,30.515v56.821
			c5.609,4.209,10.871,8.069,15.785,11.574c2.805,1.404,4.208,3.858,4.209,7.365c-0.001,11.225-2.807,16.836-8.418,16.836H264.116
			c-2.105,4.209-5.612,7.718-10.523,10.522c-10.524,3.508-19.291,5.262-26.307,5.261c-8.418,0.001-12.628-4.208-12.627-12.626
			V167.903H214.661z M265.169,306.799h472.454V232.09H265.169V306.799z M190.46,417.284v88.389h281.998v-88.389H190.46z
			 M190.46,534.082v29.463c-0.001,11.926,4.559,22.448,13.679,31.568c16.133,11.224,50.157,19.291,102.067,24.202
			c62.433,4.911,141.699,7.365,237.804,7.365c89.089,0,160.992-1.403,215.709-4.209c37.881-2.104,66.291-4.56,85.232-7.364
			c18.238-2.805,31.216-7.016,38.933-12.626c9.82-5.612,22.798-43.845,38.933-114.694h15.784l-4.211,50.507
			c1.403,21.046,3.857,32.971,7.368,35.776c2.805,8.416,10.87,14.73,24.202,18.941c7.014,4.209,10.521,11.225,10.523,21.045
			c-0.002,5.615-4.211,10.876-12.628,15.784c-15.433,8.418-40.337,15.433-74.709,21.045c-39.985,5.614-86.635,9.821-139.948,12.626
			c-64.541,3.508-128.375,5.262-191.508,5.261c-105.224,0.001-189.403-2.805-252.538-8.417
			c-63.134-4.909-106.977-13.678-131.53-26.307c-23.149-14.029-34.727-37.529-34.726-70.5V344.679l68.396,42.09h568.209
			l28.411-33.672c36.477,22.448,54.715,37.881,54.716,46.298c-0.001,7.717-9.469,17.538-28.41,29.463v66.292
			c7.014,6.313,13.328,11.574,18.941,15.781c3.509,2.104,5.262,4.562,5.262,7.365c0,10.523-2.808,15.784-8.417,15.784
			L190.46,534.082L190.46,534.082z M522.967,505.672h256.747v-88.389H522.967V505.672z M356.818,668.769
			c31.565,6.314,57.873,14.03,78.919,23.15c6.312,2.105,9.469,5.613,9.469,10.522c-0.001,4.909-5.964,9.12-17.888,12.627
			c-13.328,2.803-25.955,4.207-37.88,4.207c-13.329,14.029-28.411,25.955-45.246,35.777c-19.643,12.625-41.038,24.203-64.186,34.723
			v131.532c14.028-1.405,27.358-3.157,39.985-5.261c29.463-3.508,61.731-9.47,96.806-17.888
			c34.371-7.015,74.707-16.132,121.007-27.358l4.208,19.995c-36.478,16.134-68.746,28.411-96.805,36.828
			c-29.464,11.224-57.874,20.341-85.231,27.359c-25.254,7.716-51.911,14.381-79.971,19.993c-7.015,25.256-12.276,37.88-15.785,37.88
			c-6.312,0-23.148-28.059-50.506-84.176c6.313-0.702,11.927-1.406,16.836-2.105V811.874c-12.629,4.909-24.202,9.47-34.726,13.678
			c-25.253,9.822-52.262,18.591-81.021,26.307c-31.566,10.52-64.888,19.291-99.961,26.306l-15.785-19.993
			c42.088-10.522,78.919-21.746,110.485-33.671c30.165-11.926,59.978-24.552,89.439-37.881
			c30.165-15.435,56.469-30.164,78.92-44.194c20.343-11.925,36.476-24.203,48.404-36.828
			C338.227,695.076,348.4,682.799,356.818,668.769z M853.474,757.155c-20.344,9.821-42.441,18.592-66.291,26.308
			c-21.747,7.717-43.844,14.381-66.29,19.993c-16.135,4.911-31.567,9.12-46.3,12.627c9.119,7.015,17.888,12.978,26.307,17.888
			c21.747,14.731,51.909,29.462,90.493,44.193c35.775,16.135,71.551,28.06,107.328,35.777c31.568,9.119,64.186,15.433,97.859,18.94
			v13.679c-42.792,0-68.398,12.277-76.814,36.829c-47.002-12.627-85.233-27.008-114.696-43.142
			c-42.089-16.134-77.866-35.425-107.329-57.874c-35.777-23.851-65.24-49.107-88.387-75.761
			c-25.956-28.059-48.405-59.978-67.343-95.754l24.203-8.418c22.448,32.269,43.844,58.223,64.185,77.866
			c8.417,7.716,16.835,14.729,25.254,21.045c19.641-8.418,36.826-16.134,51.561-23.15c18.238-9.821,35.424-19.995,51.56-30.515
			c14.729-9.823,28.059-20.343,39.984-31.569c12.627-9.821,22.096-19.642,28.409-29.463c54.014,32.973,81.02,53.666,81.022,62.082
			c-0.002,8.418-7.016,12.627-21.046,12.627C878.727,761.367,867.503,759.964,853.474,757.155L853.474,757.155z"/>
		<path id="path3021" sodipodi:nodetypes="cccccccc" inkscape:connector-curvature="0" d="M102.068,132.533
			c-0.327,102.793,1.39,139.788-4.21,236.025c-2.807,41.771-7.015,78.9-12.628,111.386C64.612,574.157,60.695,603.563,20.96,711.84
			L5.176,697.046C34.028,490.297,77.975,234.504,38.933,72.488l72.603,34.809L102.068,132.533z"/>
	</g>
	<g id="flowRoot2998">
	</g>
</g>
</svg>
