<?xml version="1.0" encoding="UTF-8" standalone="no"?>
<!-- Created with Inkscape (http://www.inkscape.org/) -->

<svg
   xmlns:dc="http://purl.org/dc/elements/1.1/"
   xmlns:cc="http://creativecommons.org/ns#"
   xmlns:rdf="http://www.w3.org/1999/02/22-rdf-syntax-ns#"
   xmlns:svg="http://www.w3.org/2000/svg"
   xmlns="http://www.w3.org/2000/svg"
   xmlns:sodipodi="http://sodipodi.sourceforge.net/DTD/sodipodi-0.dtd"
   xmlns:inkscape="http://www.inkscape.org/namespaces/inkscape"
   width="1000"
   height="1000"
   id="svg2985"
   version="1.1"
   inkscape:version="0.48.2 r9819"
   sodipodi:docname="Z1239.svg">
  <defs
     id="defs5498" />
  <sodipodi:namedview
     inkscape:window-height="974"
     inkscape:window-width="1280"
     inkscape:pageshadow="2"
     inkscape:pageopacity="0.0"
     borderopacity="1.0"
     bordercolor="#666666"
     pagecolor="#ffffff"
     id="base"
     showgrid="false"
     showguides="true"
     inkscape:guide-bbox="true"
     inkscape:zoom="0.454"
     inkscape:cx="711.67336"
     inkscape:cy="409.75924"
     inkscape:window-x="1272"
     inkscape:window-y="-8"
     inkscape:current-layer="layer1"
     inkscape:window-maximized="1">
    <sodipodi:guide
       orientation="horizontal"
       position="200"
       id="guide5596" />
  </sodipodi:namedview>
  <metadata
     id="metadata5594">
    <rdf:RDF>
      <cc:Work
         rdf:about="">
        <dc:format>image/svg+xml</dc:format>
        <dc:type
           rdf:resource="http://purl.org/dc/dcmitype/StillImage" />
        <dc:title></dc:title>
      </cc:Work>
    </rdf:RDF>
  </metadata>
  <g
     inkscape:label="Layer 1"
     inkscape:groupmode="layer"
     id="layer1"
     style="display:inline">
    <g
       transform="matrix(0.97290261,0,0,1.0188466,-0.00458179,0)"
       style="font-size:1095.62011719px;font-style:normal;font-variant:normal;font-weight:normal;font-stretch:normal;text-align:start;line-height:125%;letter-spacing:0px;word-spacing:0px;writing-mode:lr-tb;text-anchor:start;fill:#000000;fill-opacity:1;stroke:none;font-family:PMingLiU;-inkscape-font-specification:PMingLiU"
       id="text2992">
      <path
         d="M 97.901814,0.93657017 C 145.69234,18.76973 183.49691,36.958717 211.31562,55.503588 c 24.25172,14.97993 42.44071,29.602449 54.56701,43.867602 7.84592,9.98683 11.76904,19.97294 11.76936,29.95836 -3.2e-4,23.53938 -6.77661,35.30873 -20.32889,35.30807 -7.84653,6.6e-4 -14.97947,-1.78258 -21.39883,-5.3497 -5.70663,-2.85252 -11.76963,-9.98546 -18.18901,-21.39884 C 201.32925,110.78461 184.2102,89.385799 166.37807,73.692594 146.40564,55.860998 119.65713,37.672011 86.132458,19.125576 z M 12.306493,266.28207 c 45.650734,18.54618 81.672062,37.09182 108.064097,55.63696 22.82523,15.69295 39.94427,31.02877 51.35719,46.00748 7.84601,10.69986 11.76913,21.04262 11.76936,31.02831 -2.3e-4,23.53911 -6.77652,35.30845 -20.32889,35.30807 -7.13315,3.8e-4 -13.90944,-1.78285 -20.32889,-5.34971 -4.99325,-2.85279 -10.6996,-10.34237 -17.11907,-22.46877 C 110.02766,379.33966 93.621908,357.58421 76.502984,341.17797 57.243933,321.91952 31.565362,302.6606 -0.53280544,283.40113 z m 265.345497,296.3738 8.55953,20.32889 c -26.3922,50.64408 -56.70717,103.07116 -90.94503,157.2814 C 160.31486,797.32973 123.93689,852.96663 86.132458,907.17704 81.852563,944.26822 77.572801,962.81385 73.293159,962.814 66.873397,962.81385 43.691354,936.06534 3.7469606,882.56838 51.537584,842.62388 101.46814,790.91009 153.53877,727.42686 205.60901,664.65711 246.98004,609.73351 277.65199,562.65587 z"
         id="path3005"
         inkscape:connector-curvature="0"
         sodipodi:nodetypes="cccccccccccccccccccccccccccc" />
    </g>
    <g
       transform="matrix(0.98729445,0,0,1.0039949,-0.00458179,0)"
       style="font-size:1084.40661621px;font-style:normal;font-variant:normal;font-weight:normal;font-stretch:normal;text-align:start;line-height:125%;letter-spacing:0px;word-spacing:0px;writing-mode:lr-tb;text-anchor:start;fill:#000000;fill-opacity:1;stroke:none;font-family:PMingLiU;-inkscape-font-specification:PMingLiU"
       id="text3014">
      <path
         d="m 509.25683,538.33419 c 35.29913,4.23625 67.06882,9.88419 95.30918,16.94386 6.35331,1.41225 9.53028,5.29522 9.53092,11.64889 -6.4e-4,7.0602 -3.8836,13.06114 -11.6489,18.00285 -9.88453,4.94219 -21.53342,8.82516 -34.9467,11.6489 l 0,22.23881 c -5.9e-4,46.59575 -4.94254,89.30834 -14.82587,128.13789 -10.59048,38.12371 -24.35734,70.59939 -41.30064,97.42715 -18.35636,27.53372 -43.41912,53.65547 -75.18835,78.36533 -31.06416,25.41565 -70.24679,49.41942 -117.54799,72.01137 l -18.00284,-16.94385 c 46.59523,-24.70991 82.24788,-48.36069 106.95807,-70.95239 23.29735,-24.00385 43.06516,-48.36061 59.30349,-73.07036 14.11937,-21.8858 26.47425,-51.53751 37.06468,-88.95523 9.17738,-39.53554 13.76634,-81.54214 13.76688,-126.01991 l 0,-13.76689 c -5.4e-4,-31.76947 -2.82451,-54.00825 -8.47193,-66.71642 z m 216.03414,0 c 38.12288,7.06022 69.18658,16.59113 93.19119,28.59275 5.6471,3.53023 8.47107,8.11919 8.47193,13.76689 -8.6e-4,3.53021 -3.88382,6.70718 -11.6489,9.53091 -10.59074,6.35418 -22.23963,11.29613 -34.9467,14.82587 l 0,283.80955 c -8.1e-4,15.53179 1.05818,25.76869 3.17697,30.71073 4.94115,9.88381 12.70707,15.53176 23.2978,16.94386 13.41304,2.11787 31.06287,3.17686 52.94954,3.17697 25.41487,-1.1e-4 43.4177,-1.0591 54.00853,-3.17697 9.17698,-2.11809 15.53092,-8.82503 19.06184,-20.12083 7.76497,-16.23793 14.8249,-53.30257 21.17982,-111.19404 l 15.88486,4.23597 0,83.66027 c -0.001,9.88384 4.58796,19.06175 13.76688,27.53376 16.94287,11.2958 25.41477,20.47371 25.41577,27.53377 -10e-4,6.35381 -3.884,11.64876 -11.64889,15.88486 -7.76695,5.64781 -22.23981,10.23676 -43.41862,13.76688 -24.71074,5.64779 -58.24542,8.47177 -100.60413,8.47193 -28.9466,-1.6e-4 -54.36236,-1.05915 -76.24734,-3.17698 -18.35663,-2.11813 -31.06451,-8.82507 -38.12367,-20.12082 -6.35471,-9.17805 -9.53168,-24.3569 -9.53092,-45.53661 l 0,-308.16633 c -7.6e-4,-23.29756 -1.41274,-46.94833 -4.23596,-70.95239 z M 496.54894,46.962444 c 30.35719,8.472698 57.53793,19.062596 81.5423,31.769725 4.23536,3.530714 6.35334,7.06068 6.35394,10.589909 -6e-4,5.648682 -3.88357,10.237638 -11.64889,13.766882 -14.12047,4.23668 -27.18134,6.35466 -39.18267,6.35394 -11.29644,23.2985 -24.35732,45.89028 -39.18266,67.77542 -14.82637,21.88644 -31.41721,43.77222 -49.77257,65.65743 -15.53232,20.47438 -32.47615,38.12421 -50.83156,52.94954 -15.53226,16.94437 -36.35906,34.2412 -62.48046,51.89055 l -18.00284,-13.76688 c 26.8274,-20.47331 49.41919,-42.71209 67.77541,-66.71642 20.4734,-26.12119 39.53522,-54.00792 57.18551,-83.66028 18.35536,-30.35706 33.53421,-60.36177 45.5366,-90.014219 5.64744,-15.531117 9.8834,-31.062967 12.70789,-46.595597 z m 144.02276,15.884863 65.65743,0 31.76973,-32.828716 c 21.88502,13.414667 40.59384,28.240524 56.12651,44.477615 4.23514,2.824725 6.35312,6.354691 6.35394,10.589908 -8.2e-4,4.942694 -3.17779,9.53165 -9.53091,13.766881 -7.06075,4.942685 -14.82667,8.472645 -23.2978,10.589905 9.88311,19.76853 23.29698,39.53634 40.24165,59.30349 17.649,17.65049 36.71081,34.59432 57.18551,50.83156 21.1789,15.53246 43.06469,28.94633 65.65743,40.24165 21.88483,12.00245 48.00658,21.18036 78.36531,27.53376 l 0,22.23881 c -15.53287,5.2e-4 -28.24075,2.1185 -38.12366,6.35395 -15.53285,6.35445 -25.76975,13.76737 -30.71073,22.2388 -30.35868,-14.11937 -59.3044,-34.59317 -86.83725,-61.42146 -24.71064,-25.41521 -48.00842,-53.65494 -69.8934,-84.71927 -23.29858,-31.06307 -39.88942,-61.42077 -49.77257,-91.07321 l -8.47192,-7.412939 -84.71927,0 z M 589.74014,207.92905 c 31.76908,11.29651 58.94982,22.23941 81.54229,32.82872 4.94126,4.23654 7.41224,8.8255 7.41294,13.76688 -7e-4,6.35451 -6.00165,10.59047 -18.00285,12.70789 -13.41455,2.82453 -22.94546,4.23652 -28.59275,4.23596 -16.94449,26.8283 -36.3593,52.59705 -58.24449,77.30633 -19.76841,23.29826 -40.94821,44.47805 -63.53945,63.53945 -13.41441,9.88432 -26.82828,19.41523 -40.24166,28.59276 24.70927,-0.70561 47.30105,-1.7646 67.77542,-3.17698 43.06502,-1.41159 90.01357,-4.23557 140.84578,-8.47192 39.53491,-2.82358 83.30649,-6.35355 131.31486,-10.58991 -6.35477,-7.05953 -12.70871,-13.41347 -19.06183,-19.06184 -21.18061,-21.17937 -50.47933,-44.47714 -87.89624,-69.89339 l 12.70789,-11.6489 c 34.59292,16.94434 64.95063,34.24118 91.07321,51.89055 26.12092,16.94429 46.94772,31.06416 62.48046,42.35963 14.11897,11.29631 24.70887,21.18021 31.76972,29.65175 6.35302,7.06031 10.94197,14.12024 13.76689,21.17981 3.52902,5.64831 5.294,12.35525 5.29495,20.12083 -0.70694,19.06216 -8.11987,28.59307 -22.23881,28.59275 -5.64887,3.2e-4 -10.59082,-1.41167 -14.82587,-4.23596 -4.94286,-3.52965 -16.23875,-17.64951 -33.88771,-42.35964 -4.94282,-7.76556 -10.23777,-14.47249 -15.88486,-20.12082 -46.59641,7.7663 -87.54401,14.12024 -122.84294,19.06183 -44.4783,7.0603 -87.54389,13.06124 -129.19688,18.00285 -37.41824,4.94229 -76.95386,9.53125 -118.60697,13.76688 -9.88439,28.24006 -17.29732,42.35992 -22.23881,42.35963 -6.3544,2.9e-4 -24.71023,-31.06341 -55.06752,-93.19119 15.53144,-0.70561 30.0043,-1.41161 43.41862,-2.11798 20.47335,-17.64945 37.77018,-33.88729 51.89055,-48.71358 16.23734,-19.06139 32.12219,-39.88818 47.65459,-62.48046 15.5313,-21.88529 28.59217,-42.71209 39.18266,-62.48046 9.17732,-19.06126 16.59025,-39.53506 22.23881,-61.42147 z"
         id="path3019"
         inkscape:connector-curvature="0"
         sodipodi:nodetypes="cccccccccccccccccccccccccscccccccccsccccccccccsccccccccccccccccccccccccccccccccccccccccccccccccccccccccccccc" />
    </g>
  </g>
</svg>
