<?xml version="1.0" encoding="UTF-8" standalone="no"?>
<!-- Created with Inkscape (http://www.inkscape.org/) -->

<svg
   xmlns:dc="http://purl.org/dc/elements/1.1/"
   xmlns:cc="http://creativecommons.org/ns#"
   xmlns:rdf="http://www.w3.org/1999/02/22-rdf-syntax-ns#"
   xmlns:svg="http://www.w3.org/2000/svg"
   xmlns="http://www.w3.org/2000/svg"
   xmlns:sodipodi="http://sodipodi.sourceforge.net/DTD/sodipodi-0.dtd"
   xmlns:inkscape="http://www.inkscape.org/namespaces/inkscape"
   width="1000"
   height="1000"
   id="svg2985"
   version="1.1"
   inkscape:version="0.48.2 r9819"
   sodipodi:docname="新文件 2">
  <defs
     id="defs5498" />
  <sodipodi:namedview
     inkscape:window-height="974"
     inkscape:window-width="1280"
     inkscape:pageshadow="2"
     inkscape:pageopacity="0.0"
     borderopacity="1.0"
     bordercolor="#666666"
     pagecolor="#ffffff"
     id="base"
     showgrid="false"
     showguides="true"
     inkscape:guide-bbox="true"
     inkscape:zoom="0.454"
     inkscape:cx="500"
     inkscape:cy="500"
     inkscape:window-x="1272"
     inkscape:window-y="-8"
     inkscape:current-layer="layer1"
     inkscape:window-maximized="1">
    <sodipodi:guide
       orientation="horizontal"
       position="200"
       id="guide5596" />
  </sodipodi:namedview>
  <metadata
     id="metadata5594">
    <rdf:RDF>
      <cc:Work
         rdf:about="">
        <dc:format>image/svg+xml</dc:format>
        <dc:type
           rdf:resource="http://purl.org/dc/dcmitype/StillImage" />
        <dc:title></dc:title>
      </cc:Work>
    </rdf:RDF>
  </metadata>
  <g
     inkscape:label="Layer 1"
     inkscape:groupmode="layer"
     id="layer1">
    <g
       transform="scale(0.98757826,1.012578)"
       style="font-size:1064.14819336px;font-style:normal;font-variant:normal;font-weight:normal;font-stretch:normal;text-align:start;line-height:125%;letter-spacing:0px;word-spacing:0px;writing-mode:lr-tb;text-anchor:start;fill:#000000;fill-opacity:1;stroke:none;font-family:PMingLiU;-inkscape-font-specification:PMingLiU"
       id="text2992">
      <path
         d="m 412.47535,0.055089 c 32.56136,9.0072725 62.00553,20.43854 88.33261,34.293838 4.84911,4.15761 7.27392,7.968032 7.27445,11.43128 -5.3e-4,6.23601 -4.85016,10.739237 -14.5489,13.509694 -15.93501,4.157584 -30.4839,6.235996 -43.6467,6.235243 -9.00693,11.778423 -18.70619,22.863289 -29.0978,33.254631 -10.39251,10.392785 -22.17018,21.477645 -35.33305,33.254635 -11.08527,9.00714 -23.20935,17.32079 -36.37225,24.94097 -6.92842,4.15749 -13.85646,8.66071 -20.78415,13.50969 l 411.52606,0 34.29384,-45.72511 c 24.94015,14.54958 42.95306,29.09846 54.03878,43.6467 4.84877,5.54308 7.27359,10.39271 7.27445,14.5489 -8.6e-4,6.23587 -13.85694,17.32074 -41.56829,33.25463 l 0,270.19388 87.2934,0 50.92116,-59.23481 c 25.63279,20.09171 50.22734,39.83663 73.78374,59.23481 5.5414,3.46435 8.3126,7.62118 8.3136,12.47048 -10e-4,10.39239 -5.5434,15.58842 -16.62729,15.58811 l -203.68461,0 0,378.27143 c -8.2e-4,23.55527 -5.54325,41.22177 -16.62732,52.99957 -9.00725,11.08474 -22.17053,20.09119 -39.48987,27.01939 -14.54965,7.62069 -27.71293,11.43111 -39.48988,11.43128 -7.2e-4,-16.62747 -3.81114,-28.40514 -11.43128,-35.33305 -7.62155,-8.31378 -22.17044,-15.58822 -43.6467,-21.82335 -22.8632,-7.62095 -48.84336,-12.47058 -77.94054,-14.5489 l 0,-23.90177 c 51.95972,10.39199 99.0704,15.58803 141.33218,15.58811 16.62657,-8e-5 27.71144,-1.7321 33.25463,-5.19604 5.54167,-3.4641 8.31289,-12.81695 8.31366,-28.05859 l 0,-356.44808 -490.50581,0 c -2.8e-4,49.1894 -3.1179,95.26087 -9.35286,138.21456 -3.4643,38.7972 -10.73874,77.94063 -21.82335,117.43042 -9.69951,31.86904 -22.51639,60.96681 -38.45067,87.29341 -13.8563,24.94091 -31.8692,48.84265 -54.03878,71.70529 -18.70587,19.39841 -45.032422,38.79692 -78.979745,58.19561 L 41.478371,980.0275 c 22.86247,-17.32027 42.95379,-36.37238 60.274019,-57.1564 15.93437,-18.01301 29.79045,-37.41153 41.56829,-58.1956 12.47031,-23.55539 22.86237,-49.88195 31.17622,-78.97975 11.08466,-35.33298 18.70551,-71.01239 22.86255,-107.03835 6.92782,-48.49614 10.39184,-103.22767 10.39208,-164.19474 l -87.29341,0 c -48.496433,0.69311 -81.751031,2.07872 -99.763893,4.15683 L 0.94928932,472.89437 C 30.739842,481.90117 70.576078,486.4044 120.45812,486.40407 l 87.29341,0 C 208.4441,340.91554 207.05849,223.13883 203.5947,133.07361 l 58.1956,37.41146 24.94097,0 c 18.70541,-13.16263 33.9471,-26.67231 45.72512,-40.52908 14.54853,-15.9338 28.05821,-32.214701 40.52908,-48.842738 11.77728,-18.012169 22.16934,-36.025076 31.17622,-54.038775 4.1564,-9.005662 6.92761,-18.0121155 8.31366,-27.019388 z m -154.84188,486.348981 490.50581,0 0,-287.8604 -490.50581,0 z M 404.16169,248.42561 c 29.09735,17.32068 54.7311,34.64078 76.90133,51.96037 22.86204,15.93501 40.87494,29.79109 54.03878,41.56828 11.77711,11.77815 21.12997,21.13101 28.0586,28.0586 4.15623,7.62129 7.62025,14.89574 10.39207,21.82335 3.46342,6.23567 5.19543,12.4709 5.19603,18.70573 -0.6934,20.09173 -7.96785,30.13739 -21.82335,30.13701 -4.1574,3.8e-4 -8.31423,-1.73163 -12.47048,-5.19604 -4.1574,-3.46363 -13.85666,-17.31972 -29.09781,-41.56828 -14.54942,-24.24772 -30.83032,-46.07105 -48.84274,-65.47006 -18.7062,-20.09083 -43.99355,-42.26056 -75.86212,-66.50926 z"
         id="path2997"
         inkscape:connector-curvature="0"
         sodipodi:nodetypes="cccccccccccccccccccccccccccccsccccccccccccccccccsccccccccccccccccccccccccc" />
    </g>
  </g>
</svg>
