<?xml version="1.0" encoding="utf-8"?>
<!-- Generator: Adobe Illustrator 16.0.3, SVG Export Plug-In . SVG Version: 6.00 Build 0)  -->
<!DOCTYPE svg PUBLIC "-//W3C//DTD SVG 1.1//EN" "http://www.w3.org/Graphics/SVG/1.1/DTD/svg11.dtd">
<svg version="1.1"
	 id="svg2985" sodipodi:docname="唳隞2" inkscape:version="0.48.2 r9819" xmlns:dc="http://purl.org/dc/elements/1.1/" xmlns:cc="http://creativecommons.org/ns#" xmlns:rdf="http://www.w3.org/1999/02/22-rdf-syntax-ns#" xmlns:svg="http://www.w3.org/2000/svg" xmlns:sodipodi="http://sodipodi.sourceforge.net/DTD/sodipodi-0.dtd" xmlns:inkscape="http://www.inkscape.org/namespaces/inkscape"
	 xmlns="http://www.w3.org/2000/svg" xmlns:xlink="http://www.w3.org/1999/xlink" x="0px" y="0px" width="1000px" height="1000px"
	 viewBox="0 0 1000 1000" enable-background="new 0 0 1000 1000" xml:space="preserve">
<sodipodi:namedview  inkscape:window-maximized="1" inkscape:current-layer="layer1" inkscape:window-y="-8" inkscape:guide-bbox="true" inkscape:pageopacity="0.0" inkscape:pageshadow="2" inkscape:window-width="1280" inkscape:window-height="974" inkscape:window-x="1272" inkscape:cy="500" inkscape:cx="500" inkscape:zoom="0.454" showguides="true" showgrid="false" id="base" pagecolor="#ffffff" bordercolor="#666666" borderopacity="1.0">
	<sodipodi:guide  position="200" orientation="horizontal" id="guide5596"></sodipodi:guide>
</sodipodi:namedview>
<g id="layer1" inkscape:groupmode="layer" inkscape:label="Layer 1">
	<g id="text2992" transform="scale(0.98757826,1.012578)">
		
			<path id="path2997" sodipodi:nodetypes="cccccccccccccccccccccccccccccsccccccccccccccccccsccccccccccccccccccccccccc" inkscape:connector-curvature="0" d="
			M412.476,0.055c32.561,9.007,62.006,20.439,88.333,34.294c4.848,4.158,7.274,7.968,7.274,11.431c0,6.236-4.85,10.739-14.549,13.51
			c-15.935,4.158-30.484,6.236-43.647,6.235c-9.006,11.779-18.706,22.863-29.098,33.255c-10.393,10.393-22.17,21.477-35.333,33.255
			c-11.085,9.007-23.209,17.321-36.372,24.941c-6.929,4.158-13.857,8.661-20.785,13.51h411.526l34.294-45.725
			c24.941,14.549,42.953,29.098,54.038,43.647c4.849,5.543,7.274,10.393,7.275,14.549c-0.001,6.236-13.857,17.321-41.568,33.255
			v270.194h87.293l50.921-59.235c25.633,20.092,50.227,39.837,73.784,59.235c5.542,3.464,8.313,7.621,8.314,12.47
			c-0.001,10.393-5.543,15.588-16.627,15.588H793.865v378.271c-0.001,23.555-5.543,41.222-16.627,52.999
			c-9.007,11.085-22.171,20.091-39.491,27.02c-14.549,7.621-27.712,11.431-39.49,11.431c-0.001-16.628-3.811-28.405-11.431-35.333
			c-7.621-8.314-22.171-15.588-43.647-21.823c-22.863-7.621-48.843-12.471-77.941-14.549v-23.901
			c51.96,10.392,99.071,15.588,141.333,15.588c16.626,0,27.711-1.732,33.254-5.196s8.313-12.816,8.314-28.058V514.463H257.633
			c0,49.189-3.118,95.261-9.353,138.215c-3.464,38.797-10.739,77.941-21.824,117.43c-9.699,31.869-22.516,60.967-38.45,87.294
			c-13.857,24.941-31.87,48.843-54.038,71.706c-18.706,19.399-45.033,38.796-78.98,58.196l-13.51-7.275
			c22.862-17.32,42.953-36.373,60.274-57.156c15.934-18.014,29.79-37.412,41.568-58.196c12.47-23.556,22.862-49.882,31.176-78.98
			c11.085-35.333,18.706-71.012,22.862-107.038c6.928-48.495,10.393-103.227,10.393-164.195h-87.293
			c-48.497,0.693-81.752,2.079-99.765,4.157L0.95,472.895c29.79,9.007,69.627,13.51,119.509,13.51h87.293
			c0.692-145.489-0.693-263.266-4.157-353.331l58.196,37.411h24.941c18.706-13.163,33.947-26.672,45.725-40.529
			c14.549-15.934,28.059-32.215,40.529-48.843c11.777-18.012,22.17-36.025,31.176-54.039
			C408.317,18.069,411.089,9.062,412.476,0.055z M257.633,486.404h490.506V198.544H257.633V486.404z M404.161,248.426
			c29.098,17.321,54.732,34.641,76.902,51.96c22.862,15.935,40.875,29.791,54.038,41.568c11.777,11.778,21.131,21.131,28.059,28.059
			c4.157,7.621,7.621,14.896,10.393,21.823c3.463,6.236,5.195,12.471,5.195,18.706c-0.693,20.092-7.967,30.138-21.823,30.137
			c-4.157,0.001-8.314-1.731-12.47-5.196c-4.158-3.463-13.857-17.319-29.098-41.568c-14.55-24.248-30.83-46.071-48.843-65.47
			c-18.706-20.091-43.994-42.26-75.862-66.509L404.161,248.426z"/>
	</g>
</g>
</svg>
