<?xml version="1.0" encoding="utf-8"?>
<!-- Generator: Adobe Illustrator 14.0.0, SVG Export Plug-In . SVG Version: 6.00 Build 43363)  -->
<!DOCTYPE svg PUBLIC "-//W3C//DTD SVG 1.1//EN" "http://www.w3.org/Graphics/SVG/1.1/DTD/svg11.dtd">
<svg version="1.1"
	 id="svg2985" xmlns:dc="http://purl.org/dc/elements/1.1/" xmlns:cc="http://creativecommons.org/ns#" xmlns:rdf="http://www.w3.org/1999/02/22-rdf-syntax-ns#" xmlns:svg="http://www.w3.org/2000/svg" xmlns:sodipodi="http://sodipodi.sourceforge.net/DTD/sodipodi-0.dtd" xmlns:inkscape="http://www.inkscape.org/namespaces/inkscape" inkscape:version="0.48.2 r9819" sodipodi:docname="唳隞2"
	 xmlns="http://www.w3.org/2000/svg" xmlns:xlink="http://www.w3.org/1999/xlink" x="0px" y="0px" width="1000px" height="1000px"
	 viewBox="0 0 1000 1000" enable-background="new 0 0 1000 1000" xml:space="preserve">
<sodipodi:namedview  id="base" showguides="true" showgrid="false" pagecolor="#ffffff" bordercolor="#666666" borderopacity="1.0" inkscape:cy="500" inkscape:cx="500" inkscape:zoom="0.454" inkscape:current-layer="layer1" inkscape:window-y="106" inkscape:window-x="1548" inkscape:guide-bbox="true" inkscape:pageopacity="0.0" inkscape:pageshadow="2" inkscape:window-width="880" inkscape:window-height="779" inkscape:window-maximized="0">
	<sodipodi:guide  id="guide5596" orientation="horizontal" position="200"></sodipodi:guide>
</sodipodi:namedview>
<g id="layer1" inkscape:label="Layer 1" inkscape:groupmode="layer">
	<g id="text2992" transform="scale(0.98531545,1.0149034)">
		
			<path id="path2997" sodipodi:nodetypes="cccccccccccccccccccccsccccccccccccccccccccccccccccccccccccsccccsccccccccccccccccc" inkscape:connector-curvature="0" d="
			M88.804,17.671C132.11,36.131,166.542,54.944,192.1,74.112c22.718,14.91,39.402,29.818,50.051,44.727
			c8.52,9.94,12.778,20.234,12.779,30.883c-0.001,22.719-8.52,34.078-25.558,34.078c-6.39,0-12.425-1.419-18.104-4.26
			c-5.68-2.839-11.715-10.294-18.104-22.363c-14.199-26.977-29.463-48.985-45.792-66.025c-17.749-18.458-41.532-36.917-71.35-55.376
			L88.804,17.671z M220.853,483.041l8.52,15.974c-21.299,61.055-44.727,124.95-70.285,191.685
			c-26.268,70.995-53.955,139.149-83.064,204.464c-4.26,34.078-8.874,51.116-13.844,51.116s-25.913-25.913-62.83-77.739
			c37.627-46.146,77.738-108.266,120.335-186.36C162.282,606.926,196.005,540.546,220.853,483.041L220.853,483.041z
			 M368.877,163.565l63.895,46.856h170.387v-30.883c-0.001-72.414-2.841-132.049-8.52-178.907
			c34.787,4.971,64.249,11.715,88.389,20.234c9.228,1.421,13.843,6.39,13.844,14.909c-0.001,4.97-4.616,9.94-13.844,14.909
			c-9.23,5.68-18.814,10.65-28.753,14.909v144.829h162.933l34.078-46.856c25.557,14.91,44.016,29.818,55.376,44.727
			c4.969,5.68,7.453,10.65,7.454,14.909c-0.001,6.39-14.2,17.75-42.597,34.078v292.853h8.52l51.116-58.57
			c26.977,19.879,52.535,39.402,76.675,58.57c5.678,3.55,8.518,7.809,8.519,12.778c0,12.069-5.325,18.104-15.974,18.104h-381.24
			c-10.651,36.207-23.074,69.574-37.273,100.102c-20.588,48.987-48.631,91.228-84.128,126.726
			c-45.437,46.146-89.453,82.354-132.049,108.621c-51.827,29.817-107.557,52.535-167.193,68.154l-12.778-18.103
			c87.322-32.658,152.637-67.445,195.945-104.362c41.176-31.948,77.028-69.93,107.556-113.946
			c26.268-36.918,48.986-82.709,68.155-137.375c3.549-9.939,6.389-19.879,8.519-29.817h-184.23
			c-49.697,0.71-83.774,2.129-102.233,4.26l-20.233-46.856c29.817,7.809,69.219,11.714,118.206,11.714V234.914
			C377.395,207.227,374.556,183.444,368.877,163.565L368.877,163.565z M424.252,550.131h150.153
			c7.099-30.527,13.133-63.54,18.104-99.038c7.099-58.215,10.649-119.98,10.65-185.296v-26.623H424.252V550.131z M654.275,239.174
			v26.623c-0.001,104.362-6.39,186.361-19.168,245.996c-2.131,14.2-4.616,26.979-7.454,38.338h197.009V239.174H654.275z
			 M680.898,682.18c51.115,27.688,95.841,56.086,134.179,85.193c39.046,26.268,69.928,48.277,92.648,66.025
			c22.008,18.458,38.336,33.722,48.986,45.791c7.809,12.779,13.843,24.493,18.104,35.142c5.679,9.94,8.519,20.589,8.52,31.948
			c-0.711,19.879-8.166,29.818-22.364,29.818c-7.81,0-15.264-2.485-22.364-7.454c-7.81-5.68-24.848-27.688-51.116-66.026
			c-25.559-37.627-54.311-70.994-86.258-100.102c-33.368-31.948-77.74-67.8-133.115-107.556L680.898,682.18z"/>
	</g>
</g>
</svg>
