<?xml version="1.0" encoding="utf-8"?>
<!-- Generator: Adobe Illustrator 16.0.3, SVG Export Plug-In . SVG Version: 6.00 Build 0)  -->
<!DOCTYPE svg PUBLIC "-//W3C//DTD SVG 1.1//EN" "http://www.w3.org/Graphics/SVG/1.1/DTD/svg11.dtd">
<svg version="1.1"
	 id="svg2985" sodipodi:docname="Z1242.svg" inkscape:version="0.48.2 r9819" xmlns:dc="http://purl.org/dc/elements/1.1/" xmlns:cc="http://creativecommons.org/ns#" xmlns:rdf="http://www.w3.org/1999/02/22-rdf-syntax-ns#" xmlns:svg="http://www.w3.org/2000/svg" xmlns:sodipodi="http://sodipodi.sourceforge.net/DTD/sodipodi-0.dtd" xmlns:inkscape="http://www.inkscape.org/namespaces/inkscape"
	 xmlns="http://www.w3.org/2000/svg" xmlns:xlink="http://www.w3.org/1999/xlink" x="0px" y="0px" width="1000px" height="1000px"
	 viewBox="0 0 1000 1000" enable-background="new 0 0 1000 1000" xml:space="preserve">
<sodipodi:namedview  inkscape:window-maximized="1" inkscape:current-layer="layer1" inkscape:window-y="1" inkscape:guide-bbox="true" inkscape:pageopacity="0.0" inkscape:pageshadow="2" inkscape:window-width="1262" inkscape:window-height="956" inkscape:window-x="1281" inkscape:cy="482.56817" inkscape:cx="518.71602" inkscape:zoom="0.63662138" showguides="true" showgrid="false" id="base" pagecolor="#ffffff" bordercolor="#666666" borderopacity="1.0">
	<sodipodi:guide  position="200" orientation="horizontal" id="guide5596"></sodipodi:guide>
</sodipodi:namedview>
<g id="layer1" inkscape:groupmode="layer" inkscape:label="Layer 1">
	<g id="text2992" transform="scale(0.96444149,1.0368695)">
		<path id="path2997" sodipodi:nodetypes="csccccccccccsccccccccscccccsccscc" inkscape:connector-curvature="0" d="M428.54,38.286
			c27.274,4.896,66.436,7.343,117.487,7.343h305.259l33.568-46.156c25.874,16.085,44.406,31.121,55.597,45.107
			c5.593,4.896,8.39,9.441,8.391,13.637c-0.001,6.994-13.987,18.183-41.96,33.568v79.282h10.563l45.107-47.205
			c23.077,16.784,44.406,33.219,63.989,49.303c5.594,2.798,8.39,6.294,8.391,10.49c0,10.49-4.547,15.735-13.636,15.735H906.883
			v72.109c13.986,9.79,27.273,19.231,39.863,28.323c4.194,2.797,6.292,5.595,6.293,8.392c-0.001,11.888-3.148,17.833-9.44,17.833
			H565.959c-48.954,0.699-82.172,2.098-99.655,4.196l-22.028-46.156c30.77,7.693,71.332,11.21,121.683,11.539h294.768V199.39
			H517.439c-48.954,0.699-82.522,2.098-100.704,4.196l-19.931-46.156c30.071,9.092,70.282,13.637,120.635,13.637h343.288V76.05
			H546.028c-55.946,0-89.864,1.399-101.752,4.196L428.54,38.286z"/>
	</g>
	<g id="text2999" transform="scale(0.9798199,1.0205957)">
		<path id="path3004" sodipodi:nodetypes="ccccccsccccccccccccccccccccccccccccccccccccccc" inkscape:connector-curvature="0" d="
			M75.619,76.075c53.28,11.919,79.92,22.785,79.921,32.599c-0.001,11.919-11.218,19.28-33.651,22.084
			c-3.506,29.445-9.815,60.992-18.929,94.643c-1.402,4.908-2.805,9.465-4.206,13.671H201.81V84.487
			c0-37.856-1.052-65.899-3.155-84.127c39.259,4.207,72.209,11.568,98.849,22.083c9.114,4.207,13.67,9.465,13.67,15.774
			c0,6.31-4.557,10.517-13.67,12.619c-12.619,6.31-27.692,10.166-45.218,11.567v176.667h34.702l46.27-50.476
			c25.238,18.228,48.723,35.404,70.457,51.528c6.309,3.506,9.463,7.712,9.463,12.619c0,11.218-4.557,16.826-13.67,16.825H252.286
			v248.174c42.064-16.824,89.735-39.259,143.016-67.301l4.206,19.98c-44.167,31.548-83.777,56.435-118.829,74.662
			c-9.815,5.609-19.28,10.517-28.393,14.722v321.165c0,15.424,0.701,25.939,2.103,31.547c1.402,12.619,2.103,22.785,2.104,30.496
			c-0.001,23.135-10.867,34.702-32.599,34.702c-16.826,0-25.239-5.958-25.239-17.877c0-14.722,0.351-33.651,1.052-56.786
			c1.401-24.537,2.103-45.919,2.103-64.147V586.094c-9.115,4.908-18.228,9.114-27.342,12.62
			c-31.548,16.124-64.497,29.444-98.849,39.96c-7.011,25.238-12.268,37.857-15.773,37.857c-5.608,0-22.434-28.043-50.476-84.128
			c46.97-7.711,89.034-18.227,126.19-31.548c21.031-5.608,43.114-12.969,66.25-22.083V269.567H90.342
			c-6.31,20.331-13.321,40.311-21.032,59.941c-13.321,39.961-26.64,72.91-39.961,98.849L0.957,407.325
			c16.124-42.764,29.094-83.776,38.908-123.036c11.918-38.557,20.331-76.064,25.238-112.519
			C71.413,136.717,74.918,104.819,75.619,76.075z"/>
	</g>
	<g id="text3006" transform="scale(1.0110341,0.98908632)">
		
			<path id="path3011" sodipodi:nodetypes="cccccccccccccccccccccccccccccccccccccccccccccsccccccsccccccccc" inkscape:connector-curvature="0" d="
			M498.532,358.661c14.497,5.8,27.546,11.961,39.144,18.484c5.074,4.35,7.61,8.699,7.611,13.048
			c-0.001,5.8-6.162,9.787-18.485,11.961c-13.774,2.9-23.559,4.35-29.358,4.349c-13.048,28.271-26.459,54.729-40.232,79.375h434.472
			l34.795-35.882c22.471,10.149,40.23,22.109,53.279,35.882c5.073,5.8,7.61,11.236,7.611,16.31
			c-0.001,10.874-14.499,21.385-43.493,31.533c-0.001,70.314-3.988,165.923-11.961,246.385
			c-7.974,79.737-18.123,133.741-30.445,162.011c-6.525,16.672-14.861,28.995-25.008,36.969c-7.25,5.8-16.311,10.874-27.183,15.223
			c-16.673,7.974-35.883,11.961-57.629,11.961c-1.451-10.148-4.35-17.759-8.698-22.833c-2.176-4.35-7.975-8.337-17.398-11.961
			c-18.848-7.249-52.193-16.311-100.034-27.183l5.436-25.009c81.912,13.773,129.754,20.659,143.528,20.66
			c9.422,0,17.397-2.175,23.922-6.524c6.523-3.625,11.96-9.786,16.309-18.485c4.349-8.698,9.06-22.471,14.136-41.318
			c5.797-26.821,10.872-69.952,15.222-129.392c4.349-60.891,6.886-150.338,7.611-227.901H439.816
			c-18.122,29.721-37.332,55.817-57.629,78.288c-22.472,25.372-49.654,51.467-81.549,78.288l-16.309-8.698
			c26.82-30.446,49.291-59.078,67.414-85.899c15.947-23.921,30.807-50.017,44.58-78.288c14.497-28.994,26.82-55.815,36.969-80.462
			c6.524-18.847,12.322-39.143,17.397-60.891C454.098,352.388,468.562,346.901,498.532,358.661L498.532,358.661z M422.812,587.152
			l52.193,40.231h257.697l29.358-44.58c24.645,15.223,42.767,29.72,54.366,43.493c5.074,5.074,7.611,9.423,7.611,13.048
			c0,5.8-13.048,16.31-39.143,31.533v131.567c4.349,3.625,8.336,6.887,11.961,9.786c2.899,1.45,4.349,3.262,4.349,5.437
			c-0.001,11.598-2.901,17.397-8.699,17.397H470.655v34.795c-0.001,9.423-5.437,14.135-16.31,14.135
			c-5.799,0-13.048-2.174-21.746-6.523c-6.525-6.524-9.787-14.498-9.787-23.921c0-12.323,0.362-27.908,1.088-46.755
			c2.174-15.223,3.262-47.48,3.262-96.772v-52.192C427.161,631.008,425.711,607.449,422.812,587.152L422.812,587.152z
			 M470.655,805.706h262.046l8.698-7.611V657.828H471.741l-1.087,4.35V805.706z"/>
	</g>
</g>
</svg>
