<?xml version="1.0" encoding="utf-8"?>
<!-- Generator: Adobe Illustrator 16.0.3, SVG Export Plug-In . SVG Version: 6.00 Build 0)  -->
<!DOCTYPE svg PUBLIC "-//W3C//DTD SVG 1.1//EN" "http://www.w3.org/Graphics/SVG/1.1/DTD/svg11.dtd">
<svg version="1.1"
	 id="svg2985" sodipodi:docname="唳隞2" inkscape:version="0.48.2 r9819" xmlns:dc="http://purl.org/dc/elements/1.1/" xmlns:cc="http://creativecommons.org/ns#" xmlns:rdf="http://www.w3.org/1999/02/22-rdf-syntax-ns#" xmlns:svg="http://www.w3.org/2000/svg" xmlns:sodipodi="http://sodipodi.sourceforge.net/DTD/sodipodi-0.dtd" xmlns:inkscape="http://www.inkscape.org/namespaces/inkscape"
	 xmlns="http://www.w3.org/2000/svg" xmlns:xlink="http://www.w3.org/1999/xlink" x="0px" y="0px" width="1000px" height="1000px"
	 viewBox="0 0 1000 1000" enable-background="new 0 0 1000 1000" xml:space="preserve">
<sodipodi:namedview  inkscape:window-maximized="0" inkscape:current-layer="layer1" inkscape:window-y="1" inkscape:guide-bbox="true" inkscape:pageopacity="0.0" inkscape:pageshadow="2" inkscape:window-width="1255" inkscape:window-height="953" inkscape:window-x="1283" inkscape:cy="643.03456" inkscape:cx="726.34553" inkscape:zoom="0.59751202" showguides="true" showgrid="false" id="base" pagecolor="#ffffff" bordercolor="#666666" borderopacity="1.0">
	<sodipodi:guide  position="200" orientation="horizontal" id="guide5596"></sodipodi:guide>
</sodipodi:namedview>
<g id="layer1" inkscape:groupmode="layer" inkscape:label="Layer 1">
	<g id="text2992" transform="scale(0.98448865,1.0157557)">
		
			<path id="path2997" sodipodi:nodetypes="cccccccccscccccccccccccccccccccscccccccccccccsccccccccccscccccccccccccccccscccccccccccscccccc" inkscape:connector-curvature="0" d="
			M188.184,0.209c33.978,11.79,63.45,23.925,88.414,36.406c4.854,4.161,7.281,8.669,7.281,13.522c0,5.548-6.935,9.362-20.803,11.442
			c-15.256,2.775-26.351,4.161-33.286,4.161c-18.03,62.411-37.793,122.394-59.29,179.95c-1.387,4.855-2.773,8.669-4.16,11.442
			c27.738,12.483,41.606,22.191,41.606,29.125c0,6.935-11.095,15.603-33.285,26.004v564.815c-0.001,22.189,2.08,38.832,6.24,49.928
			c2.08,9.014,3.121,16.989,3.121,23.924c0,20.803-12.482,31.899-37.446,33.285c-14.563,0-21.844-5.2-21.844-15.602V353.868
			c-6.241,13.869-12.829,27.392-19.764,40.567c-24.964,42.994-54.089,87.721-87.374,134.182L0.953,515.095
			c29.818-47.848,54.782-93.616,74.892-137.303c17.336-37.446,33.632-78.706,48.888-123.781
			c15.95-46.46,29.472-89.454,40.567-128.981C175.008,86.891,182.636,45.284,188.184,0.209z M313.004,37.655l58.25,37.447h474.319
			l28.085-41.607c52.7,36.06,79.051,59.291,79.052,69.691c-0.001,11.096-16.297,24.965-48.888,41.607v359.9
			c0,60.331,3.467,116.846,10.403,169.548c6.239,49.929,15.601,94.309,28.084,133.142c3.467,9.708,6.934,14.563,10.402,14.563
			c4.854,0,7.974-2.774,9.362-8.321c9.014-20.804,22.536-68.652,40.567-143.544l12.482,11.442
			c-11.096,88.762-16.643,141.464-16.642,158.106c-0.001,27.045,3.119,48.542,9.361,64.492c4.854,15.256,7.28,28.084,7.281,38.486
			c-0.001,17.335-4.161,26.003-12.482,26.004c-10.403-0.001-20.804-4.854-31.206-14.563c-22.191-22.19-41.954-53.743-59.29-94.656
			c-18.724-39.527-32.94-90.842-42.647-153.945c-10.403-63.103-15.603-128.634-15.602-196.593V103.186H367.093v250.682
			c0,63.104-2.427,122.394-7.281,177.869c-2.081,48.542-7.628,98.124-16.643,148.745c-6.935,41.607-15.95,79.746-27.044,114.419
			c-9.708,30.511-22.537,60.33-38.486,89.455c-13.869,24.964-32.592,49.928-56.17,74.892l-13.522-8.321
			c15.256-21.497,28.085-45.421,38.487-71.771c10.402-23.578,19.764-48.196,28.085-73.853c8.32-29.818,15.255-64.144,20.803-102.977
			c6.24-45.767,11.095-91.881,14.563-138.343c4.854-62.41,7.28-132.448,7.281-210.115
			C317.164,221.419,315.777,116.015,313.004,37.655L313.004,37.655z M625.056,102.4v206.701h99.857l33.286-45.768
			c24.27,15.949,42.3,30.859,54.089,44.727c4.854,5.548,7.281,10.402,7.281,14.563c0,6.241-13.869,16.99-41.606,32.245v345.338
			c-0.001,23.577-4.161,41.26-12.483,53.049c-7.628,11.788-18.03,20.803-31.205,27.045c-11.789,6.934-22.191,10.402-31.205,10.402
			l-3.121-27.045c-0.694-2.774-1.388-4.854-2.081-6.242c-3.468-9.708-9.708-17.336-18.723-22.884
			c-9.708-6.935-21.15-11.095-34.325-12.482v-26.004c18.722,11.789,35.365,17.683,49.929,17.683c15.255,0,25.31-2.428,30.164-7.282
			c4.854-4.16,7.281-14.215,7.282-30.164V338.225H625.056v616.863c0,12.481-12.483,19.763-37.446,21.843
			c-9.016,0-13.523-5.894-13.522-17.683V338.225h-99.857v403.587c-0.001,5.548-3.814,10.403-11.442,14.563
			c-10.402,4.161-19.07,6.242-26.004,6.242c-8.322,0-12.483-4.508-12.483-13.522V276.855l63.451,32.245h86.334V102.4H625.056z"/>
	</g>
</g>
</svg>
