<?xml version="1.0" encoding="utf-8"?>
<!-- Generator: Adobe Illustrator 16.0.3, SVG Export Plug-In . SVG Version: 6.00 Build 0)  -->
<!DOCTYPE svg PUBLIC "-//W3C//DTD SVG 1.1//EN" "http://www.w3.org/Graphics/SVG/1.1/DTD/svg11.dtd">
<svg version="1.1"
	 id="svg2985" sodipodi:docname="喲2" inkscape:version="0.48.2 r9819" xmlns:dc="http://purl.org/dc/elements/1.1/" xmlns:cc="http://creativecommons.org/ns#" xmlns:rdf="http://www.w3.org/1999/02/22-rdf-syntax-ns#" xmlns:svg="http://www.w3.org/2000/svg" xmlns:sodipodi="http://sodipodi.sourceforge.net/DTD/sodipodi-0.dtd" xmlns:inkscape="http://www.inkscape.org/namespaces/inkscape"
	 xmlns="http://www.w3.org/2000/svg" xmlns:xlink="http://www.w3.org/1999/xlink" x="0px" y="0px" width="1000px" height="1000px"
	 viewBox="0 0 1000 1000" enable-background="new 0 0 1000 1000" xml:space="preserve">
<sodipodi:namedview  inkscape:window-maximized="0" inkscape:current-layer="layer1" inkscape:window-y="4" inkscape:guide-bbox="true" inkscape:pageopacity="0.0" inkscape:pageshadow="2" inkscape:window-width="1260" inkscape:window-height="954" inkscape:window-x="1283" inkscape:cy="500" inkscape:cx="500" inkscape:zoom="0.454" showguides="true" showgrid="false" id="base" pagecolor="#ffffff" bordercolor="#666666" borderopacity="1.0">
	<sodipodi:guide  position="200" orientation="horizontal" id="guide5596"></sodipodi:guide>
</sodipodi:namedview>
<g id="layer1" inkscape:groupmode="layer" inkscape:label="Layer 1">
	<g id="text2992" transform="scale(1.0331785,0.96788693)">
		
			<path id="path3001" sodipodi:nodetypes="ccccccccccccccccccccccccccccccccccccccccsccccccccccccccccc" inkscape:connector-curvature="0" d="
			M172.889,0.501c23.624,16.243,42.82,32.485,57.586,48.726c12.55,13.29,22.148,26.579,28.794,39.867
			c4.428,8.86,6.644,17.719,6.644,26.578c0,16.243-4.429,26.579-13.289,31.007h122.923l36.543-48.726
			c26.577,16.981,45.772,32.854,57.586,47.619c5.166,5.168,7.751,9.966,7.752,14.396c-0.001,7.383-13.29,19.196-39.867,35.437
			v218.16c-0.001,54.632,1.107,90.438,3.322,107.419c0.736,21.409,1.107,38.39,1.107,50.941c0,10.336-3.692,18.826-11.074,25.47
			c-9.599,4.429-17.35,6.645-23.255,6.644c-15.504,0.001-23.258-4.8-23.257-14.396v-25.47H56.611v341.082
			c22.886-5.168,43.926-10.705,63.123-16.613c33.96-8.859,70.874-21.408,110.741-37.65c34.698-13.289,74.197-31.008,118.493-53.156
			c-5.908-11.072-11.445-21.04-16.611-29.9c-19.933-31.746-46.88-67.183-80.84-106.311l14.395-13.289
			c31.006,27.318,58.324,55.003,81.949,83.056c24.363,27.318,43.558,50.572,57.585,69.768c12.55,18.457,22.517,33.961,29.901,46.51
			c4.428,11.074,8.49,22.15,12.181,33.222c2.953,10.336,4.429,20.673,4.43,31.007c-0.739,21.41-8.492,32.115-23.257,32.115
			c-4.429,0-8.858-2.216-13.289-6.645c-4.43-5.905-14.766-28.424-31.007-67.551c-7.383-17.719-15.135-34.699-23.256-50.943
			c-38.39,25.102-71.613,45.035-99.667,59.8c-35.438,19.195-68.66,35.806-99.667,49.834c-28.793,14.028-59.062,26.209-90.808,36.545
			c-8.12,26.577-14.395,39.866-18.826,39.866c-5.168,0-22.887-29.529-53.156-88.592c3.691-0.739,6.645-1.108,8.859-1.108V174.365
			c0-28.792-2.953-54.263-8.859-76.411L65.47,146.68h163.896c-2.953-2.214-5.907-8.489-8.858-18.826
			c-8.121-24.362-16.241-44.296-24.364-59.8c-8.858-15.503-21.41-32.114-37.652-49.834L172.889,0.501z M56.611,178.794v162.789
			h327.792V178.794H56.611z M56.611,373.699v158.359h327.792V373.699H56.611z"/>
	</g>
	<g id="text3003" transform="scale(1.0244928,0.97609277)">
		<path id="path3008" sodipodi:nodetypes="cccccccccccccccccccccccscccc" inkscape:connector-curvature="0" d="M621.833,89.93
			v920.653c-0.001,8.895-7.041,13.341-21.125,13.341c-6.673,0-15.197-2.223-25.575-6.67c-7.412-5.93-11.118-14.455-11.118-25.573
			c0-12.602,1.111-29.651,3.335-51.148c3.705-17.049,5.558-52.63,5.559-106.742V85.482c-0.001-28.909-2.964-54.112-8.894-75.609
			l66.715,50.036h245.729l34.468-50.036c26.684,16.309,46.328,32.247,58.932,47.812c5.929,5.931,8.893,11.119,8.894,15.567
			c-0.001,6.672-14.825,18.532-44.476,35.581V757.07c-0.001,25.203-5.931,44.474-17.791,57.819
			c-9.637,12.601-22.98,22.238-40.027,28.909c-15.567,6.671-28.91,10.008-40.028,10.008c-0.001-15.567-3.707-27.057-11.118-34.47
			c-8.156-10.377-21.869-18.902-41.141-25.573c-21.498-7.413-45.959-11.861-73.385-13.342v-27.797
			c49.664,12.602,94.51,18.903,134.541,18.902c15.566,0,25.944-2.223,31.133-6.671c5.929-4.447,8.893-14.084,8.894-28.909V89.93
			H621.833z"/>
	</g>
</g>
</svg>
