<?xml version="1.0" encoding="UTF-8" standalone="no"?>
<!-- Created with Inkscape (http://www.inkscape.org/) -->

<svg
   xmlns:dc="http://purl.org/dc/elements/1.1/"
   xmlns:cc="http://creativecommons.org/ns#"
   xmlns:rdf="http://www.w3.org/1999/02/22-rdf-syntax-ns#"
   xmlns:svg="http://www.w3.org/2000/svg"
   xmlns="http://www.w3.org/2000/svg"
   xmlns:sodipodi="http://sodipodi.sourceforge.net/DTD/sodipodi-0.dtd"
   xmlns:inkscape="http://www.inkscape.org/namespaces/inkscape"
   width="1000"
   height="1000"
   id="svg2985"
   version="1.1"
   inkscape:version="0.48.2 r9819"
   sodipodi:docname="Z1242.svg">
  <defs
     id="defs5498" />
  <sodipodi:namedview
     inkscape:window-height="956"
     inkscape:window-width="1262"
     inkscape:pageshadow="2"
     inkscape:pageopacity="0.0"
     borderopacity="1.0"
     bordercolor="#666666"
     pagecolor="#ffffff"
     id="base"
     showgrid="false"
     showguides="true"
     inkscape:guide-bbox="true"
     inkscape:zoom="0.63662138"
     inkscape:cx="518.71602"
     inkscape:cy="482.56817"
     inkscape:window-x="1281"
     inkscape:window-y="1"
     inkscape:current-layer="layer1"
     inkscape:window-maximized="1">
    <sodipodi:guide
       orientation="horizontal"
       position="200"
       id="guide5596" />
  </sodipodi:namedview>
  <metadata
     id="metadata5594">
    <rdf:RDF>
      <cc:Work
         rdf:about="">
        <dc:format>image/svg+xml</dc:format>
        <dc:type
           rdf:resource="http://purl.org/dc/dcmitype/StillImage" />
        <dc:title></dc:title>
      </cc:Work>
    </rdf:RDF>
  </metadata>
  <g
     inkscape:label="Layer 1"
     inkscape:groupmode="layer"
     id="layer1">
    <g
       transform="scale(0.96444149,1.0368695)"
       style="font-size:1074.17260742px;font-style:normal;font-variant:normal;font-weight:normal;font-stretch:normal;text-align:start;line-height:125%;letter-spacing:0px;word-spacing:0px;writing-mode:lr-tb;text-anchor:start;fill:#000000;fill-opacity:1;stroke:none;font-family:PMingLiU-ExtB;-inkscape-font-specification:PMingLiU-ExtB"
       id="text2992">
      <path
         d="m 428.54051,38.285627 c 27.27345,4.89556 66.43595,7.34298 117.48763,7.34298 l 305.25804,0 33.56789,-46.15585002 C 910.7284,15.557627 929.26065,30.593237 940.4509,44.579607 c 5.59368,4.89555 8.39101,9.4412 8.39197,13.63696 -9.6e-4,6.99352 -13.98757,18.18281 -41.95987,33.56789 l 0,79.282533 10.56273,0 45.10686,-47.20485 c 23.07692,16.78405 44.40651,33.21831 63.98881,49.30284 5.5936,2.7974 8.3909,6.29405 8.392,10.48997 0,10.49002 -4.5467,15.73495 -13.637,15.73495 l -114.4134,0 0,72.10866 c 13.98569,9.79056 27.27297,19.23153 39.86188,28.32291 4.19502,2.79723 6.29301,5.59455 6.29398,8.39197 -9.7e-4,11.88852 -3.14796,17.83283 -9.44097,17.83294 l -377.63881,0 c -48.95371,0.69922 -82.17191,2.09788 -99.65469,4.19599 l -22.02893,-46.15585 c 30.77008,7.69256 71.3325,11.20948 121.68362,11.53896 l 294.76807,0 0,-96.23558 -343.28871,0 c -48.95365,0.69938 -82.52151,2.09804 -100.70369,4.19598 l -19.93093,-46.15585 c 30.07081,9.09138 70.28231,13.63696 120.63462,13.63696 l 343.28871,0 0,-95.017483 -314.69901,0 c -55.94699,0 -89.86452,1.39887 -101.75268,4.19599 z"
         style="font-family:PMingLiU;-inkscape-font-specification:PMingLiU"
         id="path2997"
         inkscape:connector-curvature="0"
         sodipodi:nodetypes="csccccccccccsccccccccscccccsccscc" />
    </g>
    <g
       transform="scale(0.9798199,1.0205957)"
       style="font-size:1076.82458496px;font-style:normal;font-variant:normal;font-weight:normal;font-stretch:normal;text-align:start;line-height:125%;letter-spacing:0px;word-spacing:0px;writing-mode:lr-tb;text-anchor:start;fill:#000000;fill-opacity:1;stroke:none;font-family:PMingLiU;-inkscape-font-specification:PMingLiU"
       id="text2999">
      <path
         d="m 75.619453,76.074957 c 53.280227,11.918713 79.920397,22.785096 79.920577,32.599183 -1.8e-4,11.91868 -11.21709,19.27978 -33.65077,22.08332 -3.50543,29.44508 -9.81494,60.99264 -18.92856,94.64278 -1.40224,4.908 -2.80435,9.46487 -4.206344,13.67063 l 103.055474,0 0,-154.583221 c -2.2e-4,-37.85634 -1.05181,-65.898619 -3.15476,-84.12692026 39.25897,4.20716206 72.20865,11.56826026 98.84914,22.08331626 9.11342,4.20714 13.67029,9.465068 13.67062,15.773798 -3.3e-4,6.310295 -4.5572,10.516637 -13.67062,12.619038 -12.61935,6.310283 -27.69208,10.166096 -45.21822,11.567452 l 0,176.666537 34.70235,0 46.26981,-50.47616 c 25.23769,18.22812 48.7231,35.40401 70.45629,51.52774 6.30909,3.50587 9.46384,7.71221 9.46428,12.61904 -4.4e-4,11.21748 -4.55731,16.82594 -13.67062,16.82538 l -147.22211,0 0,248.17442 C 294.34913,500.91623 342.021,478.4824 395.30175,450.43975 l 4.20635,19.98015 c -44.16702,31.54791 -83.77673,56.43543 -118.82928,74.66264 -9.8151,5.60873 -19.27937,10.51613 -28.39283,14.72221 l 0,321.16449 c -2.8e-4,15.42318 0.70078,25.93904 2.10317,31.54759 1.40183,12.61893 2.10289,22.78425 2.10317,30.49601 -2.8e-4,23.13475 -10.86666,34.70219 -32.59918,34.70235 -16.82561,-1.6e-4 -25.2383,-5.95914 -25.23808,-17.87697 -2.2e-4,-14.72234 0.35031,-33.65088 1.05159,-56.78567 1.40189,-24.53708 2.10295,-45.91932 2.10317,-64.14677 l 0,-252.81137 c -9.11396,4.90764 -18.2277,9.11398 -27.34125,12.61904 -31.54776,16.12453 -64.49744,29.44462 -98.849127,39.96029 -7.01067,25.23823 -12.268597,37.85726 -15.773798,37.85711 -5.608539,1.5e-4 -22.433907,-28.04213 -50.476152,-84.12692 46.970783,-7.7114 89.034202,-18.22725 126.190377,-31.54759 21.03155,-5.6082 43.11485,-12.9693 66.24995,-22.08332 l 0,-269.20615 -111.468166,0 c -6.309627,20.33121 -13.320197,40.31133 -21.03173,59.94044 -13.320176,39.96073 -26.640258,72.91041 -39.960287,98.84913 L 0.95681095,407.32471 C 17.081096,364.56065 30.05065,323.54881 39.865512,284.28909 51.783416,245.73149 60.1961,208.22494 65.103588,171.76933 c 6.309423,-35.0522 9.814708,-66.95029 10.515865,-95.694373 z"
         id="path3004"
         inkscape:connector-curvature="0"
         sodipodi:nodetypes="ccccccsccccccccccccccccccccccccccccccccccccccc" />
    </g>
    <g
       transform="scale(1.0110341,0.98908632)"
       style="font-size:1113.42419434px;font-style:normal;font-variant:normal;font-weight:normal;font-stretch:normal;text-align:start;line-height:125%;letter-spacing:0px;word-spacing:0px;writing-mode:lr-tb;text-anchor:start;fill:#000000;fill-opacity:1;stroke:none;font-family:PMingLiU-ExtB;-inkscape-font-specification:PMingLiU-ExtB"
       id="text3006">
      <path
         d="m 498.53215,358.66044 c 14.49725,5.79955 27.54518,11.96107 39.14382,18.48459 5.07371,4.34975 7.61081,8.69906 7.6113,13.04793 -4.9e-4,5.79952 -6.16201,9.78638 -18.48458,11.96062 -13.77329,2.89996 -23.55923,4.34973 -29.35787,4.34931 -13.04837,28.27093 -26.45873,54.72922 -40.23114,79.37497 l 434.47169,0 34.79451,-35.88184 c 22.47045,10.14876 40.23013,22.10936 53.27908,35.88184 5.07317,5.79941 7.61026,11.23605 7.6113,16.30992 -10e-4,10.8736 -14.49873,21.38443 -43.49313,31.53252 -9.9e-4,70.31412 -3.98786,165.92282 -11.96061,246.38497 -7.97472,79.7374 -18.1231,133.74132 -30.44519,162.01192 -6.52492,16.67225 -14.8611,28.9953 -25.00856,36.96916 -7.24977,5.79895 -16.31083,10.87314 -27.1832,15.2226 -16.67325,7.97355 -35.8827,11.96045 -57.6284,11.96065 -1.45062,-10.14859 -4.35016,-17.75988 -8.69863,-22.83393 -2.17549,-4.34945 -7.97457,-8.33632 -17.39725,-11.96061 -18.84783,-7.24898 -52.19253,-16.31004 -100.03421,-27.18321 l 5.43664,-25.00855 c 81.91127,13.77273 129.75366,20.65914 143.52734,20.65923 9.42264,-9e-5 17.39637,-2.17474 23.92122,-6.52397 6.52308,-3.62451 11.95971,-9.78603 16.30993,-18.48458 4.3484,-8.69868 9.06015,-22.4715 14.13527,-41.31847 5.79816,-26.82077 10.87235,-69.95142 15.22259,-129.39207 4.34838,-60.89023 6.88547,-150.33741 7.6113,-227.90039 l -451.86895,0 c -18.1225,29.72059 -37.33195,55.81644 -57.6284,78.28764 -22.47175,25.3712 -49.65493,51.46705 -81.54962,78.28764 l -16.30992,-8.69863 c 26.8205,-30.445 49.29193,-59.07795 67.41435,-85.89894 15.94717,-23.92095 30.80731,-50.0168 44.58046,-78.28764 14.49736,-28.99506 26.8204,-55.8158 36.96916,-80.46229 6.52359,-18.8466 12.32267,-39.14338 17.39726,-60.89039 3.40832,-6.27233 17.87234,-11.75934 47.84244,0 z m -75.72002,228.49154 52.19176,40.23114 257.69681,0 29.35787,-44.58046 c 24.64537,15.22282 42.76749,29.72052 54.36641,43.49314 5.07343,5.07439 7.61053,9.4237 7.6113,13.04794 -7.7e-4,5.79926 -13.0487,16.31009 -39.14382,31.53252 l 0,131.56672 c 4.34858,3.62445 8.33544,6.88643 11.96061,9.78596 2.8988,1.44978 4.34857,3.26199 4.34932,5.43664 -7.5e-4,11.59816 -2.90029,17.39725 -8.69863,17.39725 l -321.84918,0 0,34.79451 c -4.2e-4,9.42345 -5.43706,14.13521 -16.30992,14.13527 -5.79949,-6e-5 -13.04834,-2.17472 -21.74657,-6.52397 -6.52435,-6.52402 -9.78633,-14.49775 -9.78596,-23.92123 -3.7e-4,-12.32307 0.36207,-27.90809 1.08733,-46.75511 2.17428,-15.22257 3.26199,-47.47994 3.26199,-96.77222 l 0,-52.19176 c -3.8e-4,-26.82058 -1.45015,-50.37933 -4.34932,-70.67634 z m 47.84245,218.55299 262.04612,0 8.69863,-7.6113 0,-140.26535 -269.65742,0 -1.08733,4.34931 z"
         id="path3011"
         inkscape:connector-curvature="0"
         sodipodi:nodetypes="cccccccccccccccccccccccccccccccccccccccccccccsccccccsccccccccc" />
    </g>
  </g>
</svg>
