<?xml version="1.0" encoding="utf-8"?>
<!-- Generator: Adobe Illustrator 16.0.3, SVG Export Plug-In . SVG Version: 6.00 Build 0)  -->
<!DOCTYPE svg PUBLIC "-//W3C//DTD SVG 1.1//EN" "http://www.w3.org/Graphics/SVG/1.1/DTD/svg11.dtd">
<svg version="1.1"
	 id="svg2985" sodipodi:docname="喲2" inkscape:version="0.48.2 r9819" xmlns:dc="http://purl.org/dc/elements/1.1/" xmlns:cc="http://creativecommons.org/ns#" xmlns:rdf="http://www.w3.org/1999/02/22-rdf-syntax-ns#" xmlns:svg="http://www.w3.org/2000/svg" xmlns:sodipodi="http://sodipodi.sourceforge.net/DTD/sodipodi-0.dtd" xmlns:inkscape="http://www.inkscape.org/namespaces/inkscape"
	 xmlns="http://www.w3.org/2000/svg" xmlns:xlink="http://www.w3.org/1999/xlink" x="0px" y="0px" width="1000px" height="1000px"
	 viewBox="0 0 1000 1000" enable-background="new 0 0 1000 1000" xml:space="preserve">
<sodipodi:namedview  inkscape:window-maximized="1" inkscape:current-layer="layer1" inkscape:window-y="-8" inkscape:guide-bbox="true" inkscape:pageopacity="0.0" inkscape:pageshadow="2" inkscape:window-width="1280" inkscape:window-height="974" inkscape:window-x="1272" inkscape:cy="520.67648" inkscape:cx="431.92291" inkscape:zoom="0.64205296" showguides="true" showgrid="false" id="base" pagecolor="#ffffff" bordercolor="#666666" borderopacity="1.0">
	<sodipodi:guide  position="200" orientation="horizontal" id="guide5596"></sodipodi:guide>
</sodipodi:namedview>
<g id="layer1" inkscape:groupmode="layer" inkscape:label="Layer 1">
	
		<path id="text2992" sodipodi:nodetypes="ccccccccccccccccccccccccccccsccccccccccccccccccccccccccccccccccccccccccccccccscccccccccccccccccccccccccccccccccccccccccccccsccccc" inkscape:connector-curvature="0" d="
		M190.469,0.5c-3.487,22.823-8.731,42.41-15.705,58.813c-6.276,19.97-14.986,39.938-26.144,59.906
		c-11.855,22.109-25.812,44.934-41.85,68.469c-16.039,22.823-32.048,43.52-48.087,62.063
		c-16.736,19.257-36.609,37.796-59.623,55.625l15.674,20.313c20.224-12.124,38.718-26.727,55.453-43.844
		c16.736-14.263,32.071-29.945,46.02-47.063c13.945-14.978,28.574-33.166,43.917-54.563c14.645-20.682,27.557-41.379,38.715-62.063
		c6.274-13.55,12.899-28.153,19.874-43.844c23.012,21.396,41.843,41.364,56.487,59.906c17.434,20.683,33.104,43.857,47.053,69.531
		c13.945,25.675,23.361,40.659,28.243,44.938c3.486,3.566,7.688,5.344,12.57,5.344c12.552,0,19.176-9.999,19.874-29.969
		c-0.001-7.845-1.412-14.956-4.2-21.375c-2.093-7.131-5.558-14.623-10.438-22.469c-5.579-8.558-14.657-18.906-27.209-31.031
		c-11.855-12.837-28.938-27.82-51.253-44.938c-17.435-16.403-37.646-32.434-60.657-48.125c9.763,0.001,21.602-1.808,35.548-5.375
		c11.854-3.565,17.773-8.549,17.774-14.969c-0.001-5.705-2.423-9.609-7.306-11.75C251.491,14.761,223.244,6.919,190.469,0.5z
		 M450.934,4.75c4.881,21.396,7.304,46.03,7.304,73.844v204.313c0,53.49-1.749,88.092-5.234,103.781
		c-1.396,21.396-2.069,38.507-2.068,51.344c-0.001,9.984,3.128,17.826,9.404,23.531c9.762,3.565,17.798,5.344,24.073,5.344
		c13.249,0,19.874-3.904,19.875-11.75v-47.094h364.006v20.344c-0.002,9.271,7.328,13.906,21.975,13.906
		c5.578,0,12.877-2.158,21.943-6.438c6.972-6.418,10.469-14.608,10.47-24.594c-0.001-12.124-0.338-28.536-1.034-49.219
		c-2.094-16.403-3.136-50.974-3.135-103.75V98.906c25.104-15.689,37.646-27.086,37.646-34.219
		c-0.001-4.278-2.454-8.944-7.335-13.938c-11.158-14.263-29.284-29.596-54.388-46l-34.514,47.094H512.656L450.934,4.75z
		 M504.287,82.844h160.027V215.5H504.286L504.287,82.844z M714.533,82.844h153.76V215.5h-153.76V82.844z M504.287,244.406h160.027
		v132.656H504.287V244.406z M714.533,244.406h153.76v132.656h-153.76V244.406z M295.076,266.875l-41.851,47.063h-78.462
		c-50.906,0.001-91.328-4.285-121.313-12.844l19.873,47.063c18.132-2.139,51.93-3.567,101.44-4.281h4.2v154.063h-46.019
		c-50.905,0-91.696-4.285-122.38-12.845l20.908,47.063c18.131-2.141,51.96-3.567,101.472-4.281h46.019v348.75
		c-16.736,4.279-32.776,8.215-48.118,11.781c-36.959,9.271-78.118,17.111-123.445,23.531c27.895,57.055,44.303,85.594,49.185,85.594
		c4.185,0,9.766-13.206,16.738-39.594c34.171-7.847,66.252-18.194,96.236-31.031c32.775-10.698,66.941-24.223,102.506-40.625
		c33.473-13.551,71.81-32.121,115.045-55.656l-4.169-20.313C330.64,829.57,283.9,845.632,242.756,858.47
		c-4.186,1.427-8.692,2.823-13.573,4.25V527.875h149.559c9.064,0,13.604-6.031,13.604-18.156c-0.001-3.564-2.792-6.803-8.37-9.656
		c-19.525-16.402-40.442-32.783-62.757-49.188l-46.02,47.063h-46.018V343.875h125.515c8.368,0,12.539-6.063,12.539-18.188
		c0-3.565-2.791-6.771-8.37-9.625C338.644,299.659,317.39,283.279,295.076,266.875L295.076,266.875z M328.554,592.063
		c-1.396,12.125-3.513,26.061-6.301,41.75c-2.79,14.265-6.962,30.646-12.539,49.188c-4.883,17.117-10.802,33.528-17.773,49.219
		c-5.579,16.403-12.571,33.515-20.939,51.345l11.505,12.844c9.063-9.984,18.144-19.984,27.209-29.969
		c8.367-12.125,15.33-23.521,20.908-34.22c6.974-9.983,13.967-21.762,20.939-35.313c5.578-11.411,10.792-23.888,15.674-37.438
		c9.065-0.713,19.523-2.84,31.379-6.406c11.666-5.527,14.115-13.418,4.2-20.344C382.593,618.455,357.843,604.9,328.554,592.063
		L328.554,592.063z M53.45,608.125l-12.57,9.625c15.342,31.381,26.169,58.142,32.444,80.25c7.671,22.822,13.59,55.615,17.773,98.406
		c0,10.697,2.791,18.889,8.37,24.594c4.881,3.566,10.095,5.375,15.673,5.375c6.276,0,12.901-4.285,19.875-12.844
		c4.185-8.56,6.3-17.129,6.301-25.688c-0.001-12.124-2.792-25.68-8.37-40.655c-6.974-21.396-16.052-41.015-27.21-58.845
		C92.488,661.242,75.068,634.514,53.45,608.125z"/>
	<g id="text2997" transform="scale(0.98404176,1.016217)">
	</g>
	<g id="text3004" transform="scale(0.97542741,1.0251916)">
		<path id="path3009" sodipodi:nodetypes="cscccccccccccccccccccccccccccccccccccccccccccc" inkscape:connector-curvature="0" d="
			M421.403,610.846c30.57,8.532,71.448,12.798,122.637,12.798h38.392c2.842-24.172,4.265-47.988,4.265-71.449
			c0-54.03-3.912-90.289-11.731-108.772c31.991,2.843,62.206,6.755,90.644,11.731c7.108,1.422,10.662,4.976,10.662,10.664
			c0,7.109-3.554,13.152-10.662,18.128c-7.11,5.688-16.353,10.665-27.727,14.93c0,47.633-1.778,89.223-5.331,124.77h149.141v-98.109
			c-0.001-38.39-1.778-66.827-5.332-85.314c41.234,4.267,75.003,11.732,101.309,22.396c9.953,4.266,14.928,9.597,14.929,15.995
			c-0.001,5.688-4.978,9.953-14.929,12.797c-13.509,6.398-28.438,10.31-44.789,11.73v120.504h62.293l46.922-51.188
			c25.594,17.063,49.765,34.126,72.515,51.188c5.688,3.554,8.53,7.464,8.531,11.73c0,12.086-3.911,18.129-11.731,18.129H832.88
			v221.865c-0.001,15.64,0.711,26.304,2.133,31.992c1.422,12.797,2.132,23.105,2.133,30.926
			c-0.001,23.461-11.375,35.191-34.126,35.191c-17.774,0-26.661-6.043-26.66-18.127c-0.001-14.931,0.711-34.127,2.133-57.586
			c2.132-24.882,3.199-46.566,3.2-65.05V653.503h-152.34c-0.712,7.821-1.778,14.93-3.2,21.328
			c-5.689,43.367-15.998,78.203-30.925,104.508c-13.51,31.28-30.216,58.296-50.121,81.046
			c-19.195,22.75-39.458,42.656-60.785,59.719c-22.75,19.906-51.626,36.575-90.727,54.348l-22.395-18.128
			c47.632-24.883,79.351-45.816,99.257-67.144c23.46-24.172,44.434-51.543,62.918-82.113
			c14.928-31.992,27.725-69.316,38.391-111.972c2.843-14.219,5.331-28.083,7.465-41.59h-35.191
			c-49.766,0.711-83.535,2.133-101.309,4.266L421.403,610.846z"/>
	</g>
</g>
</svg>
