<?xml version="1.0" encoding="utf-8"?>
<!-- Generator: Adobe Illustrator 16.0.3, SVG Export Plug-In . SVG Version: 6.00 Build 0)  -->
<!DOCTYPE svg PUBLIC "-//W3C//DTD SVG 1.1//EN" "http://www.w3.org/Graphics/SVG/1.1/DTD/svg11.dtd">
<svg version="1.1"
	 id="svg2985" sodipodi:docname="喲2" inkscape:version="0.48.2 r9819" xmlns:dc="http://purl.org/dc/elements/1.1/" xmlns:cc="http://creativecommons.org/ns#" xmlns:rdf="http://www.w3.org/1999/02/22-rdf-syntax-ns#" xmlns:svg="http://www.w3.org/2000/svg" xmlns:sodipodi="http://sodipodi.sourceforge.net/DTD/sodipodi-0.dtd" xmlns:inkscape="http://www.inkscape.org/namespaces/inkscape"
	 xmlns="http://www.w3.org/2000/svg" xmlns:xlink="http://www.w3.org/1999/xlink" x="0px" y="0px" width="1000px" height="1000px"
	 viewBox="0 0 1000 1000" enable-background="new 0 0 1000 1000" xml:space="preserve">
<sodipodi:namedview  inkscape:window-maximized="0" inkscape:current-layer="layer1" inkscape:window-y="6" inkscape:guide-bbox="true" inkscape:pageopacity="0.0" inkscape:pageshadow="2" inkscape:window-width="1257" inkscape:window-height="946" inkscape:window-x="1286" inkscape:cy="523.91014" inkscape:cx="431.31688" inkscape:zoom="0.64205296" showguides="true" showgrid="false" id="base" pagecolor="#ffffff" bordercolor="#666666" borderopacity="1.0">
	<sodipodi:guide  position="200" orientation="horizontal" id="guide5596"></sodipodi:guide>
</sodipodi:namedview>
<g id="layer1" inkscape:groupmode="layer" inkscape:label="Layer 1">
	<g id="text2992" transform="scale(0.9842306,1.0160221)">
		
			<path id="path2997" sodipodi:nodetypes="cccccccccccccccsccccccccccccssccccccccccccccccccccccccccccccccc" inkscape:connector-curvature="0" d="
			M-0.65,60.333c30.561,9.24,71.782,13.86,123.666,13.859h243.068l45.842-46.908c23.453,16.347,45.131,32.694,65.031,49.04
			c5.684,2.844,8.528,6.397,8.529,10.661c-0.001,10.661-4.622,15.992-13.86,15.991h-226.01
			c-7.819,28.43-16.348,54.016-25.586,76.758c-10.66,29.141-23.809,58.991-39.445,89.552h185.499l34.115-45.842
			c25.585,15.637,44.064,30.562,55.437,44.776c4.974,4.975,7.461,9.595,7.462,13.859c-0.001,7.108-12.795,18.48-38.381,34.115
			v460.552c0,52.594,1.067,87.064,3.2,103.411c0.708,20.611,1.065,37.313,1.066,50.106c0,9.95-3.554,17.768-10.66,23.454
			c-9.239,3.552-16.703,5.331-22.388,5.331c-14.926,0-22.387-3.909-22.387-11.727v-42.644H80.373v45.842
			c0,8.529-7.462,12.793-22.388,12.793c-5.685,0-13.149-1.776-22.388-5.33c-7.818-5.686-11.727-13.504-11.727-23.454
			c0-12.793,1.068-29.495,3.199-50.105c4.266-16.346,6.397-50.818,6.398-103.411V295.939c-0.001-27.718-3.2-51.883-9.597-72.494
			l65.032,45.842h61.831c9.951-30.561,17.768-61.477,23.455-92.75c4.976-25.586,8.528-50.106,10.66-73.56h-61.832
			c-50.463,0.711-84.932,2.133-103.41,4.264L-0.65,60.333z M80.373,873.76h58.635V300.204H80.373V873.76z M185.916,873.76h82.087
			V682.93h-82.087V873.76z M314.912,873.76h58.636V300.204h-58.636V873.76z M185.916,653.079h82.087V492.1h-82.087V653.079z
			 M185.916,461.183h82.087V300.204h-82.087V461.183z"/>
	</g>
	<g id="text2999" transform="scale(0.98941685,1.0106963)">
		
			<path id="path3007" sodipodi:nodetypes="ccccccccccccccccccccccccccccccccccccccccccccsccccccccccccscccccsccccccccccscccscccccccccccccccccccccccccccc" inkscape:connector-curvature="0" d="
			M490.89,90.623c30.786,7.778,71.367,11.666,121.743,11.666h78.588V86.381c-0.001-38.178-1.402-66.811-4.198-85.901
			c30.785,5.657,56.323,11.666,76.615,18.029c7.696,3.535,11.544,7.778,11.544,12.726c0,3.536-2.799,6.364-8.396,8.484
			c-7.699,4.95-16.093,8.839-25.188,11.666v50.904h100.133l46.178-50.904c23.789,18.383,45.829,35.705,66.12,51.965
			c5.596,3.536,8.396,7.778,8.396,12.726c-0.001,11.313-4.201,16.968-12.594,16.968H741.597V209.4h82.355l46.178-46.662
			c22.388,16.262,43.379,32.523,62.971,48.783c5.595,2.829,8.395,6.364,8.396,10.605c-0.001,10.606-4.549,15.908-13.642,15.907
			H741.597v80.598h148.475l46.178-46.662c22.389,16.968,43.728,33.229,64.02,48.783c4.897,3.535,7.346,7.07,7.347,10.604
			c-0.001,12.02-3.849,18.03-11.545,18.029H581.084c-49.677,0.707-83.262,2.122-100.754,4.242l-22.04-46.662
			c30.786,7.778,71.717,11.666,122.794,11.665H691.22v-80.598h-52.412c-49.677,0.708-82.912,2.122-99.704,4.242l-22.04-46.663
			c30.785,9.192,71.367,13.788,121.743,13.787h52.412v-76.356h-78.587c-48.977,0.708-82.213,1.768-99.705,3.181L490.89,90.623z
			 M510.703,378.019l61.922,46.663h303.31l33.584-46.663c24.49,16.262,42.68,31.462,54.577,45.602
			c4.896,5.656,7.344,10.605,7.345,14.847c-0.001,6.364-12.594,17.322-37.783,32.876v169.68
			c-0.001,53.026,1.048,87.669,3.15,103.928c0.699,20.503,1.047,37.119,1.048,49.845c-0.001,9.898-5.519,17.674-12.515,23.331
			c-9.096,3.534-16.445,5.302-22.04,5.302c-14.695,0-20.019-3.887-20.018-11.664v-22.272H650.288
			c20.99,12.726,38.832,24.391,53.526,34.998c2.097,2.121,3.148,5.655,3.149,10.604c-0.001,6.364-6.647,9.544-19.94,9.544h-29.387
			c-23.789,23.331-48.628,43.127-74.515,59.388c-23.79,18.382-47.928,33.936-72.417,46.662
			c-29.386,16.261-58.772,28.987-88.16,38.179l-13.643-22.269c44.779-21.212,81.511-42.42,110.198-63.632
			c30.787-20.501,54.924-39.946,72.418-58.326c14.693-16.968,27.635-35.35,38.832-55.146h-65.07v25.452
			c-0.001,7.777-7.347,11.665-22.04,11.665c-5.598,0-12.945-1.415-22.04-4.243c-6.998-5.655-10.496-13.432-10.496-23.331
			c0-12.725,0.7-29.341,2.098-49.843c4.199-16.263,6.297-50.906,6.297-103.929V451.195
			C519.098,422.915,493.625,365.15,510.703,378.019L510.703,378.019z M565.278,760.862h318.002v-84.841H565.278V760.862z
			 M565.278,645.266h318.002v-80.598H565.278V645.266z M565.278,536.035h318.002v-81.659H565.278V536.035z M785.753,819.189
			c32.184,7.777,64.371,18.736,96.556,32.876c32.183,13.432,56.672,25.451,73.466,36.058c16.091,10.604,26.936,19.089,32.536,25.451
			c6.295,7.777,11.542,15.554,15.743,23.331c2.797,5.654,4.197,11.312,4.198,16.968c0,14.847-5.948,22.271-17.841,22.271
			c-3.5,0-8.048-2.474-13.643-7.424c-5.598-3.535-11.896-9.545-18.891-18.029c-13.994-12.02-26.239-22.624-36.733-31.815
			c-15.393-9.898-32.885-20.503-52.475-31.816c-22.39-14.846-52.827-32.169-91.307-51.965L785.753,819.189z"/>
	</g>
</g>
</svg>
