<?xml version="1.0" encoding="utf-8"?>
<!-- Generator: Adobe Illustrator 16.0.3, SVG Export Plug-In . SVG Version: 6.00 Build 0)  -->
<!DOCTYPE svg PUBLIC "-//W3C//DTD SVG 1.1//EN" "http://www.w3.org/Graphics/SVG/1.1/DTD/svg11.dtd">
<svg version="1.1"
	 id="svg2985" sodipodi:docname="Z1252.svg" inkscape:version="0.48.2 r9819" xmlns:dc="http://purl.org/dc/elements/1.1/" xmlns:cc="http://creativecommons.org/ns#" xmlns:rdf="http://www.w3.org/1999/02/22-rdf-syntax-ns#" xmlns:svg="http://www.w3.org/2000/svg" xmlns:sodipodi="http://sodipodi.sourceforge.net/DTD/sodipodi-0.dtd" xmlns:inkscape="http://www.inkscape.org/namespaces/inkscape"
	 xmlns="http://www.w3.org/2000/svg" xmlns:xlink="http://www.w3.org/1999/xlink" x="0px" y="0px" width="1000px" height="1000px"
	 viewBox="0 0 1000 1000" enable-background="new 0 0 1000 1000" xml:space="preserve">
<sodipodi:namedview  inkscape:window-maximized="0" inkscape:current-layer="layer1" inkscape:window-y="7" inkscape:guide-bbox="true" inkscape:pageopacity="0.0" inkscape:pageshadow="2" inkscape:window-width="1261" inkscape:window-height="951" inkscape:window-x="1283" inkscape:cy="470.09408" inkscape:cx="629.45251" inkscape:zoom="0.64205296" showguides="true" showgrid="false" id="base" pagecolor="#ffffff" bordercolor="#666666" borderopacity="1.0">
	<sodipodi:guide  position="200" orientation="horizontal" id="guide5596"></sodipodi:guide>
</sodipodi:namedview>
<g id="layer1" inkscape:groupmode="layer" inkscape:label="Layer 1">
	<g id="text3001" transform="scale(0.98949159,1.01062)">
		
			<path id="path3056" sodipodi:nodetypes="cccsccccccccccccccccccsccccccccccccsccccccccccccsccccccsccccccccccccccccccccccccccccccccccccccccccc" inkscape:connector-curvature="0" d="
			M-0.357,135.447c29.849,7.636,69.762,11.454,119.741,11.454h79.133V85.468c0-37.483-1.041-65.249-3.124-83.298
			c38.871,4.166,71.496,11.455,97.874,21.866c9.025,4.166,13.536,9.372,13.536,15.618c0,6.248-4.511,10.413-13.536,12.495
			c-12.495,6.248-27.419,10.066-44.771,11.454V146.9H353.66l49.977-53.103c24.294,18.743,47.548,36.79,69.762,54.144
			c5.552,3.471,8.329,7.289,8.33,11.454c-0.001,11.801-4.166,17.701-12.495,17.701H248.497v103.081h91.628l34.359-45.814
			c24.989,15.966,43.037,30.89,54.143,44.773c4.86,4.86,7.289,9.372,7.289,13.536c0,6.942-12.147,18.048-36.443,33.319v121.823
			c0,51.368,0.694,85.033,2.082,100.999c1.388,20.131,2.081,36.096,2.081,47.897c0,10.412-3.817,18.396-11.452,23.948
			c-9.718,4.166-17.007,6.248-21.866,6.247c-14.578,0.001-21.866-4.165-21.866-12.494v-21.864h-99.958v146.813h83.296l45.814-51.021
			c24.293,18.049,46.855,35.401,67.679,52.06c5.552,3.471,8.33,7.29,8.33,11.455c0,10.412-4.512,15.617-13.536,15.617H248.497
			v128.071c-0.001,16.66,0.694,27.419,2.081,32.278c1.389,11.799,2.081,21.865,2.082,30.196
			c-0.001,22.211-10.761,33.319-32.28,33.319c-16.658,0-24.988-5.206-24.988-15.618c0-15.271,0.345-34.361,1.04-57.268
			c1.389-24.295,2.082-45.814,2.082-64.557v-86.422h-79.133c-48.591,0.696-81.91,2.082-99.958,4.166l-19.783-45.813
			c29.849,9.023,69.762,13.536,119.741,13.535h79.133V592.545H99.601v17.701c0,6.247-4.165,11.108-12.495,14.578
			c-11.107,3.471-19.437,5.205-24.989,5.205c-8.331,0-12.496-3.818-12.495-11.454V246.858l61.432,33.319h87.463V177.096h-79.133
			c-48.591,0.695-81.91,2.083-99.958,4.165L-0.357,135.447z M99.601,564.432h248.853V450.938H99.601V564.432z M99.601,421.783
			h248.853V310.373H99.601V421.783z M702.47,2.17c32.624,5.554,60.389,12.843,83.297,21.866c5.552,1.389,8.33,5.207,8.331,11.454
			c-0.001,6.248-6.248,11.107-18.742,14.577c-6.248,1.389-11.454,2.43-15.619,3.124c13.882,31.931,29.848,60.392,47.897,85.38
			c18.047,28.461,39.219,55.533,63.515,81.216c24.294,24.99,48.936,46.162,73.926,63.515c22.907,15.966,44.771,27.419,65.597,34.361
			v16.659c-37.485,0.001-62.126,11.107-73.927,33.319c-22.214-14.577-41.997-32.277-59.348-53.102
			c-19.439-22.907-36.444-46.854-51.021-71.844c-15.966-22.907-31.585-48.59-46.855-77.051
			c-14.578-28.459-29.85-63.514-45.814-105.164c-10.413,26.379-21.867,49.633-34.36,69.763
			c-16.659,25.684-35.401,51.021-56.227,76.009c-22.908,26.379-44.078,48.938-63.514,67.68
			c-20.825,20.825-43.038,39.567-66.639,56.226c-25.684,20.825-52.756,39.22-81.216,55.185l-15.618-21.866
			c34.013-20.824,63.861-42.342,89.544-64.556c23.602-22.907,47.549-47.549,71.846-73.927
			c23.601-28.459,44.425-55.878,62.473-82.257c16.658-24.294,29.848-48.243,39.566-71.844
			C688.586,51.455,696.221,28.548,702.47,2.17L702.47,2.17z"/>
		
			<path id="path3058" sodipodi:nodetypes="cccccccccccccccccccccccccccccccccsccsccccccccccccc" inkscape:connector-curvature="0" d="
			M846.016,344.63c-37.485,18.742-45.345,17.591-84.216,32.168c-12.495,4.166-24.643,7.984-36.443,11.454v98.78h137.442
			l49.977-58.309c27.765,20.131,53.796,39.567,78.092,58.309c6.246,3.471,9.37,7.984,9.371,13.536
			c0,11.108-5.207,16.66-15.618,16.659H738.893c43.301,98.011,71.369,140.439,119.741,216.667
			c25.683,37.484,51.021,69.761,76.011,96.834c24.987,24.296,48.241,41.648,69.76,52.06v17.701c-35.401,0-58.655,9.371-69.76,28.114
			c-23.603-21.52-44.774-47.549-63.515-78.093c-15.123-28.66-37.276-72.537-53.102-102.039
			c-40.425-79.549-61.349-118.314-92.669-197.922v341.786c-0.001,15.271,0.693,25.683,2.081,31.237
			c1.389,12.494,2.082,22.559,2.083,30.197c-0.001,22.905-11.108,34.36-33.32,34.36c-15.967,0-23.949-5.9-23.948-17.701
			c-0.001-14.579,0.694-33.319,2.081-56.226c0.694-24.297,1.04-45.466,1.041-63.515V586.989
			c-9.026,22.908-18.743,44.428-29.154,64.558c-21.519,47.202-45.814,90.587-72.886,130.153
			c-54.57,85.269-86.279,111.519-155.264,172.099l-12.495-17.702c76.063-76.471,101.071-115.216,146.935-202.295
			c22.212-37.484,41.301-77.745,57.268-120.782c13.187-34.013,23.601-65.944,31.236-95.793h-98.916
			c-48.592,0.001-81.562,1.043-98.915,3.124l-21.866-45.814c30.543,8.33,70.804,12.495,120.782,12.495h133.276v-85.244
			c-20.825,5.553-40.608,10.413-59.35,14.577c-41.65,7.637-67.782,11.905-130.947,16.762l-4.166-21.865
			c73.062-8.678,119.602-18.893,184.051-42.795c35.401-11.799,65.597-23.6,90.587-35.401c9.25-4.171,23.017-14.356,31.114-20.611
			c13.881-11.106,26.378-20.233,37.485-31.34c25.683,15.966,47.895,31.238,66.639,45.814c3.469,2.777,5.205,5.553,5.206,8.329
			c-0.001,9.024-4.513,13.537-13.536,13.536C872.74,348.796,860.592,347.407,846.016,344.63L846.016,344.63z"/>
	</g>
</g>
</svg>
