<?xml version="1.0" encoding="utf-8"?>
<!-- Generator: Adobe Illustrator 16.0.3, SVG Export Plug-In . SVG Version: 6.00 Build 0)  -->
<!DOCTYPE svg PUBLIC "-//W3C//DTD SVG 1.1//EN" "http://www.w3.org/Graphics/SVG/1.1/DTD/svg11.dtd">
<svg version="1.1"
	 id="svg2985" sodipodi:docname="唳隞2" inkscape:version="0.48.2 r9819" xmlns:dc="http://purl.org/dc/elements/1.1/" xmlns:cc="http://creativecommons.org/ns#" xmlns:rdf="http://www.w3.org/1999/02/22-rdf-syntax-ns#" xmlns:svg="http://www.w3.org/2000/svg" xmlns:sodipodi="http://sodipodi.sourceforge.net/DTD/sodipodi-0.dtd" xmlns:inkscape="http://www.inkscape.org/namespaces/inkscape"
	 xmlns="http://www.w3.org/2000/svg" xmlns:xlink="http://www.w3.org/1999/xlink" x="0px" y="0px" width="1000px" height="1000px"
	 viewBox="0 0 1000 1000" enable-background="new 0 0 1000 1000" xml:space="preserve">
<sodipodi:namedview  inkscape:window-maximized="0" inkscape:current-layer="layer1" inkscape:window-y="9" inkscape:guide-bbox="true" inkscape:pageopacity="0.0" inkscape:pageshadow="2" inkscape:window-width="1251" inkscape:window-height="942" inkscape:window-x="1290" inkscape:cy="500" inkscape:cx="500" inkscape:zoom="0.454" showguides="true" showgrid="false" id="base" pagecolor="#ffffff" bordercolor="#666666" borderopacity="1.0">
	<sodipodi:guide  position="200" orientation="horizontal" id="guide5596"></sodipodi:guide>
</sodipodi:namedview>
<g id="layer1" inkscape:groupmode="layer" inkscape:label="Layer 1">
	<g id="text2992" transform="scale(1.0037488,0.99626521)">
		<path id="path2997" sodipodi:nodetypes="ccccccccccccccccccccccccccccccccccccccccccscc" inkscape:connector-curvature="0" d="
			M471.95,245.313c27.918,6.443,68.364,9.665,121.339,9.664h62.28c0.715-22.907,1.073-46.173,1.073-69.797
			c0-93.778-1.432-155.342-4.294-184.693c35.792,2.864,63.352,6.802,82.682,11.812c12.168,2.864,17.538,7.876,16.107,15.033
			c1.431,6.443-2.864,11.455-12.885,15.033c-8.592,3.58-18.614,8.233-30.067,13.959c0,77.314-0.358,143.532-1.073,198.653h183.166
			l37.583-38.657c22.19,11.454,40.445,23.624,54.763,36.509c7.158,5.727,10.737,10.739,10.738,15.033
			c0,6.444-13.244,19.329-39.731,38.657c-4.296,156.059-10.739,279.546-19.328,370.46c-7.876,90.915-16.108,153.553-24.697,187.915
			c-8.592,32.213-18.256,54.405-28.993,66.575c-7.875,12.886-19.687,22.55-35.435,28.993c-14.318,10.737-38.3,20.044-71.945,27.919
			c-3.579-15.749-8.949-26.845-16.107-33.288c-7.876-7.874-20.045-13.959-36.509-18.255c-14.318-5.011-46.533-11.095-96.642-18.255
			l4.294-24.697c75.882,16.465,124.202,24.697,144.962,24.697c12.169,0,23.981-2.147,35.436-6.442
			c10.737-5.011,20.401-14.317,28.993-27.919c10.737-16.465,19.327-37.583,25.771-63.354c7.874-30.066,15.749-91.273,23.624-183.619
			c10.736-118.118,16.106-235.877,16.107-353.279H706.037c-2.148,63.712-5.012,113.823-8.591,150.331
			c-7.875,79.462-20.044,146.395-36.509,200.801c-15.034,59.416-35.078,111.317-60.133,155.701
			c-24.339,43.667-55.838,83.04-94.493,118.117c-37.942,38.657-78.34,66.856-129.166,92.627l-11.811-22.55
			c53.689-33.645,91.94-65.065,122.723-102.29c30.781-32.214,56.553-71.229,77.314-117.045
			c20.043-37.94,37.224-85.903,51.542-143.889c12.884-49.393,22.191-107.736,27.919-175.029
			c5.01-46.531,8.589-98.788,10.738-156.774h-62.28c-57.271,0-91.632,1.432-103.085,4.295L471.95,245.313z"/>
	</g>
	<g id="text2999" transform="scale(0.97435477,1.0263202)">
		
			<path id="path3004" sodipodi:nodetypes="cccccccccccccccccccccccccscccccccccccccccccccccccccccccccccc" inkscape:connector-curvature="0" d="
			M199.769,0.625c37.364,14.101,69.794,27.496,97.289,40.185c4.934,4.936,7.402,9.871,7.403,14.805
			c-0.001,8.461-6.698,14.101-20.092,16.92c-16.215,3.526-27.848,5.288-34.897,5.288c-11.985,69.09-25.732,136.063-41.242,200.922
			c-0.705,3.526-1.41,7.403-2.115,11.633c19.034-1.41,37.364-2.467,54.989-3.173c40.184-1.409,78.253-2.819,114.208-4.229
			c1.409-18.33,2.115-36.307,2.115-53.932c0-14.099-1.41-26.789-4.23-38.069c30.314,4.23,57.456,10.223,81.426,17.977
			c7.755,2.116,11.631,6.346,11.632,12.69c-0.001,4.23-5.994,9.518-17.978,15.862c-12.69,7.051-22.207,11.633-28.552,13.748
			c-0.706,10.575-1.763,20.445-3.173,29.609c26.085-1.409,50.759-3.172,74.024-5.288v17.978
			c-24.675,4.23-50.055,8.108-76.139,11.632c-7.756,60.629-18.682,114.913-32.782,162.853
			c-21.854,76.139-48.292,142.76-79.311,199.865c11.985,8.46,22.207,16.567,30.667,24.322
			c27.494,23.265,45.824,41.947,54.989,56.047c8.459,9.164,14.452,19.387,17.977,30.666c3.525,11.28,5.287,22.56,5.288,33.84
			c-0.001,16.92-7.403,25.38-22.207,25.38c-4.935,0-13.395-8.46-25.379-25.38c-10.576-17.625-33.84-44.414-69.794-80.369
			c-7.051-7.05-13.043-13.395-17.978-19.034c-28.904,45.824-57.81,84.951-86.714,117.38
			c-43.709,47.939-98.345,92.353-163.91,133.243L9.422,942.844c70.499-48.644,125.841-97.289,166.025-145.933
			c26.085-31.019,50.76-66.974,74.024-107.863c-20.445-17.624-39.832-32.077-58.161-43.357
			c-30.316-22.56-61.335-40.185-93.059-52.874l-2.115-1.058c-7.05-2.819-13.747-5.287-20.092-7.402l2.116-2.115l-2.116-1.057
			c20.445-54.989,37.013-106.453,49.702-154.393c7.755-26.789,14.804-55.341,21.15-85.656c-23.97,2.82-47.588,5.288-70.852,7.402
			c-11.279,25.38-19.387,38.07-24.322,38.069c-2.115,0-5.287-2.819-9.518-8.46c-14.804-25.379-28.552-53.579-41.241-84.599
			c51.464,0,103.28-0.705,155.45-2.115c0.705-2.819,1.056-4.582,1.057-5.287c10.574-51.464,19.74-99.756,27.494-144.875
			C191.309,98.972,196.244,52.09,199.769,0.625z M272.736,645.691c1.409-2.114,2.467-4.229,3.172-6.345
			c31.019-61.334,56.398-133.243,76.139-215.727c9.869-39.479,16.566-76.843,20.092-112.093c-25.38,3.525-50.76,6.698-76.139,9.518
			c-33.84,4.936-67.679,9.87-101.518,14.805c-11.28,39.48-22.56,75.434-33.839,107.863c-14.1,38.775-30.667,78.96-49.701,120.554
			c45.824,14.805,85.303,33.84,118.438,57.104C244.183,629.124,258.636,637.231,272.736,645.691z"/>
	</g>
</g>
</svg>
