<?xml version="1.0" encoding="utf-8"?>
<!-- Generator: Adobe Illustrator 16.0.3, SVG Export Plug-In . SVG Version: 6.00 Build 0)  -->
<!DOCTYPE svg PUBLIC "-//W3C//DTD SVG 1.1//EN" "http://www.w3.org/Graphics/SVG/1.1/DTD/svg11.dtd">
<svg version="1.1"
	 id="svg2985" sodipodi:docname="喲2" inkscape:version="0.48.2 r9819" xmlns:dc="http://purl.org/dc/elements/1.1/" xmlns:cc="http://creativecommons.org/ns#" xmlns:rdf="http://www.w3.org/1999/02/22-rdf-syntax-ns#" xmlns:svg="http://www.w3.org/2000/svg" xmlns:sodipodi="http://sodipodi.sourceforge.net/DTD/sodipodi-0.dtd" xmlns:inkscape="http://www.inkscape.org/namespaces/inkscape"
	 xmlns="http://www.w3.org/2000/svg" xmlns:xlink="http://www.w3.org/1999/xlink" x="0px" y="0px" width="1000px" height="1000px"
	 viewBox="0 0 1000 1000" enable-background="new 0 0 1000 1000" xml:space="preserve">
<sodipodi:namedview  inkscape:window-maximized="1" inkscape:current-layer="layer2" inkscape:window-y="-8" inkscape:guide-bbox="true" inkscape:pageopacity="0.0" inkscape:pageshadow="2" inkscape:window-width="1280" inkscape:window-height="974" inkscape:window-x="1272" inkscape:cy="500" inkscape:cx="246.69604" inkscape:zoom="0.454" showguides="true" showgrid="false" id="base" pagecolor="#ffffff" bordercolor="#666666" borderopacity="1.0">
	<sodipodi:guide  position="200" orientation="horizontal" id="guide5596"></sodipodi:guide>
</sodipodi:namedview>
<g id="layer1" inkscape:groupmode="layer" inkscape:label="Layer 1">
	<g id="text2992" transform="scale(0.98328434,1.0169998)">
		<path id="path3002" sodipodi:nodetypes="cccccccccccccccccccccccccccccscccccccccsccccccc" inkscape:connector-curvature="0" d="
			M17.034,58.754c27.322,5.547,66.905,8.321,118.745,8.32h200.711l42.034-37.44c25.22,21.494,46.236,42.641,63.05,63.44
			c3.502,3.468,5.254,7.281,5.254,11.44c0,4.161-6.656,7.628-19.966,10.401c-21.017,1.387-34.329,2.081-39.932,2.08
			c-28.024,33.975-57.096,64.828-87.22,92.56c-14.013,14.561-27.322,27.04-39.932,37.441c2.102,0.694,3.503,1.387,4.203,2.079
			c7.006,4.161,10.508,9.014,10.508,14.56c0,4.854-4.554,8.668-13.66,11.44c-11.91,4.161-22.769,8.321-32.576,12.481v185.12
			c2.102-0.692,3.852-1.386,5.254-2.079c39.231-13.173,85.118-31.199,137.66-54.08l3.153,21.84
			c-42.034,25.654-79.514,45.414-112.44,59.28c-11.91,6.241-23.118,11.441-33.627,15.6v373.362c0,23.574-5.254,41.254-15.764,53.04
			c-9.106,11.095-21.366,20.107-36.779,27.04c-14.011,7.625-25.921,11.44-35.728,11.44l-2.103-17.681
			c-1.401-7.626-4.204-13.52-8.406-17.681c-7.006-8.32-19.265-15.599-36.78-21.839c-20.316-7.627-42.734-12.48-67.253-14.561
			v-23.919c39.231,10.398,74.607,15.6,106.134,15.6c18.216,0,30.126-2.079,35.729-6.24c7.007-4.161,10.51-14.56,10.51-31.201
			V536.117c-6.306,2.082-11.91,4.161-16.814,6.241c-29.423,12.48-60.598,23.573-93.524,33.28
			c-7.006,24.96-12.26,37.442-15.763,37.442c-5.604,0-22.419-27.735-50.441-83.202c44.836-6.933,85.118-15.599,120.847-25.999
			c17.514-3.466,36.079-7.974,55.695-13.52V324.995c0-36.746-3.152-73.839-9.457-111.281c28.021,8.321,51.49,16.294,70.405,23.921
			c14.711-17.333,27.673-33.626,38.881-48.88c16.812-24.959,35.027-55.467,54.643-91.521H135.779
			c-56.045,0.001-90.021,1.04-101.931,3.12L17.034,58.754z"/>
	</g>
</g>
<g id="layer2" inkscape:groupmode="layer" inkscape:label="謘潭">
	<g id="text2997" transform="scale(0.98183707,1.0184989)">
		
			<path id="path3005" sodipodi:nodetypes="ccccccccccccccccccccccccsccccccccccccscccccccccccccccccccccccccccccccccccccccccccccccccccccccsccccc" inkscape:connector-curvature="0" d="
			M562.99,6.422c66.965,12.428,100.448,24.855,100.449,37.281c-0.001,8.975-19.534,14.153-58.596,15.533
			c-12.557,32.449-26.16,61.444-40.809,86.988h196.716l40.808-37.281c25.112,21.402,46.039,42.458,62.782,63.169
			c3.486,4.143,5.231,8.286,5.232,12.426c-0.001,3.453-6.279,6.56-18.833,9.32c-21.625,1.382-34.881,2.072-39.762,2.072
			c-26.508,31.757-53.365,60.754-80.568,86.988c-18.835,20.711-36.623,37.281-53.366,49.706H861.2l28.25-33.138
			c36.969,22.092,55.455,37.626,55.456,46.6c-0.001,6.904-9.767,16.225-29.298,27.961v165.689
			c8.37,6.213,16.043,12.081,23.02,17.605c4.184,2.071,6.277,4.486,6.278,7.248c-0.001,11.737-3.14,17.607-9.418,17.606H738.777
			v283.742c-0.001,10.354,2.441,18.641,7.322,24.855c2.79,6.212,9.765,10.701,20.927,13.461c12.556,2.071,37.319,3.109,74.293,3.109
			c29.994,0,57.547-1.383,82.661-4.142c10.464-0.691,18.137-3.798,23.021-9.322c4.883-4.833,8.72-13.117,11.511-24.855
			c4.882-16.568,9.763-55.573,14.649-117.016l17.789,4.141c-6.28,31.758-9.419,63.169-9.418,94.236
			c-0.001,11.046,2.441,20.019,7.323,26.925c5.581,8.975,12.904,15.534,21.973,19.675c5.579,2.76,8.37,7.595,8.371,14.497
			c-0.001,2.07-1.395,5.869-4.184,11.391c-4.186,6.213-11.86,11.392-23.021,15.534c-13.253,5.524-32.438,8.975-57.547,10.354
			c-28.604,2.762-53.367,4.143-74.293,4.143c-42.552,0-73.244-1.381-92.079-4.143c-20.231-0.689-35.577-3.796-46.04-9.32
			c-11.859-3.451-20.579-10.01-26.158-19.675c-4.186-9.666-6.279-17.605-6.279-23.818V582.194h-25.112
			c-4.184,19.329-9.069,35.899-14.648,49.706c-12.557,42.803-29.648,81.118-51.272,114.947
			c-24.413,35.898-49.526,66.967-75.335,93.201c-32.09,29.685-69.758,55.92-113.007,78.702
			c-39.065,22.782-84.057,42.803-134.98,60.063l-13.602-21.747c76.033-28.997,132.188-57.646,168.462-85.952
			c34.877-25.543,66.616-55.573,95.218-90.093c27.901-35.209,49.875-73.524,65.92-114.948
			c10.463-24.162,19.181-52.123,26.159-83.879h-158v11.39c-0.001,6.214-4.535,11.391-13.604,15.534
			c-10.464,4.143-18.487,6.213-24.066,6.213c-8.372,0-12.556-4.487-12.556-13.462V338.837
			c-16.044,13.808-31.39,25.544-46.039,35.209l-13.604-19.676c32.089-28.995,57.549-53.849,76.384-74.561
			c18.135-20.02,37.319-47.29,57.549-81.809c18.136-26.924,34.528-58.336,49.177-94.236C544.502,76.15,554.618,43.703,562.99,6.422z
			 M459.401,552.162h163.228c0.697-4.832,1.394-9.666,2.094-14.496c6.278-42.803,9.764-101.14,10.464-175.01H459.401V552.162z
			 M689.597,362.655c-0.698,53.158-4.184,100.104-10.462,140.836c-2.095,17.949-4.534,34.174-7.323,48.671h193.575V362.655H689.597z
			 M463.585,332.623h190.435c20.23-24.852,37.669-47.98,52.318-69.383c16.041-24.162,32.436-53.158,49.176-86.987H547.294
			c-4.185,6.905-8.721,13.118-13.604,18.641c-23.02,37.281-49.179,70.764-78.476,100.449c-8.371,8.975-15.696,16.225-21.972,21.747
			L463.585,332.623z M806.789,669.18c17.438,11.736,33.482,23.818,48.132,36.245c13.95,11.735,24.762,21.746,32.437,30.031
			c8.371,8.282,14.647,15.189,18.834,20.711c2.789,4.833,4.882,9.666,6.277,14.498c2.093,4.141,3.139,8.629,3.14,13.461
			c-1.396,24.162-11.512,36.245-30.344,36.245c-2.792,0-5.234-0.689-7.324-2.071c-2.094-2.76-6.976-13.807-14.649-33.138
			c-8.372-17.259-17.79-33.483-28.251-48.671c-9.766-15.189-23.718-32.448-41.853-51.779L806.789,669.18z"/>
	</g>
</g>
</svg>
