<?xml version="1.0" encoding="utf-8"?>
<!-- Generator: Adobe Illustrator 16.0.3, SVG Export Plug-In . SVG Version: 6.00 Build 0)  -->
<!DOCTYPE svg PUBLIC "-//W3C//DTD SVG 1.1//EN" "http://www.w3.org/Graphics/SVG/1.1/DTD/svg11.dtd">
<svg version="1.1"
	 id="svg2985" sodipodi:docname="Z1278.svg" inkscape:version="0.48.2 r9819" xmlns:dc="http://purl.org/dc/elements/1.1/" xmlns:cc="http://creativecommons.org/ns#" xmlns:rdf="http://www.w3.org/1999/02/22-rdf-syntax-ns#" xmlns:svg="http://www.w3.org/2000/svg" xmlns:sodipodi="http://sodipodi.sourceforge.net/DTD/sodipodi-0.dtd" xmlns:inkscape="http://www.inkscape.org/namespaces/inkscape"
	 xmlns="http://www.w3.org/2000/svg" xmlns:xlink="http://www.w3.org/1999/xlink" x="0px" y="0px" width="1000px" height="1000px"
	 viewBox="0 0 1000 1000" enable-background="new 0 0 1000 1000" xml:space="preserve">
<sodipodi:namedview  inkscape:window-maximized="1" inkscape:current-layer="svg2985" inkscape:window-y="-8" inkscape:guide-bbox="true" inkscape:pageopacity="0.0" inkscape:pageshadow="2" inkscape:window-width="1280" inkscape:window-height="974" inkscape:window-x="1272" inkscape:cy="892.9335" inkscape:cx="496.09856" inkscape:zoom="1.2786709" showguides="true" showgrid="false" id="base" pagecolor="#ffffff" bordercolor="#666666" borderopacity="1.0">
	<sodipodi:guide  position="200" orientation="horizontal" id="guide5596"></sodipodi:guide>
</sodipodi:namedview>
<g id="layer1" inkscape:groupmode="layer" inkscape:label="Layer 1">
	<g id="text3013" transform="scale(0.99224771,1.0078129)">
	</g>
	<g id="text3020" transform="scale(0.96851416,1.0325094)">
	</g>
</g>
<g id="layer2" inkscape:groupmode="layer" inkscape:label="0">
	<g id="g9" enable-background="new    ">
		<path id="path11" d="M512.875,222.295h253.063l55.516-65.375c28.47,21.438,55.172,42.875,80.095,64.313
			c6.405,3.578,9.608,7.859,9.608,12.859c0,12.156-6.063,18.219-18.156,18.219H512.875h-50.188H201.078
			c-49.828,0.719-83.642,2.156-101.438,4.281l-21.359-47.156c30.609,8.578,71.548,12.859,122.798,12.859h261.608H512.875z"/>
	</g>
</g>
<g id="g11">
	<path id="path13_1_" sodipodi:nodetypes="cccccsscscccccsccccccccccccccccccccccscsccccsccc" inkscape:connector-curvature="0" d="
		M473.602,431.971H205.97c-50.471,0.737-84.946,2.198-103.424,4.364L82.28,388.34c30.565,9.448,71.79,14.172,123.689,14.172h267.632
		V132.684c1.025-39.399,1.787-66.191-8.197-132.767c117.824,11.094,100.151,23.872,64.697,52.984v349.61h238.842l50.127-62.183
		c29.137,21.094,56.139,41.829,81.021,62.183c6.405,3.641,9.608,8.005,9.608,13.089c0,10.923-5.699,16.37-17.064,16.37H530.102
		c-5.335,49.574-16.067,108.257-24.521,136.029c-1.429,4.363-2.841,8.004-4.253,10.907H854.25l55.449-66.547
		c28.413,21.816,55.071,43.633,79.969,65.447c6.39,3.641,9.593,8.02,9.593,13.106c0,11.646-5.699,17.452-17.063,17.452H535.44
		c26.295,39.283,55.086,74.565,86.358,105.83c34.835,34.905,74.647,69.089,119.419,102.552
		c44.773,31.264,89.563,57.82,134.35,79.636c43.359,19.635,84.585,34.546,123.69,44.73v20.733
		c-40.535,0-67.897,11.991-82.104,36.006c-43.36-19.651-82.812-42.188-118.354-67.647c-39.812-28.376-73.925-57.82-102.355-88.362
		c-33.407-28.36-65.401-60.363-95.968-96.022c-31.272-36.35-64.332-82.18-99.153-137.458h-9.608
		c-17.063,40.007-39.451,77.471-67.174,112.376c-37.677,53.835-84.224,100.009-139.672,138.556
		c-61.132,43.633-147.144,89.823-258.024,138.556L4.446,974.939c105.197-45.829,185.873-88.739,242.043-128.729
		c49.043-37.088,89.199-73.813,120.487-110.194c29.137-33.462,54.004-76.011,74.631-127.647H124.934
		c-50.471,0.724-84.946,2.543-103.424,5.447L0.192,564.719c31.271,9.465,72.842,14.188,124.742,14.188h327.334
		C467.237,522.858,471.205,477.023,473.602,431.971z"/>
</g>
</svg>
