<?xml version="1.0" encoding="utf-8"?>
<!-- Generator: Adobe Illustrator 16.0.3, SVG Export Plug-In . SVG Version: 6.00 Build 0)  -->
<!DOCTYPE svg PUBLIC "-//W3C//DTD SVG 1.1//EN" "http://www.w3.org/Graphics/SVG/1.1/DTD/svg11.dtd">
<svg version="1.1"
	 id="svg2985" sodipodi:docname="Z1277.svg" inkscape:version="0.48.2 r9819" xmlns:dc="http://purl.org/dc/elements/1.1/" xmlns:cc="http://creativecommons.org/ns#" xmlns:rdf="http://www.w3.org/1999/02/22-rdf-syntax-ns#" xmlns:svg="http://www.w3.org/2000/svg" xmlns:sodipodi="http://sodipodi.sourceforge.net/DTD/sodipodi-0.dtd" xmlns:inkscape="http://www.inkscape.org/namespaces/inkscape"
	 xmlns="http://www.w3.org/2000/svg" xmlns:xlink="http://www.w3.org/1999/xlink" x="0px" y="0px" width="1000px" height="1000px"
	 viewBox="0 0 1000 1000" enable-background="new 0 0 1000 1000" xml:space="preserve">
<sodipodi:namedview  inkscape:window-maximized="1" inkscape:current-layer="layer1" inkscape:window-y="-8" inkscape:guide-bbox="true" inkscape:pageopacity="0.0" inkscape:pageshadow="2" inkscape:window-width="1280" inkscape:window-height="974" inkscape:window-x="1272" inkscape:cy="500" inkscape:cx="246.69604" inkscape:zoom="0.454" showguides="true" showgrid="false" id="base" pagecolor="#ffffff" bordercolor="#666666" borderopacity="1.0">
	<sodipodi:guide  position="200" orientation="horizontal" id="guide5596"></sodipodi:guide>
</sodipodi:namedview>
<g id="layer1" inkscape:groupmode="layer" inkscape:label="Layer 1">
	<g id="text3013" transform="scale(0.99224771,1.0078129)">
	</g>
	<g id="text3020" transform="scale(0.96851416,1.0325094)">
	</g>
	<g id="text3030" transform="scale(0.97813532,1.0223534)">
		
			<path id="path3035" sodipodi:nodetypes="ccccccccccccccccccccccccccsccscccccccccccccccccccccccccccccscccccsccccccccccscccscccccccccccccccccccccccccccccc" inkscape:connector-curvature="0" d="
			M414.191,56.803l61.465,34.379H617.34v-4.167c0-37.504-1.39-65.632-4.166-84.385c31.253,5.557,56.95,11.461,77.092,17.711
			c6.945,3.474,10.417,7.641,10.418,12.501c-0.001,3.474-2.431,6.252-7.292,8.335c-7.641,4.862-16.323,8.682-26.045,11.46v38.546
			h155.227l33.337-45.839c24.308,14.586,42.366,29.171,54.174,43.755c5.555,4.863,8.334,9.377,8.335,13.543
			c-0.001,6.252-14.238,17.364-42.713,33.338v62.508c10.417,8.335,20.141,15.974,29.17,22.919c3.471,2.084,5.209,4.168,5.21,6.25
			c-0.001,11.113-2.78,16.669-8.335,16.669H667.346v83.344h230.236l45.839-50.006c24.307,18.058,47.573,35.074,69.8,51.048
			c5.555,3.472,8.335,7.64,8.336,12.501c0,11.113-4.168,16.669-12.502,16.668h-555.86c-49.312,0-82.649,1.043-100.012,3.125
			l-21.877-45.839c30.559,8.335,71.188,12.502,121.889,12.502H617.34v-83.344H464.196v13.543c0,6.251-4.515,11.113-13.543,14.585
			c-10.417,3.473-18.404,5.209-23.959,5.209c-8.337,0-12.503-3.819-12.502-11.46V56.803z M464.196,216.197H617.34v-95.845H464.196
			V216.197z M667.346,120.352v95.845h162.519v-95.845L667.346,120.352L667.346,120.352z M410.023,382.884l62.507,45.839h357.335
			l34.38-45.839c25.003,14.585,43.061,29.17,54.174,43.755c4.861,5.556,7.291,10.418,7.292,14.585
			c-0.001,6.251-12.503,17.364-37.505,33.337v175.021c-0.001,51.395,1.04,85.08,3.125,101.054
			c0.694,20.143,1.041,36.463,1.042,48.965c-0.001,8.334-3.473,15.626-10.418,21.877c-9.029,4.169-16.323,6.251-21.878,6.251
			c-14.586,0-21.88-4.513-21.879-13.543v-27.087h-268.78c20.141,11.806,37.851,22.572,53.13,32.296
			c2.084,2.083,3.125,6.251,3.125,12.503c0,5.555-6.597,8.333-19.794,8.333h-30.21c-25.005,21.53-50.701,38.893-77.094,52.091
			c-26.393,17.363-52.438,31.6-78.133,42.713c-31.256,13.891-62.508,25.349-93.762,34.379l-13.543-21.877
			c47.228-19.447,86.121-38.894,116.681-58.34c33.335-18.753,59.38-36.462,78.134-53.132c15.972-15.974,29.864-32.296,41.672-48.964
			h-85.427v27.087c0,9.03-7.292,13.543-21.878,13.543c-5.556,0-12.848-2.082-21.877-6.251c-6.947-6.251-10.418-13.543-10.418-21.877
			c0-12.502,0.694-28.823,2.084-48.964c4.166-15.975,6.25-49.659,6.251-101.055V452.684
			C418.357,425.598,415.58,402.331,410.023,382.884L410.023,382.884z M464.196,757.929h374.005v-80.218H464.196V757.929z
			 M464.196,649.583h374.005v-83.343H464.196V649.583z M464.196,536.027h374.005v-79.176H464.196V536.027z M726.729,818.354
			c36.809,9.029,73.619,19.794,110.43,32.296c36.809,14.585,64.59,26.739,83.343,36.463c18.752,9.723,31.6,18.404,38.547,26.045
			c6.944,7.64,12.5,14.584,16.668,20.835c2.778,5.556,4.166,11.46,4.167,17.711c-0.001,14.585-5.557,21.878-16.668,21.878
			c-3.474,0-8.336-2.431-14.586-7.293c-6.946-3.472-14.933-9.375-23.96-17.711c-14.586-11.806-28.476-21.877-41.672-30.211
			c-16.669-10.418-36.463-21.184-59.381-32.296c-25.699-14.585-61.12-31.255-106.263-50.006L726.729,818.354z"/>
	</g>
</g>
<g id="layer2" inkscape:groupmode="layer" inkscape:label="謘潭">
	<g id="text3007" transform="scale(0.98673573,1.0134426)">
		<path id="path3028" sodipodi:nodetypes="cccsccccccccccccccccccccccccccccscscsscccccccc" inkscape:connector-curvature="0" d="
			M3.935,170.775l63.139,46.303h75.771V90.797c-0.001-37.884-1.403-66.297-4.21-85.24c39.989,4.912,73.313,12.629,99.974,23.151
			c9.823,4.21,14.734,9.472,14.734,15.785c0,5.614-4.911,9.823-14.734,12.628c-12.627,6.315-27.711,10.525-45.251,12.629v147.328
			h76.821l33.675-46.303c25.256,14.733,43.497,29.466,54.722,44.198c4.911,5.613,7.366,10.173,7.366,13.68
			c0,7.017-14.033,18.592-42.094,34.727v415.677c0,24.556-4.56,42.796-13.679,54.721c-7.719,11.928-18.943,21.047-33.675,27.362
			c-11.927,7.016-22.8,10.524-32.623,10.524c0-15.434-1.402-27.01-4.209-34.727c-3.507-9.121-9.47-16.486-17.89-22.099
			c-8.419-7.015-17.891-11.224-28.414-12.628v187.318c0,15.435,0.702,25.958,2.105,31.571c1.403,12.628,2.104,22.802,2.105,30.518
			c-0.001,23.151-10.875,34.727-32.623,34.727c-17.539-0.001-26.309-5.612-26.309-16.837c0-15.434,0.702-34.727,2.105-57.879
			c1.403-24.556,2.104-45.953,2.105-64.194V245.491H58.657v518.807c0,7.718-6.667,11.576-19.995,11.576
			c-6.314,0-14.382-1.754-24.205-5.262c-7.016-5.612-10.522-13.329-10.522-23.151c0-12.628,1.052-29.115,3.157-49.46
			c3.506-16.136,5.26-50.511,5.26-103.13V241.282C12.353,213.922,9.547,190.419,3.935,170.775L3.935,170.775z M193.357,245.491
			v431.462c22.449,9.822,42.444,14.735,59.983,14.735c9.822,0,16.136-1.755,18.943-5.262c3.507-4.209,5.261-13.33,5.261-27.361
			V245.491H193.357z"/>
	</g>
</g>
</svg>
