<?xml version="1.0" encoding="utf-8"?>
<!-- Generator: Adobe Illustrator 16.0.3, SVG Export Plug-In . SVG Version: 6.00 Build 0)  -->
<!DOCTYPE svg PUBLIC "-//W3C//DTD SVG 1.1//EN" "http://www.w3.org/Graphics/SVG/1.1/DTD/svg11.dtd">
<svg version="1.1"
	 id="svg2985" sodipodi:docname="喲2" inkscape:version="0.48.2 r9819" xmlns:dc="http://purl.org/dc/elements/1.1/" xmlns:cc="http://creativecommons.org/ns#" xmlns:rdf="http://www.w3.org/1999/02/22-rdf-syntax-ns#" xmlns:svg="http://www.w3.org/2000/svg" xmlns:sodipodi="http://sodipodi.sourceforge.net/DTD/sodipodi-0.dtd" xmlns:inkscape="http://www.inkscape.org/namespaces/inkscape"
	 xmlns="http://www.w3.org/2000/svg" xmlns:xlink="http://www.w3.org/1999/xlink" x="0px" y="0px" width="1000px" height="1000px"
	 viewBox="0 0 1000 1000" enable-background="new 0 0 1000 1000" xml:space="preserve">
<sodipodi:namedview  inkscape:window-maximized="0" inkscape:current-layer="layer1" inkscape:window-y="6" inkscape:guide-bbox="true" inkscape:pageopacity="0.0" inkscape:pageshadow="2" inkscape:window-width="1258" inkscape:window-height="951" inkscape:window-x="1285" inkscape:cy="500" inkscape:cx="500" inkscape:zoom="0.454" showguides="true" showgrid="false" id="base" pagecolor="#ffffff" bordercolor="#666666" borderopacity="1.0">
	<sodipodi:guide  position="200" orientation="horizontal" id="guide5596"></sodipodi:guide>
</sodipodi:namedview>
<g id="layer1" inkscape:groupmode="layer" inkscape:label="Layer 1">
	<g enable-background="new    ">
		<path d="M746.546,529.729c-68.5,7.797-140.188,14.53-215.031,20.188v89.234h233.047l46.609-51
			c24,18.422,46.25,35.78,66.733,52.063c6.344,3.547,9.531,7.438,9.531,11.688c0,12.047-4.594,18.063-13.766,18.063H531.514v80.734
			H869.42l46.608-52.063c25.422,17.719,49.438,35.422,72.031,53.125c6.344,3.547,9.531,7.438,9.531,11.688
			c0,10.625-4.234,15.922-12.703,15.922H531.514v124.297c0,24.078-5.656,42.141-16.938,54.188
			c-9.188,12.03-22.266,21.233-39.203,27.608c-14.125,7.078-26.483,10.625-37.063,10.625l-1.063-13.813
			c-2.827-9.906-7.063-16.984-12.719-21.234c-8.469-8.5-24.016-15.938-46.608-22.313c-24.72-7.797-52.953-12.75-84.734-14.875
			v-24.438c50.125,10.625,95.328,15.938,135.578,15.938c20.469,0,33.891-2.125,40.266-6.375c7.75-4.25,11.642-14.875,11.642-31.875
			V779.37H128.999c-50.142,0.719-84.392,2.125-102.75,4.25L5.061,736.884c31.063,9.219,72.375,13.813,123.938,13.813h351.672
			v-80.734H222.218c-50.156,0.719-84.047,2.125-101.688,4.234l-22.25-46.734c31.063,7.797,72.375,11.688,123.938,11.688h258.453
			v-84.984c-19.781,0.719-39.906,1.781-60.375,3.188c-84.031,7.095-177.25,12.048-279.642,14.875l-7.422-22.313
			c142.642-9.203,276.469-23.719,401.469-43.563c81.906-12.75,143-27.969,183.25-45.672c35.313,19.125,63.547,36.47,84.734,52.047
			c5.656,2.845,8.484,7.095,8.484,12.75c0,7.095-4.25,11.345-12.72,12.75c-4.25,0-11.313-1.405-21.188-4.25
			C770.201,531.149,759.951,529.729,746.546,529.729z"/>
		<path d="M274.344,60.25c33.188,10.625,63.547,22.313,91.094,35.047c4.234,4.25,6.359,8.156,6.359,11.688
			c0,6.375-4.595,11.344-13.767,14.875c-16.25,4.969-31.078,7.438-44.483,7.438c-17.656,25.5-37.078,49.578-58.267,72.234
			c-21.905,24.094-45.905,48.531-72.03,73.313c-23.313,21.25-48.031,40.719-74.156,58.422
			c-23.313,17.719-54.375,35.766-93.203,54.172L0,374.703c39.53-22.656,72.719-47.094,99.563-73.313
			c31.781-28.313,61.438-58.422,88.984-90.297c26.828-33.281,49.781-66.203,68.844-98.797
			C265.859,96.016,271.515,78.656,274.344,60.25z M438.531,133.547c30.359,12.047,53.313,23.031,68.845,32.938
			c7.766,4.25,11.655,10.266,11.655,18.047c0,10.625-17.313,15.938-51.905,15.938c-14.125,23.375-28.953,43.563-44.484,60.563
			c-14.125,14.875-29.672,28.672-46.609,41.422c-17.656,13.469-39.547,27.281-65.672,41.438
			c-11.313,6.375-22.953,11.688-34.953,15.938c35.297-1.406,67.422-2.828,96.392-4.25c46.594-2.828,97.438-6.719,152.53-11.688
			c45.906-2.828,97.453-7.078,154.656-12.75c-12.719-17-27.188-32.938-43.438-47.813c-19.781-20.531-41.672-37.875-65.672-52.047
			l12.719-12.75c37.422,19.844,75.906,44.266,115.453,73.297c26.125,19.125,46.25,36.484,60.375,52.063
			c10.594,12.75,18.358,25.5,23.313,38.25c2.109,8.5,3.172,16.281,3.172,23.359c0,16.297-6.719,24.438-20.125,24.438
			c-4.25,0-8.828-1.063-13.766-3.188c-8.484-4.25-16.25-12.391-23.313-24.438c-10.594-18.406-21.172-34.328-31.766-47.797
			c-52.266,8.5-99.578,15.594-141.953,21.25c-50.844,7.078-99.578,13.453-146.172,19.109
			c-42.375,5.672-87.578,10.625-135.594,14.875c-7.063,25.5-12.359,38.25-15.891,38.25c-5.656,0-22.595-28.328-50.845-84.984
			c8.47,0,16.25-0.344,23.313-1.063c25.406-12.75,47.656-25.844,66.733-39.313c19.063-14.156,36-28.672,50.844-43.547
			c16.234-15.578,30-31.516,41.313-47.813c13.406-18.406,24-35.406,31.781-50.984C427.219,164.016,433.577,148.422,438.531,133.547z
			 M527.515,48.563h75.203L640.844,5c21.891,14.172,41.313,29.406,58.266,45.688c4.234,2.844,6.359,6.031,6.359,9.563
			c0,5.672-3.531,10.625-10.594,14.875c-7.781,5.656-15.548,9.547-23.313,11.672c13.406,24.797,32.125,49.234,56.141,73.313
			c24,23.375,49.781,44.969,77.328,64.797c29.656,20.547,60.031,37.547,91.109,51c28.938,14.875,63.891,26.906,104.858,36.109
			v20.188c-14.125,0-26.483,2.125-37.077,6.375c-15.531,7.094-25.423,15.234-29.656,24.438
			c-43.781-18.406-85.453-43.203-124.984-74.375c-36.03-31.159-69.578-65.143-100.641-101.987
			c-32.484-36.813-56.5-72.938-72.031-108.344H527.515V48.563z"/>
	</g>
</g>
</svg>
