<?xml version="1.0" encoding="utf-8"?>
<!-- Generator: Adobe Illustrator 16.0.3, SVG Export Plug-In . SVG Version: 6.00 Build 0)  -->
<!DOCTYPE svg PUBLIC "-//W3C//DTD SVG 1.1//EN" "http://www.w3.org/Graphics/SVG/1.1/DTD/svg11.dtd">
<svg version="1.1"
	 id="svg2985" sodipodi:docname="Z1273.svg" inkscape:version="0.48.2 r9819" xmlns:dc="http://purl.org/dc/elements/1.1/" xmlns:cc="http://creativecommons.org/ns#" xmlns:rdf="http://www.w3.org/1999/02/22-rdf-syntax-ns#" xmlns:svg="http://www.w3.org/2000/svg" xmlns:sodipodi="http://sodipodi.sourceforge.net/DTD/sodipodi-0.dtd" xmlns:inkscape="http://www.inkscape.org/namespaces/inkscape"
	 xmlns="http://www.w3.org/2000/svg" xmlns:xlink="http://www.w3.org/1999/xlink" x="0px" y="0px" width="1000px" height="1000px"
	 viewBox="0 0 1000 1000" enable-background="new 0 0 1000 1000" xml:space="preserve">
<sodipodi:namedview  inkscape:window-maximized="0" inkscape:current-layer="layer3" inkscape:window-y="3" inkscape:guide-bbox="true" inkscape:pageopacity="0.0" inkscape:pageshadow="2" inkscape:window-width="1261" inkscape:window-height="951" inkscape:window-x="1281" inkscape:cy="500" inkscape:cx="718.96503" inkscape:zoom="0.454" showguides="true" showgrid="false" id="base" pagecolor="#ffffff" bordercolor="#666666" borderopacity="1.0">
	<sodipodi:guide  position="200" orientation="horizontal" id="guide5596"></sodipodi:guide>
</sodipodi:namedview>
<g id="layer3" inkscape:groupmode="layer" inkscape:label="惜#1">
	<g id="text3035" transform="scale(0.98380793,1.0164586)">
		
			<path id="path3040" sodipodi:nodetypes="cccccccsccccccccccccccccccccccccccccscccccccccccccccccsccccc" inkscape:connector-curvature="0" d="
			M81.598,202.533h26.173c0,46.065-3.141,84.103-9.422,114.114c-3.489,23.731-9.073,43.971-16.751,60.721
			c-4.886,16.053-11.516,28.965-19.891,38.736c-4.886,6.98-10.469,11.865-16.751,14.657c-4.187,4.188-8.724,6.281-13.609,6.281
			c-18.845,0-28.267-8.725-28.267-26.173c0-3.489,1.396-6.979,4.188-10.469c15.354-18.844,27.568-36.292,36.642-52.345
			c11.167-18.844,19.194-38.736,24.078-59.675C74.269,266.046,78.807,237.43,81.598,202.533z M148.723,0.477
			c39.783,4.886,72.935,12.564,99.457,23.033c9.77,4.188,14.656,9.423,14.657,15.703c-0.001,5.584-4.887,9.772-14.657,12.563
			c-12.564,6.282-27.569,10.121-45.018,11.516v139.24c18.146,11.865,33.851,24.428,47.111,37.689
			c15.355,11.866,27.568,23.033,36.642,33.501c9.771,11.866,16.751,21.986,20.939,30.361c3.489,7.678,5.234,15.355,5.234,23.032
			c0,12.564-1.745,22.684-5.234,30.361c-6.282,7.678-13.262,11.516-20.939,11.516c-4.188,0-8.026-1.744-11.516-5.235
			c-3.49-2.093-6.631-9.073-9.422-20.938c-3.49-15.354-9.423-30.36-17.798-45.017c-6.98-14.656-15.006-28.266-24.079-40.83
			c-6.281-9.073-13.261-17.797-20.939-26.173v657.464c0,15.355,0.698,25.824,2.094,31.408c1.396,11.864,2.093,21.985,2.093,30.361
			c0,22.334-10.818,33.5-32.454,33.501c-17.449-0.001-26.173-5.235-26.173-15.704c0-15.355,0.698-34.549,2.093-57.58
			c1.396-24.429,2.093-45.716,2.094-63.862V85.278C152.91,47.59,151.514,19.323,148.723,0.477z M907.737,8.853
			c26.521,20.242,51.297,40.133,74.331,59.675c6.281,3.49,9.422,7.678,9.423,12.563c-0.001,10.47-5.934,15.704-17.798,15.704
			H379.044v807.172h511.943l46.064-50.252c24.427,18.147,47.808,35.246,70.144,51.299c5.583,3.489,8.374,7.677,8.375,12.563
			c0,11.167-4.189,16.751-12.563,16.751H374.856c-3.49,2.094-8.724,3.141-15.703,3.141s-15.006-1.745-24.079-5.234
			c-6.281-5.584-9.422-13.61-9.422-24.079c0-11.865,0.698-27.917,2.094-48.159c3.489-16.052,5.234-49.554,5.234-100.504V92.606
			c0-27.219-2.443-50.949-7.329-71.19l61.769,47.111h470.065L907.737,8.853z"/>
	</g>
</g>
<g id="layer4" inkscape:groupmode="layer" inkscape:label="惜#2">
	<g id="text3043" transform="matrix(0.97627532,0,0,1.0243012,0,-124)">
		
			<path id="path3048" sodipodi:nodetypes="cccccccccccccccccccccccccccccccccscccccccccccccccccccccccc" inkscape:connector-curvature="0" d="
			M581.207,220.568c33.698,9.127,63.536,20.712,89.512,34.752c5.616,4.213,8.424,8.074,8.424,11.584
			c-0.001,5.617-4.914,10.18-14.743,13.69c-16.148,4.213-31.242,6.319-45.282,6.319c-9.829,25.274-21.062,49.144-33.698,71.609
			c-0.703,1.405-1.405,2.809-2.107,4.213H838.16l46.336-49.495c25.272,17.552,49.142,34.401,71.609,50.548
			c5.616,3.511,8.423,7.372,8.424,11.584c-0.001,11.936-3.862,17.903-11.583,17.902H733.904
			c-0.702,80.035-4.563,144.272-11.583,192.714h175.865l46.336-49.495c24.57,17.552,48.089,34.401,70.556,50.548
			c5.616,3.51,8.423,7.372,8.425,11.584c0,11.936-4.213,17.903-12.637,17.903H714.949c-9.829,46.336-24.572,86.704-44.229,121.104
			c-21.764,41.421-46.688,75.822-74.769,103.202c-32.997,31.593-66.345,58.271-100.042,80.035
			c-34.401,19.657-53.932,30.802-99.565,49.056l-12.637-22.115c39.315-17.551,53.229-27.995,82.715-46.95
			c25.976-18.254,50.548-37.56,73.716-57.92c21.763-23.87,43.176-50.197,64.238-78.981c18.253-25.976,32.997-55.462,44.23-88.459
			c5.616-18.955,10.179-38.612,13.69-58.972h-140.06c-49.144,0.702-82.491,2.106-100.042,4.212l-22.115-46.336
			c30.89,7.723,71.609,11.585,122.157,11.584h144.272c2.106-8.424,3.509-16.848,4.212-25.273
			c5.616-39.315,8.423-95.128,8.424-167.44H565.412c-7.723,12.637-15.445,24.923-23.168,36.858
			c-14.042,20.36-28.784,39.316-44.229,56.867c-14.042,16.849-32.647,34.401-55.813,52.654l-16.85-11.584
			c23.168-22.466,42.123-46.686,56.867-72.663c18.252-28.082,35.102-57.919,50.548-89.512c15.445-31.592,28.432-63.536,38.964-95.83
			C576.644,253.916,579.803,237.418,581.207,220.568z M771.815,667.075c40.718,27.38,76.524,55.462,107.415,84.247
			c32.293,26.678,57.567,49.144,75.821,67.396c16.849,18.254,30.188,33.348,40.018,45.282c6.317,12.637,11.231,24.221,14.742,34.752
			c3.51,9.829,5.265,20.711,5.266,32.645c-0.703,21.764-8.776,32.646-24.221,32.646c-7.021,0-13.34-2.107-18.955-6.319
			c-5.618-6.318-18.957-28.784-40.018-67.397c-20.36-38.612-43.177-72.662-68.45-102.149
			c-25.275-32.996-60.377-69.503-105.308-109.52L771.815,667.075z"/>
	</g>
</g>
</svg>
