<?xml version="1.0" encoding="utf-8"?>
<!-- Generator: Adobe Illustrator 16.0.3, SVG Export Plug-In . SVG Version: 6.00 Build 0)  -->
<!DOCTYPE svg PUBLIC "-//W3C//DTD SVG 1.1//EN" "http://www.w3.org/Graphics/SVG/1.1/DTD/svg11.dtd">
<svg version="1.1"
	 id="svg2985" sodipodi:docname="Z1280.svg" inkscape:version="0.48.2 r9819" xmlns:dc="http://purl.org/dc/elements/1.1/" xmlns:cc="http://creativecommons.org/ns#" xmlns:rdf="http://www.w3.org/1999/02/22-rdf-syntax-ns#" xmlns:svg="http://www.w3.org/2000/svg" xmlns:sodipodi="http://sodipodi.sourceforge.net/DTD/sodipodi-0.dtd" xmlns:inkscape="http://www.inkscape.org/namespaces/inkscape"
	 xmlns="http://www.w3.org/2000/svg" xmlns:xlink="http://www.w3.org/1999/xlink" x="0px" y="0px" width="1000px" height="1000px"
	 viewBox="0 0 1000 1000" enable-background="new 0 0 1000 1000" xml:space="preserve">
<sodipodi:namedview  inkscape:window-maximized="1" inkscape:current-layer="layer1" inkscape:window-y="-8" inkscape:guide-bbox="true" inkscape:pageopacity="0.0" inkscape:pageshadow="2" inkscape:window-width="1280" inkscape:window-height="974" inkscape:window-x="1272" inkscape:cy="611.98531" inkscape:cx="423.18779" inkscape:zoom="0.45207843" showguides="true" showgrid="false" id="base" pagecolor="#ffffff" bordercolor="#666666" borderopacity="1.0">
	<sodipodi:guide  position="200" orientation="horizontal" id="guide5596"></sodipodi:guide>
</sodipodi:namedview>
<g id="layer2" inkscape:groupmode="layer" inkscape:label="0">
	<g id="text3017" transform="scale(0.98994826,1.0101538)">
		
			<path id="path3022" sodipodi:nodetypes="ccccccccccccccccccccccccccccccccccccccccccccccccccccccsccccc" inkscape:connector-curvature="0" d="
			M61.702,152.499c30.756,8.389,71.648,12.583,122.675,12.582h288.337V86.444c-0.001-37.745-1.399-65.705-4.195-83.88
			c40.541,4.894,73.744,12.233,99.608,22.019c9.785,3.496,14.678,8.738,14.679,15.728c-0.001,6.292-4.894,10.486-14.679,12.582
			c-13.282,6.292-27.961,10.136-44.037,11.534v100.656H816.62l50.327-58.716c26.562,20.272,51.725,39.843,75.492,58.716
			c5.591,4.195,8.387,8.738,8.388,13.631c-0.001,10.485-5.243,15.728-15.727,15.727H524.089v294.628h347.053l50.328-59.764
			c27.959,20.272,54.172,40.193,78.637,59.764c6.29,3.496,9.436,7.689,9.437,12.582c0,10.485-5.593,15.728-16.776,15.728H544.011
			c27.26,44.036,57.317,82.831,90.171,116.383c33.551,34.95,72.345,68.852,116.383,101.705
			c43.337,32.154,87.024,59.414,131.063,81.783c42.638,19.572,82.48,34.251,119.529,44.036v15.728
			c-35.65,0-59.066,10.135-70.249,30.406c-44.038-18.873-83.182-41.59-117.432-68.153c-39.144-25.862-72.697-54.172-100.655-84.928
			c-32.155-28.659-63.26-60.813-93.317-96.462c-30.756-34.95-62.561-78.637-95.413-131.062v368.022
			c0,15.378,0.698,25.863,2.097,31.455c1.398,12.582,2.096,22.718,2.097,30.406c-0.001,23.068-11.185,34.601-33.552,34.601
			c-17.475,0-26.213-5.942-26.213-17.825c0-14.679,0.698-33.552,2.097-56.618c1.398-24.465,2.096-45.784,2.097-63.958V535.2
			c-11.884,25.863-24.815,48.93-38.794,69.201c-18.175,27.261-40.542,55.92-67.104,85.977
			c-27.261,29.358-59.065,59.066-95.413,89.122c-34.95,26.562-71.298,51.726-109.043,75.492
			c-39.144,22.368-89.473,46.483-150.984,72.346L-0.16,907.417c58.716-25.863,108.345-52.076,148.886-78.637
			c43.338-27.261,83.88-58.716,121.626-94.365c39.843-37.047,73.045-75.491,99.608-115.335
			c22.367-34.95,39.842-68.851,52.424-101.705H125.66c-49.629,0.7-83.53,2.098-101.704,4.195L4.035,475.436
			c30.056,9.087,70.598,13.631,121.625,13.63h347.053V194.439H184.376c-49.629,0.7-83.181,2.098-100.655,4.194L61.702,152.499z"/>
	</g>
</g>
<g id="layer1" inkscape:groupmode="layer" inkscape:label="惜">
	<g id="text3047" transform="scale(0.99065029,1.009438)">
		<path id="path3052" sodipodi:nodetypes="cccccccccc" inkscape:connector-curvature="0" d="M777.443,327.973l50.416-57.767
			c28.007,19.606,54.615,38.862,79.823,57.767c5.601,3.502,8.402,8.053,8.403,13.654c-0.001,11.204-5.252,16.806-15.755,16.805
			c-674.569,0.228,149.505,0-694.257,0c-49.015,0.701-82.625,2.101-100.83,4.201L85.287,316.42
			c30.109,7.703,70.371,11.554,120.786,11.554C753.02,327.186,196.295,327.973,777.443,327.973z"/>
	</g>
</g>
</svg>
