<?xml version="1.0" encoding="utf-8"?>
<!-- Generator: Adobe Illustrator 16.0.3, SVG Export Plug-In . SVG Version: 6.00 Build 0)  -->
<!DOCTYPE svg PUBLIC "-//W3C//DTD SVG 1.1//EN" "http://www.w3.org/Graphics/SVG/1.1/DTD/svg11.dtd">
<svg version="1.1"
	 id="svg2985" sodipodi:docname="Z1281.svg" inkscape:version="0.48.2 r9819" xmlns:dc="http://purl.org/dc/elements/1.1/" xmlns:cc="http://creativecommons.org/ns#" xmlns:rdf="http://www.w3.org/1999/02/22-rdf-syntax-ns#" xmlns:svg="http://www.w3.org/2000/svg" xmlns:sodipodi="http://sodipodi.sourceforge.net/DTD/sodipodi-0.dtd" xmlns:inkscape="http://www.inkscape.org/namespaces/inkscape"
	 xmlns="http://www.w3.org/2000/svg" xmlns:xlink="http://www.w3.org/1999/xlink" x="0px" y="0px" width="1000px" height="1000px"
	 viewBox="0 0 1000 1000" enable-background="new 0 0 1000 1000" xml:space="preserve">
<sodipodi:namedview  inkscape:window-maximized="1" inkscape:current-layer="layer1" inkscape:window-y="-8" inkscape:guide-bbox="true" inkscape:pageopacity="0.0" inkscape:pageshadow="2" inkscape:window-width="1280" inkscape:window-height="974" inkscape:window-x="1272" inkscape:cy="731.07551" inkscape:cx="578.13959" inkscape:zoom="0.27783621" showguides="true" showgrid="false" id="base" pagecolor="#ffffff" bordercolor="#666666" borderopacity="1.0">
	<sodipodi:guide  position="200" orientation="horizontal" id="guide5596"></sodipodi:guide>
</sodipodi:namedview>
<g id="layer1" inkscape:groupmode="layer" inkscape:label="雓蔬">
	<g id="text3054" transform="scale(1.0150867,0.98513751)">
		
			<path id="path3062" sodipodi:nodetypes="ccccccccccccccccccccccccccccccccccccscccccccccccccccccccccccccccccccccccccccsccccc" inkscape:connector-curvature="0" d="
			M249.054,474.629c27.28,11.06,50.505,21.38,69.673,30.966c4.423,4.423,6.635,8.846,6.635,13.271
			c0,6.636-7.007,11.43-21.013,14.377c-16.958,2.95-29.124,4.424-36.496,4.424c-13.27,22.12-28.018,43.87-44.239,65.252h646.987
			l44.239-39.813c26.542,15.484,46.817,29.862,60.826,43.131c5.896,6.638,8.846,11.431,8.848,14.379
			c-0.001,11.06-14.746,22.855-44.24,35.389c-5.16,67.096-12.535,124.236-22.117,171.426
			c-11.063,47.188-22.119,82.208-33.178,105.064c-11.061,20.645-23.227,35.39-36.497,44.241
			c-14.007,11.059-29.124,20.645-45.344,28.755c-14.007,5.899-25.438,8.848-34.284,8.848c-0.001-15.484-4.056-27.28-12.166-35.391
			c-8.111-9.585-54.192-27.279-138.244-53.086l4.424-23.225c77.416,20.645,129.028,30.967,154.834,30.967
			c9.585,0,18.432-1.475,26.544-4.424c7.372-1.474,14.007-5.898,19.907-13.271c6.635-8.845,14.008-23.223,22.119-43.13
			c8.847-19.907,15.851-49.031,21.013-87.371c7.372-37.605,12.534-87.741,15.483-150.411H199.285
			c-24.331,29.493-49.769,55.296-76.311,77.417c-28.756,23.594-62.672,47.923-101.749,72.994L2.424,772.133
			c36.13-28.755,65.991-56.036,89.583-81.841c19.909-22.119,39.446-46.819,58.618-74.097c18.433-27.28,34.285-52.717,47.557-76.312
			c10.322-19.906,18.061-41.657,23.225-65.251C222.901,465.286,225.901,465.916,249.054,474.629L249.054,474.629z M158.364,748.907
			h12.166v53.087c0,25.068-2.213,49.03-6.636,71.887c-4.423,21.382-11.06,39.814-19.907,55.298
			c-6.636,12.534-15.116,23.225-25.438,32.072c-8.848,8.846-18.062,14.378-27.647,16.588c-8.11,2.948-15.117,4.423-21.013,4.423
			c-18.433,0-27.649-5.528-27.649-16.589c0-6.636,5.898-14.745,17.696-24.329c26.543-24.331,45.344-44.606,56.404-60.828
			c11.798-16.223,21.013-33.916,27.649-53.087C151.36,807.523,156.153,781.349,158.364,748.907z M304.351,736.739
			c12.534,16.223,23.963,34.285,34.285,54.192c10.323,22.119,16.958,42.026,19.91,59.722c4.423,19.172,6.633,36.497,6.634,51.983
			c-0.001,12.534-1.476,23.594-4.423,33.179c-2.951,7.373-7.373,12.905-13.271,16.589c-5.159,2.949-9.214,4.424-12.165,4.424
			c-12.535,0-18.8-6.268-18.799-18.802c-0.738-5.163-0.369-13.64,1.103-25.439c1.477-16.958-0.367-37.603-5.53-61.934
			c-2.95-28.017-11.797-64.513-26.543-109.49L304.351,736.739z M471.351,704.668c16.22,15.484,30.229,31.336,42.026,47.554
			c14.006,14.747,24.7,28.755,32.073,42.027c9.585,14.009,15.852,26.174,18.802,36.497c2.948,9.585,4.422,18.801,4.422,27.647
			c-0.001,14.747-2.213,26.174-6.636,34.285c-6.634,10.322-14.378,15.483-23.225,15.483c-4.423,0-7.743-2.212-9.953-6.636
			c-3.688-2.949-6.634-11.794-8.848-26.543c-2.95-18.433-7.743-36.497-14.378-54.192c-5.896-17.696-12.903-34.285-21.013-49.768
			c-7.373-16.221-17.696-33.916-30.964-53.086L471.351,704.668z M643.881,679.229c33.178,18.433,59.353,37.603,78.521,57.51
			c16.22,15.483,28.756,30.967,37.605,46.45c5.895,10.322,8.847,21.382,8.848,33.179c-0.001,22.122-9.217,33.182-27.649,33.182
			c-4.423,0-8.479-1.106-12.166-3.318c-3.687-3.689-7.743-11.431-12.165-23.226c-11.061-28.017-22.489-50.873-34.284-68.569
			c-13.272-18.433-30.23-37.974-50.875-58.616L643.881,679.229z"/>
		<path id="path3064" sodipodi:nodetypes="ccccccccccccccccccccssccccccccccc" inkscape:connector-curvature="0" d="M103.13,1.278
			l66.357,48.662h642.714l36.495-48.662c26.543,16.959,45.713,32.811,57.508,47.556c5.16,5.162,7.742,10.323,7.744,15.484
			c-0.002,6.636-12.905,18.064-38.708,34.284v160.364c-0.001,54.561,0.736,155.286,2.212,172.242
			c1.474,21.382,2.211,38.34,2.212,50.874c-0.001,10.322-4.056,18.802-12.165,25.437c-10.324,4.424-18.063,6.639-23.226,6.638
			c-15.484,0.001-23.226-4.792-23.225-14.379v-34.285H160.64v34.285c0,9.587-7.007,14.38-21.013,14.379
			c-6.635,0.001-15.115-2.214-25.438-6.637c-7.371-6.636-11.06-15.113-11.06-25.438c0-12.534,1.106-29.492,3.318-50.874
			c3.687-16.958,5.53-117.683,5.53-172.242V77.589C111.978,48.835,109.029,23.398,103.13,1.278L103.13,1.278z M160.64,433.422
			H821.05V272.648H160.64V433.422z M160.64,242.787H821.05V82.013H160.64V242.787z"/>
	</g>
</g>
</svg>
