<?xml version="1.0" encoding="utf-8"?>
<!-- Generator: Adobe Illustrator 16.0.3, SVG Export Plug-In . SVG Version: 6.00 Build 0)  -->
<!DOCTYPE svg PUBLIC "-//W3C//DTD SVG 1.1//EN" "http://www.w3.org/Graphics/SVG/1.1/DTD/svg11.dtd">
<svg version="1.1"
	 id="svg2985" sodipodi:docname="Z1283.svg" inkscape:version="0.48.2 r9819" xmlns:dc="http://purl.org/dc/elements/1.1/" xmlns:cc="http://creativecommons.org/ns#" xmlns:rdf="http://www.w3.org/1999/02/22-rdf-syntax-ns#" xmlns:svg="http://www.w3.org/2000/svg" xmlns:sodipodi="http://sodipodi.sourceforge.net/DTD/sodipodi-0.dtd" xmlns:inkscape="http://www.inkscape.org/namespaces/inkscape"
	 xmlns="http://www.w3.org/2000/svg" xmlns:xlink="http://www.w3.org/1999/xlink" x="0px" y="0px" width="1000px" height="1000px"
	 viewBox="0 0 1000 1000" enable-background="new 0 0 1000 1000" xml:space="preserve">
<sodipodi:namedview  inkscape:window-maximized="1" inkscape:current-layer="layer1" inkscape:window-y="-8" inkscape:guide-bbox="true" inkscape:pageopacity="0.0" inkscape:pageshadow="2" inkscape:window-width="1280" inkscape:window-height="974" inkscape:window-x="1272" inkscape:cy="541.63771" inkscape:cx="632.81929" inkscape:zoom="0.5" showguides="true" showgrid="false" id="base" pagecolor="#ffffff" bordercolor="#666666" borderopacity="1.0">
	<sodipodi:guide  position="544,296" orientation="horizontal" id="guide5596"></sodipodi:guide>
</sodipodi:namedview>
<g id="layer1" inkscape:groupmode="layer" inkscape:label="雓蔬">
	<g id="text3085" transform="scale(0.97910071,1.0213454)">
		
			<path id="path3114" sodipodi:nodetypes="ccccccccccccccccccccccccccccccccccccccccccccccccccccc" inkscape:connector-curvature="0" d="
			M773.028-0.455c34.926,11.876,64.962,24.1,90.11,36.673c4.191,4.192,6.287,8.383,6.288,12.573
			c-0.001,6.288-6.638,10.479-19.906,12.573c-16.067,2.795-27.243,4.192-33.532,4.191c-9.079,49.596-18.861,97.096-29.338,142.499
			c-0.699,2.096-1.048,3.843-1.048,5.239h131.717l33.529-37.721c24.445,18.163,46.799,37.721,67.059,58.676
			c2.096,2.795,3.143,5.24,3.144,7.335c-0.001,4.89-6.637,8.732-19.906,11.525c-12.574,2.096-24.1,4.192-34.577,6.287
			c-9.783,26.545-21.656,54.485-35.624,83.823c-13.972,31.435-28.641,59.026-44.008,82.776l-15.717-12.572
			c11.874-31.435,20.955-61.472,27.243-90.113c8.379-28.639,14.668-55.881,18.86-81.727H778.266
			c-7.685,30.736-15.718,58.327-24.097,82.775c-12.574,34.228-26.894,69.854-42.959,106.875l-17.813-13.619
			c13.271-39.117,24.096-76.139,32.482-111.066c6.985-30.036,13.97-63.915,20.958-101.636c6.985-37.021,12.92-71.948,17.813-104.779
			C768.138,69.399,770.93,35.869,773.028-0.455L773.028-0.455z M783.197,301.309c27.94,2.096,54.135,5.589,78.585,10.478
			c9.079,2.096,13.623,5.24,13.623,9.431c0,5.589-4.89,10.129-14.669,13.621c-9.781,4.192-19.21,8.383-28.29,12.573
			c-0.699,36.323-1.396,68.805-2.096,97.444c2.794,34.926,6.636,68.107,11.526,99.54c7.683,53.786,16.761,100.236,27.241,139.355
			c9.079,34.228,20.255,66.71,33.531,97.444c26.662,71.907,65.152,98.457,116.874,139.356v16.764
			c-27.241,2.096-65.536,13.272-78.108,33.529c-16.065-24.45-30.735-50.296-44.008-77.536
			c-11.876-25.147-22.004-53.786-30.386-85.919c-10.479-30.037-19.559-68.106-27.242-114.209
			c-7.685-43.31-13.972-88.714-18.86-136.215c-4.192,37.72-9.43,72.648-15.717,104.779c-9.079,41.911-19.558,79.282-31.431,112.113
			c-13.273,34.926-29.341,66.36-48.201,94.303c-20.956,34.925-49.247,70.551-84.869,106.874l-13.623-17.812
			c23.05-25.846,42.609-52.042,58.677-78.584c13.271-25.147,26.194-53.088,38.767-83.822
			c12.571-30.736,23.051-67.758,31.432-111.067c9.781-37.72,17.115-83.124,22.006-136.213c4.886-53.089,7.334-104.429,7.334-154.025
			C785.294,351.603,784.595,320.868,783.197,301.309L783.197,301.309z"/>
	</g>
</g>
<g id="layer3" inkscape:groupmode="layer" inkscape:label="雓蔬#1">
	<g id="text3090" transform="scale(0.99524023,1.0047825)">
		<path id="path3111" sodipodi:nodetypes="ccsccccccccccccccccccccccccccccccccccccccccccc" inkscape:connector-curvature="0" d="
			M269.168,259.549c24.972,6.422,56.37,9.99,94.189,10.703v-165.9c0-37.817-1.428-66.359-4.281-85.626
			c34.25,5.709,62.792,13.558,85.625,23.547c8.562,3.568,12.841,8.564,12.842,14.984c-0.001,7.136-3.569,11.774-10.701,13.914
			c-9.99,7.136-20.693,11.418-32.11,12.844v187.307h128.789V104.351c0-37.817-1.784-66.359-5.352-85.626
			c34.961,5.709,63.863,13.558,86.696,23.547c8.56,3.568,12.841,8.564,12.842,14.984c-0.001,7.136-3.569,11.774-10.701,13.914
			c-9.992,7.136-20.693,11.418-32.112,12.844v187.307h12.844l38.531-38.532c19.979,14.985,38.888,29.256,56.727,42.813
			c4.281,2.141,6.421,4.995,6.422,8.563c-0.001,12.131-3.925,18.196-11.774,18.195H594.894v666.811
			c0,14.985-10.345,22.476-31.037,22.476c-17.125,0-25.691-8.919-25.688-26.758c-0.003-7.136,0.354-15.344,1.07-24.62H414.732v33.18
			c0,14.985-10.347,22.477-31.039,22.477c-16.412-0.001-24.618-8.92-24.617-26.76c-0.001-8.564,0.713-19.624,2.14-33.179
			c1.427-14.984,2.141-27.83,2.141-38.532V303.43c-34.251,0.714-58.868,1.784-73.853,3.211L269.168,259.549z M414.732,910.303
			h128.789V596.701H414.732V910.303z M414.732,566.732h128.789v-264.37H414.732V566.732z"/>
	</g>
</g>
<g id="layer4" inkscape:groupmode="layer" inkscape:label="雓蔬#2">
	<g id="text3103" transform="scale(1.0010088,0.99899225)">
		<path id="path3108" sodipodi:nodetypes="cccccccscccccccsccccccsccsssc" inkscape:connector-curvature="0" d="M0.585,161.48
			c33.731,4.306,61.358,10.765,82.888,19.376c7.893,3.589,11.843,8.254,11.843,13.994c0,7.177-3.229,11.842-9.687,13.994
			c-9.328,7.177-20.095,11.483-32.295,12.918v533.927h57.825V104.427c0-38.034-1.076-66.74-3.227-86.117
			c40.188,5.742,73.918,13.636,101.188,23.682c9.327,3.589,13.994,8.613,13.994,15.07c0,7.177-4.664,11.842-13.994,13.994
			C196.2,78.234,180.77,82.54,162.83,83.974v671.715h59.98V233.603c0-34.446-1.435-60.281-4.304-77.505
			c33.012,5.024,60.282,12.2,81.81,21.529c8.611,2.872,12.919,7.177,12.92,12.918c-0.001,6.459-3.589,11.124-10.766,13.994
			c-10.047,7.177-20.812,11.483-32.295,12.917v598.516c0,12.917-8.97,19.377-26.911,19.377c-13.636,0-20.453-7.895-20.453-23.683
			v-26.911H27.496c-15.071,0-22.606-8.253-22.605-24.757V237.909C4.89,203.463,3.455,177.987,0.585,161.48z"/>
	</g>
</g>
</svg>
