<?xml version="1.0" encoding="utf-8"?>
<!-- Generator: Adobe Illustrator 16.0.3, SVG Export Plug-In . SVG Version: 6.00 Build 0)  -->
<!DOCTYPE svg PUBLIC "-//W3C//DTD SVG 1.1//EN" "http://www.w3.org/Graphics/SVG/1.1/DTD/svg11.dtd">
<svg version="1.1"
	 id="svg2985" xmlns:dc="http://purl.org/dc/elements/1.1/" xmlns:cc="http://creativecommons.org/ns#" xmlns:rdf="http://www.w3.org/1999/02/22-rdf-syntax-ns#" xmlns:svg="http://www.w3.org/2000/svg" xmlns:sodipodi="http://sodipodi.sourceforge.net/DTD/sodipodi-0.dtd" xmlns:inkscape="http://www.inkscape.org/namespaces/inkscape" inkscape:version="0.92.1 r15371" sodipodi:docname="Z1326.svg"
	 xmlns="http://www.w3.org/2000/svg" xmlns:xlink="http://www.w3.org/1999/xlink" x="0px" y="0px" width="1000px" height="1000px"
	 viewBox="0 0 1000 1000" enable-background="new 0 0 1000 1000" xml:space="preserve">
<sodipodi:namedview  inkscape:cy="477.1359" inkscape:cx="848.99234" inkscape:zoom="0.41307322" showgrid="false" guidetolerance="10" gridtolerance="10" objecttolerance="10" borderopacity="1" pagecolor="#ffffff" bordercolor="#666666" id="namedview4" inkscape:current-layer="svg2985" inkscape:window-maximized="1" inkscape:window-y="-8" inkscape:window-x="-8" inkscape:window-height="705" inkscape:window-width="1366" inkscape:pageshadow="2" inkscape:pageopacity="0">
	</sodipodi:namedview>
<path id="path3691" d="M221.622,346.087l64.314,35.993h391.3l28.941-35.993c37.159,23.269,55.739,39.266,55.739,47.991
	c0,7.998-9.647,18.542-28.941,31.63v136.337c0,13.088-11.791,21.45-35.373,25.086c-10.719,0-16.078-2.908-16.078-8.726v-25.086
	H273.074v20.724c0,6.544-3.93,11.997-11.791,16.36c-10.719,4.362-19.652,6.544-26.798,6.544c-8.575,0-12.863-4.727-12.863-14.179
	V346.087z M273.074,521.688h103.204V411.529H273.074V521.688z M427.729,521.688h107.491V411.529H427.729V521.688z M587.744,521.688
	h93.779V411.529h-93.779V521.688z M-0.03,0.083l65.864,47.01h264.573l30.141-34.189c39.444,22.793,59.166,38.463,59.166,47.011
	c0,7.835-10.419,17.807-31.258,29.916v235.053c0,13.533-12.28,22.437-36.839,26.71c-11.164,0-16.745-2.849-16.745-8.547v-34.189
	H58.02v679.516c0,7.835-7.442,11.753-22.327,11.753c-6.698,0-15.256-1.781-25.676-5.343C3.319,989.084-0.03,980.894-0.03,970.209
	c0-12.108,0.744-28.491,2.232-49.147c4.465-16.383,6.698-51.284,6.698-104.705V73.804C8.901,46.024,5.924,21.451-0.03,0.083z
	 M58.02,277.872h276.853v-89.748H58.02V277.872z M58.02,159.277h276.853v-81.2H58.02V159.277z M567.07,12.903l65.864,34.189h264.572
	l34.606-47.01c26.792,16.382,46.514,31.696,59.166,45.942c5.954,4.986,8.931,9.616,8.931,13.89c0,7.123-14.885,18.52-44.653,34.189
	v808.795c0,24.218-5.21,42.381-15.629,54.489c-9.675,11.396-21.955,20.656-36.839,27.779c-14.885,7.835-27.165,11.753-36.84,11.753
	c0-17.095-2.232-29.204-6.698-36.327c-3.721-8.547-11.163-16.026-22.326-22.437c-11.163-7.835-23.815-12.821-37.956-14.958v-24.573
	c27.537,10.684,52.469,16.026,74.795,16.026c13.396,0,21.955-1.781,25.676-5.343c4.466-3.561,6.698-13.177,6.698-28.847V308.856
	H620.654v20.3c0,7.123-4.465,12.465-13.396,16.026c-11.907,4.273-20.839,6.41-26.792,6.41c-8.931,0-13.396-4.273-13.396-12.82
	V12.903z M620.654,277.872h285.783v-89.748H620.654V277.872z M620.654,159.277h285.783v-81.2H620.654V159.277z M159.606,626.861
	c29.025,5.698,71.074,8.548,126.146,8.548h74.795l35.723-47.011c27.536,16.383,47.259,31.696,59.166,45.942
	c5.954,4.985,8.931,9.972,8.931,14.958c0,6.41-14.885,17.45-44.653,33.12v198.043c0,24.217-3.349,42.736-10.047,55.558
	c-5.209,11.396-12.652,20.656-22.327,27.779c-8.187,7.122-15.629,10.684-22.327,10.684c0-15.67-1.489-27.066-4.465-34.189
	c-3.721-9.972-9.303-18.163-16.745-24.573c-9.675-7.123-20.466-11.396-32.374-12.821v-26.711
	c23.071,12.109,44.282,18.163,63.631,18.163c-1.488,0-2.604-2.137-3.349-6.41c-0.744-4.273-1.116-13.533-1.116-27.779V666.393
	h-84.842c-59.538,0-95.261,1.069-107.168,3.206L159.606,626.861z M191.98,696.309c26.048,5.698,46.142,11.396,60.282,17.095
	c14.141,4.986,24.188,9.973,30.141,14.958c5.209,2.85,7.814,6.411,7.814,10.685c0,22.081-9.303,33.121-27.908,33.121
	c-3.721,0-7.07-0.713-10.047-2.137c-2.977-0.713-5.954-3.562-8.931-8.548c-8.187-10.684-16.745-19.588-25.676-26.71
	c-9.675-7.123-22.699-14.246-39.072-21.369L191.98,696.309z M334.872,796.057l4.465,20.3c-17.862,8.547-35.723,16.738-53.584,24.573
	c-17.861,7.123-39.072,14.602-63.631,22.438c0,29.203-2.977,43.805-8.931,43.805c-4.465,0-27.909-25.998-70.33-77.994
	c20.094-2.138,42.049-4.986,65.864-8.548c21.583-3.562,41.677-7.123,60.282-10.685C287.613,806.385,309.568,801.755,334.872,796.057
	L334.872,796.057z M477.764,626.861c29.024,5.698,70.341,7.405,123.913,8.548h93.772l35.723-47.011
	c27.537,16.383,47.259,31.696,59.166,45.942c5.954,4.985,8.931,9.972,8.931,14.958c0,6.41-14.884,17.45-44.653,33.12v193.769
	c0,24.218-4.093,42.737-12.279,55.559c-6.698,12.108-16.001,21.368-27.908,27.778c-10.42,7.123-19.723,10.685-27.909,10.685
	c0-15.67-1.488-27.066-4.465-34.189c-2.978-9.972-8.187-18.163-15.629-24.574c-8.187-7.122-17.861-11.396-29.025-12.82v-26.711
	c21.583,12.109,40.933,18.163,58.05,18.163c2.978,0,5.582-2.137,7.814-6.41c1.488-4.274,2.232-13.533,2.232-27.779V666.393H601.677
	c-58.794,0-94.517,1.069-107.168,3.206L477.764,626.861z M517.951,696.309c26.048,6.411,47.259,12.821,63.632,19.232
	c14.14,4.985,24.56,10.327,31.258,16.025c5.209,3.562,7.813,7.479,7.813,11.753c0,22.081-9.303,33.121-27.908,33.121
	c-3.721,0-7.07-0.712-10.047-2.137s-6.326-4.63-10.047-9.616c-8.187-11.396-17.117-20.656-26.792-27.778
	c-10.419-7.835-24.56-15.671-42.421-23.506L517.951,696.309z M674.239,796.057l3.349,20.3
	c-20.094,8.547-40.188,16.738-60.282,24.573c-20.838,7.123-45.397,14.602-73.679,22.438c0,29.203-2.977,43.805-8.931,43.805
	c-4.465,0-27.908-25.998-70.329-77.994c22.327-2.138,46.143-4.986,71.445-8.548c23.815-3.562,46.143-7.123,66.98-10.685
	C622.888,806.385,646.703,801.755,674.239,796.057L674.239,796.057z"/>
</svg>
